<?xml version="1.0" encoding="utf-8"?><svg xmlns="http://www.w3.org/2000/svg" xmlns:xlink="http://www.w3.org/1999/xlink"><symbol viewBox="0 0 18 18" id="accepted" xmlns="http://www.w3.org/2000/svg"><path d="M7.562 11.58l-2.37-2.37-1.018 1.017 3.388 3.388 6.986-6.986-1.018-1.018-5.968 5.969z"/></symbol><symbol viewBox="0 0 18 18" id="cart" xmlns="http://www.w3.org/2000/svg"><path fill-rule="evenodd" clip-rule="evenodd" d="M2.171 2.057H0V0h3.487l.795 3.086H18L15.237 13.37H5.09L2.17 2.057zm2.642 3.086l1.591 6.171h7.533l1.658-6.171H4.813z"/><path d="M7.073 18c.879 0 1.591-.828 1.591-1.85 0-1.023-.712-1.852-1.591-1.852-.88 0-1.592.829-1.592 1.851 0 1.023.713 1.852 1.592 1.852zm6.188 0c.879 0 1.591-.828 1.591-1.85 0-1.023-.712-1.852-1.591-1.852s-1.591.829-1.591 1.851c0 1.023.712 1.852 1.591 1.852z"/></symbol><symbol viewBox="0 0 24 24" id="dots" xmlns="http://www.w3.org/2000/svg"><path d="M5.88 4.8a1.08 1.08 0 100 2.16 1.08 1.08 0 000-2.16zm6.12 0a1.08 1.08 0 100 2.16 1.08 1.08 0 000-2.16zm6.12 2.16a1.08 1.08 0 100-2.16 1.08 1.08 0 000 2.16zM5.88 17.04a1.08 1.08 0 100 2.16 1.08 1.08 0 000-2.16zm6.12 0a1.08 1.08 0 100 2.16 1.08 1.08 0 000-2.16zm6.12 0a1.08 1.08 0 100 2.16 1.08 1.08 0 000-2.16zM5.88 10.92a1.08 1.08 0 100 2.16 1.08 1.08 0 000-2.16zm6.12 0a1.08 1.08 0 100 2.16 1.08 1.08 0 000-2.16zm6.12 0a1.08 1.08 0 100 2.16 1.08 1.08 0 000-2.16z"/></symbol><symbol viewBox="0 0 24 24" id="email" xmlns="http://www.w3.org/2000/svg"><path d="M20 4H4c-1.1 0-1.99.9-1.99 2L2 18c0 1.1.9 2 2 2h16c1.1 0 2-.9 2-2V6c0-1.1-.9-2-2-2zm-.4 4.25l-7.07 4.42c-.32.2-.74.2-1.06 0L4.4 8.25a.85.85 0 11.9-1.44L12 11l6.7-4.19a.85.85 0 11.9 1.44z"/></symbol><symbol viewBox="0 0 24 24" id="list" xmlns="http://www.w3.org/2000/svg"><path d="M19.96 11.28H4.12a.72.72 0 100 1.44h15.84a.72.72 0 000-1.44zM4.12 6.96h15.84a.72.72 0 100-1.44H4.12a.72.72 0 000 1.44zm15.84 10.08H4.12a.72.72 0 000 1.44h15.84a.72.72 0 100-1.44z"/></symbol><symbol viewBox="0 0 24 24" id="option" xmlns="http://www.w3.org/2000/svg"><path d="M19 9a3 3 0 00-2.82 2H3a1 1 0 000 2h13.18A3 3 0 1019 9zm0 4a1 1 0 111-1 1 1 0 01-1 1zM3 7h1.18a3 3 0 005.64 0H21a1 1 0 000-2H9.82a3 3 0 00-5.64 0H3a1 1 0 000 2zm4-2a1 1 0 11-1 1 1 1 0 011-1zm14 12h-7.18a3 3 0 00-5.64 0H3a1 1 0 000 2h5.18a3 3 0 005.64 0H21a1 1 0 000-2zm-10 2a1 1 0 111-1 1 1 0 01-1 1z"/></symbol><symbol viewBox="0 0 24 24" id="right" xmlns="http://www.w3.org/2000/svg"><path d="M9.4 18L8 16.6l4.6-4.6L8 7.4 9.4 6l6 6z"/></symbol><symbol viewBox="0 0 17 16" id="search" xmlns="http://www.w3.org/2000/svg"><path fill-rule="evenodd" clip-rule="evenodd" d="M10.417 9.871a4.83 4.83 0 000-6.854 4.885 4.885 0 00-6.886 0 4.83 4.83 0 000 6.854 4.885 4.885 0 006.886 0zm1.134 1.13a6.423 6.423 0 000-9.114 6.495 6.495 0 00-9.155 0 6.423 6.423 0 000 9.113 6.495 6.495 0 009.155 0z"/><path fill-rule="evenodd" clip-rule="evenodd" d="M15.365 16l-5.224-5.2 1.134-1.13 5.225 5.2L15.365 16z"/></symbol><symbol viewBox="0 0 32 32" id="telegram" xmlns="http://www.w3.org/2000/svg"><path d="M26.07 3.996a2.974 2.974 0 00-.933.223h-.004c-.285.113-1.64.683-3.7 1.547l-7.382 3.109c-5.297 2.23-10.504 4.426-10.504 4.426l.062-.024s-.359.118-.734.375a2.03 2.03 0 00-.586.567c-.184.27-.332.683-.277 1.11.09.722.558 1.155.894 1.394.34.242.664.355.664.355h.008l4.883 1.645c.219.703 1.488 4.875 1.793 5.836.18.574.355.933.574 1.207.106.14.23.257.379.351a1.119 1.119 0 00.246.106l-.05-.012c.015.004.027.016.038.02.04.011.067.015.118.023.773.234 1.394-.246 1.394-.246l.035-.028 2.883-2.625 4.832 3.707.11.047c1.007.442 2.027.196 2.566-.238.543-.437.754-.996.754-.996l.035-.09 3.734-19.129c.106-.472.133-.914.016-1.343a1.807 1.807 0 00-.781-1.047 1.872 1.872 0 00-1.067-.27zm-.101 2.05c-.004.063.008.056-.02.177v.011l-3.699 18.93c-.016.027-.043.086-.117.145-.078.062-.14.101-.465-.028l-5.91-4.531-3.57 3.254.75-4.79 9.656-9c.398-.37.265-.448.265-.448.028-.454-.601-.133-.601-.133l-12.176 7.543-.004-.02-5.836-1.965v-.004l-.015-.003a.27.27 0 00.03-.012l.032-.016.031-.011s5.211-2.196 10.508-4.426c2.652-1.117 5.324-2.242 7.379-3.11a807.312 807.312 0 013.66-1.53c.082-.032.043-.032.102-.032z"/></symbol><symbol viewBox="0 0 24 24" id="up" xmlns="http://www.w3.org/2000/svg"><path d="M4 15l8-8 8 8-2 2-6-6-6 6z" fill-rule="evenodd"/></symbol><symbol viewBox="0 0 22 20" id="whatsapp" xmlns="http://www.w3.org/2000/svg"><path d="M15.809 11.986c-.263-.127-1.545-.723-1.784-.808-.24-.081-.414-.124-.588.127-.171.244-.674.804-.827.967-.154.163-.305.175-.564.065-.263-.127-1.104-.388-2.102-1.24-.78-.66-1.299-1.474-1.453-1.725-.153-.248-.017-.388.113-.511.12-.114.263-.287.396-.437.127-.15.168-.25.26-.413.086-.175.042-.312-.023-.436s-.588-1.35-.807-1.84c-.209-.484-.427-.423-.588-.423-.15-.013-.325-.013-.499-.013s-.458.062-.697.3c-.24.25-.916.85-.916 2.06 0 1.215.936 2.39 1.066 2.565.133.163 1.842 2.663 4.464 3.737.625.25 1.11.4 1.49.525.626.188 1.197.162 1.647.1.5-.078 1.545-.602 1.764-1.188.223-.59.223-1.077.158-1.188-.065-.114-.236-.176-.499-.286l-.011.062zm-4.754 6.139h-.014c-1.552 0-3.087-.4-4.427-1.15l-.314-.178-3.281.814.882-3.041-.212-.313a7.943 7.943 0 01-1.327-4.38c0-4.538 3.9-8.24 8.699-8.24 2.325 0 4.505.863 6.146 2.425a8.152 8.152 0 011.888 2.67 7.81 7.81 0 01.658 3.157c-.006 4.535-3.903 8.236-8.695 8.236h-.003zm7.4-15.25A10.913 10.913 0 0011.04 0C5.28 0 .59 4.447.589 9.912c0 1.745.478 3.447 1.394 4.954L.5 20l5.544-1.377a11.007 11.007 0 004.997 1.208h.004c5.762 0 10.452-4.447 10.455-9.916 0-2.646-1.084-5.137-3.059-7.009l.013-.032z"/></symbol></svg>