<svg width="397" height="348" fill="none" xmlns="http://www.w3.org/2000/svg"><mask id="a" style="mask-type:alpha" maskUnits="userSpaceOnUse" x="0" y="0" width="397" height="348"><path fill="#48A8EA" d="M0 0h397v348H0z"/></mask><g opacity=".4" stroke="#fff" stroke-width=".6" stroke-miterlimit="10" mask="url(#a)"><path d="M128.19 50.388C103.047 67.469 68.817 60.934 51.736 35.79 34.654 10.647 41.19-23.583 66.332-40.664c25.144-17.082 59.374-10.546 76.455 14.597 17.081 25.144 10.545 59.374-14.598 76.455z"/><path d="M53.919 45.518c-18.22-26.643-11.393-63.011 15.25-81.231 26.642-18.22 63.011-11.393 81.231 15.25 18.22 26.642 11.393 63.01-15.25 81.231-26.643 18.22-63.011 11.393-81.232-15.25z"/><path d="M142.127 71.104C113.708 90.335 75.081 82.888 55.849 54.47 36.618 26.052 44.065-12.576 72.483-31.807c28.419-19.232 67.046-11.784 86.278 16.634 19.231 28.418 11.784 67.046-16.634 86.277z"/><path d="M149.441 81.913c-30.37 20.541-71.641 12.574-92.183-17.795-20.541-30.37-12.574-71.642 17.796-92.183 30.369-20.542 71.641-12.574 92.182 17.795 20.542 30.37 12.575 71.641-17.795 92.183z"/><path d="M157.365 93.333c-32.531 22.1-76.818 13.644-98.918-18.887-22.1-32.53-13.644-76.818 18.887-98.918 32.531-22.1 76.818-13.644 98.918 18.887 22.1 32.531 13.644 76.818-18.887 98.918z"/><path d="M165.017 104.597c-34.734 23.597-82.02 14.568-105.617-20.166C35.803 49.697 44.83 2.411 79.566-21.186 114.3-44.783 161.586-35.755 185.183-1.02 208.78 33.714 199.751 81 165.017 104.597z"/><path d="M172.988 116.331c-37.067 25.182-87.53 15.547-112.71-21.52C35.095 57.744 44.73 7.28 81.797-17.901c37.067-25.181 87.529-15.546 112.711 21.52 25.182 37.068 15.547 87.53-21.521 112.712z"/><path d="M60.846 105.448C33.915 65.972 44.084 12.136 83.56-14.796 123.035-41.73 176.87-31.56 203.803 7.917c26.932 39.476 16.764 93.312-22.713 120.244-39.477 26.933-93.312 16.764-120.245-22.713z"/><path d="M97.162 146.579c45.596 22.186 100.67 3.292 122.855-42.305 22.186-45.596 3.292-100.67-42.305-122.855-45.596-22.185-100.67-3.292-122.855 42.305C32.67 69.32 51.406 124.16 97.162 146.579z"/><path d="M197.221 152.001c-44.455 30.2-105.046 18.54-135.334-26.045C31.598 81.372 43.082 20.747 87.537-9.454c44.454-30.2 105.046-18.54 135.334 26.045 30.288 44.584 18.804 105.209-25.65 135.41z"/><path d="M205.352 163.969c-47.177 32.049-111.402 19.786-143.451-27.39C29.85 89.403 42.114 25.177 89.29-6.871c47.176-32.05 111.401-19.787 143.45 27.389 32.05 47.176 19.787 111.401-27.389 143.451z"/><path d="M213.642 176.172c-49.769 33.81-117.523 20.874-151.333-28.895C28.499 97.509 41.435 29.755 91.204-4.055c49.768-33.81 117.522-20.874 151.332 28.894 33.811 49.769 20.874 117.523-28.894 151.333z"/><path d="M221.932 188.375c-52.491 35.659-123.95 22.015-159.61-30.475C26.665 105.41 40.309 33.95 92.799-1.708c52.49-35.66 123.949-22.016 159.608 30.474 35.66 52.49 22.016 123.95-30.474 159.609z"/><path d="M230.381 200.812c-55.082 37.421-130.142 22.998-167.65-32.214C25.223 113.386 39.469 38.293 94.551.873c55.083-37.42 130.142-22.998 167.65 32.214 37.509 55.212 23.262 130.305-31.82 167.725z"/><path d="M238.671 213.016c-57.933 39.357-136.803 24.298-176.16-33.635C23.153 121.447 38.212 42.577 96.146 3.22c57.933-39.358 136.803-24.298 176.161 33.635 39.357 57.934 24.298 136.803-33.636 176.161z"/><path d="M246.961 225.218c-60.655 41.206-143.23 25.44-184.436-35.215C21.318 129.347 37.085 46.772 97.74 5.566c60.655-41.207 143.231-25.44 184.437 35.215 41.206 60.655 25.44 143.231-35.216 184.437z"/><path d="M255.57 237.89c-63.377 43.056-149.729 26.477-192.872-37.03C19.555 137.353 35.958 50.968 99.334 7.913c63.377-43.056 149.729-26.477 192.872 37.03 43.144 63.507 26.741 149.892-36.636 192.947z"/><path d="M263.861 250.094c-66.229 44.992-156.391 27.777-201.383-38.451C17.485 145.414 34.7 55.253 100.929 10.26c66.228-44.992 156.39-27.777 201.382 38.45 44.993 66.229 27.778 156.391-38.45 201.384z"/><path d="M272.469 262.765c-68.95 46.842-162.888 28.814-209.818-40.266-46.93-69.079-29.078-163.052 39.872-209.893 68.95-46.842 162.889-28.814 209.818 40.266 46.93 69.079 29.078 163.052-39.872 209.893z"/><path d="M280.759 274.969c-71.801 48.778-169.55 30.114-218.329-41.687-48.778-71.801-30.114-169.55 41.687-218.329 71.801-48.778 169.55-30.115 218.329 41.687 48.778 71.801 30.115 169.55-41.687 218.329z"/><path d="M289.209 287.406c-74.653 50.715-176.284 31.31-227-43.342-50.715-74.653-31.31-176.284 43.343-227 74.653-50.715 176.283-31.31 226.999 43.343 50.715 74.653 31.311 176.283-43.342 226.999z"/><path d="M297.818 300.078c-77.504 52.652-183.017 32.506-235.67-44.998C9.497 177.576 29.643 72.064 107.147 19.411c77.504-52.653 183.017-32.506 235.669 44.998 52.653 77.503 32.507 183.016-44.997 235.669z"/></g></svg>