<svg width="22" height="22" fill="none" xmlns="http://www.w3.org/2000/svg"><g clip-path="url(#clip0_465_6259)" fill="#48a8ea"><path d="M21.832 6.915C21.403 5.6 20.07 4.761 18.7 4.831A3.119 3.119 0 0016.1 0a3.098 3.098 0 00-2.117.828l-8.635 7.09a4.18 4.18 0 00-1.325 4.295s-2.44 2.295-2.98 2.843C.46 15.651.009 16.757.009 17.811c0 2.31 1.88 4.189 4.19 4.189a4.196 4.196 0 003.866-2.578A4.196 4.196 0 0011.931 22a4.195 4.195 0 003.779-2.382l4.94-8.488c.21-.36-.347-.684-.557-.324l-3.977 6.832a4.194 4.194 0 00-4.727-3.982s5.68-6.776 6.7-8.028c1.193-.557 2.744.302 3.13 1.487a2.66 2.66 0 01-.163 2.035c-.191.37.381.667.573.296a3.31 3.31 0 00.203-2.53zm-7.43-5.596C14.9.911 15.44.645 16.1.645a2.473 2.473 0 011.983 3.944s-5.472 6.578-5.863 7.051a4.194 4.194 0 00-4.677-4.69l6.86-5.63zM8.064 7.563a3.549 3.549 0 013.545 3.545c0 1.92-1.624 3.544-3.545 3.544a3.549 3.549 0 01-3.545-3.544 3.549 3.549 0 013.545-3.545zm.545 7.698c-.22.286-.404.601-.545.939a4.189 4.189 0 00-.545-.939 4.23 4.23 0 001.09 0zm-4.344-2.389c.13.28.291.543.477.785a4.212 4.212 0 00-1.345.041l.868-.826zm-.068 8.483a3.549 3.549 0 01-3.545-3.544c0-.906.342-1.733.903-2.36.692-.731 1.622-1.185 2.642-1.185a3.549 3.549 0 013.545 3.545 3.549 3.549 0 01-3.545 3.544zm11.279-3.544a3.549 3.549 0 01-3.545 3.544 3.549 3.549 0 01-3.545-3.544 3.549 3.549 0 013.545-3.545 3.549 3.549 0 013.545 3.545z"/><path d="M8.064 14.222a3.119 3.119 0 003.115-3.115 3.119 3.119 0 00-3.115-3.115 3.1 3.1 0 00-1.679.493c-.35.226-.002.768.349.543a2.454 2.454 0 011.33-.391 2.473 2.473 0 012.47 2.47 2.473 2.473 0 01-2.47 2.47 2.473 2.473 0 01-2.294-3.384c.155-.387-.444-.626-.599-.24a3.119 3.119 0 002.893 4.269zm-3.867.473a3.119 3.119 0 00-3.115 3.115 3.118 3.118 0 003.115 3.115 3.119 3.119 0 003.115-3.115 3.119 3.119 0 00-3.115-3.115zm0 5.586a2.473 2.473 0 01-2.47-2.47 2.473 2.473 0 012.47-2.471 2.473 2.473 0 012.47 2.47 2.473 2.473 0 01-2.47 2.47zm7.734.644a3.118 3.118 0 003.116-3.115 3.119 3.119 0 00-3.116-3.115 3.119 3.119 0 00-3.115 3.115 3.118 3.118 0 003.115 3.115zm0-5.585a2.473 2.473 0 012.471 2.47 2.473 2.473 0 01-2.47 2.47 2.473 2.473 0 01-2.471-2.47 2.473 2.473 0 012.47-2.47z"/></g><defs><clipPath id="clip0_465_6259"><path fill="#fff" d="M0 0h22v22H0z"/></clipPath></defs></svg>