<svg width="23" height="22" fill="none" xmlns="http://www.w3.org/2000/svg"><path fill-rule="evenodd" clip-rule="evenodd" d="M2.684 3.164H.03V.802h4.262l.972 3.543H22.03l-3.377 11.81H6.25L2.684 3.164zm3.229 3.543l1.944 7.086h9.207l2.026-7.086H5.913z" fill="currentColor"/><path d="M8.674 21.47c1.075 0 1.945-.952 1.945-2.126 0-1.175-.87-2.126-1.945-2.126-1.074 0-1.945.951-1.945 2.126 0 1.174.871 2.125 1.945 2.125zm7.564 0c1.074 0 1.945-.952 1.945-2.126 0-1.175-.87-2.126-1.945-2.126-1.074 0-1.945.951-1.945 2.126 0 1.174.871 2.125 1.945 2.125z" fill="currentColor"/></svg>