<svg width="38" height="38" fill="none" xmlns="http://www.w3.org/2000/svg"><g clip-path="url(#clip0_801_6338)" fill="#fff"><path d="M36.257 6.539V4.848h1.186c.308 0 .557-.25.557-.557V2.043a.557.557 0 00-.557-.557H20.687v-.93A.557.557 0 0020.131 0h-2.244a.557.557 0 00-.557.557v.93H5.968a.557.557 0 100 1.113H17.33v1.134H1.13V2.6h2.22a.557.557 0 100-1.114H.574a.557.557 0 00-.556.557v2.248c0 .308.249.557.556.557h1.187v1.691c0 .308.25.557.557.557h8.345v3.53c0 .308.25.557.556.557h3.17v6.131c0 .308.249.557.556.557h1.067l.994 3.293c.07.235.287.396.533.396h.912l-.014 11.54-2.455-4.312a.557.557 0 00-.968.551l2.833 4.974-8.49-2.286a.557.557 0 00-.289 1.075l5.716 1.54H1.677a1.68 1.68 0 000 3.358h26.527a.557.557 0 100-1.113H1.677a.566.566 0 010-1.132h34.628a.566.566 0 010 1.132H30.82a.557.557 0 100 1.113h5.486a1.68 1.68 0 000-3.359H23.2l5.715-1.539a.557.557 0 00-.29-1.075l-8.488 2.286 2.832-4.974a.557.557 0 00-.967-.55l-2.45 4.302.014-11.531h.914a.557.557 0 00.533-.396l.993-3.293h1.068c.307 0 .556-.25.556-.557v-6.13h3.169c.307 0 .557-.25.557-.557V7.095H35.7c.307 0 .557-.25.557-.557zM18.443 1.113h1.131v4.87h-1.13v-4.87zM2.874 5.983V4.847H17.33v1.134H2.874zm17.191 14.463h-2.113l-.777-2.575h3.667l-.777 2.575zm2.451-3.688h-7.014v-5.575h7.014v5.575zm3.725-6.688H11.776V7.096h14.465v2.974zm8.902-4.088H20.687V4.848h8.56a.557.557 0 100-1.114h-8.56V2.6h16.2v1.134h-5.035a.557.557 0 100 1.114h3.291v1.134z"/><path d="M13.301 31.765a.554.554 0 00.778-.124.557.557 0 00-.125-.778L8.591 26.98a.557.557 0 10-.653.902l5.363 3.883zm16.09-4.785l-5.42 3.925a.556.556 0 10.653.902l5.42-3.925a.557.557 0 00-.653-.902z"/></g><defs><clipPath id="clip0_801_6338"><path fill="#fff" d="M0 0h38v38H0z"/></clipPath></defs></svg>