<svg width="60" height="60" fill="none" xmlns="http://www.w3.org/2000/svg"><path d="M55.89 16.56l-.045-.078a2.83 2.83 0 00-.212-.366l-8.347-14.43A3.385 3.385 0 0044.365 0H15.638a3.384 3.384 0 00-2.924 1.69L4.23 16.407a1.761 1.761 0 00-.17.412c-.12.322-.185.67-.185 1.034v38.012A4.14 4.14 0 008.01 60h43.981a4.14 4.14 0 004.135-4.135V17.714c0-.051-.002-.102-.004-.152a1.75 1.75 0 00-.232-1.003zM31.82 3.516h12.463l6.566 11.352H31.82V3.517zm-16.1 0h12.582v11.352H9.176L15.72 3.517zm36.889 52.348c0 .34-.277.618-.618.618H8.01a.619.619 0 01-.618-.618V18.386h45.217v37.479z" fill="#1B57AC"/><path d="M37.98 31.644a1.759 1.759 0 00-2.486 0l-7.852 7.852-3.019-3.02a1.759 1.759 0 00-2.487 2.487l4.263 4.263a1.757 1.757 0 002.487 0l9.095-9.095c.687-.687.687-1.8 0-2.487z" fill="#1B57AC"/></svg>