<svg width="60" height="60" fill="none" xmlns="http://www.w3.org/2000/svg"><g clip-path="url(#clip0_751_8219)"><path d="M30 0C13.458 0 0 13.458 0 30s13.458 30 30 30 30-13.458 30-30S46.542 0 30 0zm0 56.25C15.526 56.25 3.75 44.474 3.75 30S15.526 3.75 30 3.75 56.25 15.526 56.25 30 44.474 56.25 30 56.25zm14.176-35.97c.733.732.733 1.92 0 2.652L27.388 39.72a1.874 1.874 0 01-2.652 0l-8.913-8.913a1.875 1.875 0 012.652-2.652l7.587 7.587L41.525 20.28a1.875 1.875 0 012.651 0z" fill="#1B57AC"/></g><defs><clipPath id="clip0_751_8219"><path fill="#fff" d="M0 0h60v60H0z"/></clipPath></defs></svg>