<svg width="22" height="22" fill="none" xmlns="http://www.w3.org/2000/svg"><g clip-path="url(#clip0_465_6166)"><path d="M21.313 5.844H20.08l1.475-1.476a.342.342 0 00.101-.243V.687a.344.344 0 00-.343-.343h-3.438a.343.343 0 00-.243.1l-4.368 4.369h-.545a.344.344 0 00-.238.095L4.575 12.47l.001.001a.34.34 0 00-.107.248v.888L.445 17.632a.342.342 0 00-.101.243v3.438c0 .19.154.343.344.343h3.437a.342.342 0 00.243-.1L5.5 20.423v.889c0 .19.154.344.344.344H9.28a.342.342 0 00.244-.102l12.03-12.031a.342.342 0 00.101-.243V6.187a.343.343 0 00-.343-.343zM9.142 17.532H6.708L7.8 16.5h.45a.34.34 0 00.236-.096l.001.001 7.563-7.219a.345.345 0 00.106-.248v-.33l2.2-2.077h2.11l-11.324 11zm-3.986-1.72v-2.75h2.75v2.75h-2.75zM15.47 5.986V8.79l-6.875 6.563V12.86l6.875-6.875zm3.639-.142h-.89a.345.345 0 00-.235.094l-1.827 1.725V6.33l4.813-4.813v2.466l-1.861 1.86zm-1.09-4.813h2.465l-4.327 4.327v-.202a.344.344 0 00-.343-.343h-1.577l3.781-3.782zM12.856 5.5h2.126l-6.875 6.875H5.669L12.857 5.5zm-8.044 11h.2l-1.03 1.031H1.517L4.47 14.58v1.576c0 .19.154.344.343.344zM3.78 20.969H1.03v-2.75h2.75v2.75zm.688-.486v-2.466L5.986 16.5H6.8l-1.192 1.125.001.002a.341.341 0 00-.109.248v1.576l-1.031 1.032zm4.468.486h-2.75v-2.75h2.75v2.75zm.688-.486V18.02L20.969 7v2.14L9.625 20.483z" fill="#48a8ea"/></g><defs><clipPath id="clip0_465_6166"><path fill="#fff" d="M0 0h22v22H0z"/></clipPath></defs></svg>