<svg width="22" height="22" fill="none" xmlns="http://www.w3.org/2000/svg"><path d="M19.25 0H2.062A2.065 2.065 0 000 2.063V19.25c0 1.137.925 2.063 2.063 2.063H19.25a2.065 2.065 0 002.063-2.063V2.062A2.065 2.065 0 0019.25 0zm1.375 19.25c0 .758-.617 1.375-1.375 1.375H2.062A1.376 1.376 0 01.688 19.25V2.062c0-.758.616-1.374 1.375-1.374H19.25c.758 0 1.375.616 1.375 1.375V19.25z" fill="#48a8ea"/><path d="M4.469 7.563a3.097 3.097 0 003.093-3.094.344.344 0 00-.343-.344 3.097 3.097 0 00-3.094 3.094c0 .19.154.343.344.343zM6.846 4.84a2.411 2.411 0 01-2.005 2.005A2.411 2.411 0 016.846 4.84zm-2.377-.027c.19 0 .343-.154.343-.344A3.097 3.097 0 001.72 1.375a.344.344 0 00-.344.344A3.097 3.097 0 004.47 4.812zm-.373-.717a2.411 2.411 0 01-2.005-2.005 2.41 2.41 0 012.005 2.005zm.029 9.31c0 .19.154.344.344.344a3.097 3.097 0 003.093-3.094.344.344 0 00-.343-.344 3.097 3.097 0 00-3.094 3.094zm.716-.372a2.411 2.411 0 012.005-2.005 2.411 2.411 0 01-2.005 2.005zM4.469 11c.19 0 .343-.154.343-.344A3.097 3.097 0 001.72 7.562a.344.344 0 00-.344.344A3.097 3.097 0 004.469 11zm-.373-.716a2.411 2.411 0 01-2.005-2.005c1.03.16 1.845.975 2.005 2.005zM7.219 16.5a3.097 3.097 0 00-3.094 3.094c0 .19.154.343.344.343a3.097 3.097 0 003.093-3.093.344.344 0 00-.343-.344zM4.84 19.221a2.411 2.411 0 012.005-2.005 2.411 2.411 0 01-2.005 2.005zm-.027-2.377a3.097 3.097 0 00-3.094-3.094.344.344 0 00-.344.344 3.097 3.097 0 003.094 3.094c.19 0 .343-.154.343-.344zM2.09 14.466a2.41 2.41 0 012.005 2.005 2.411 2.411 0 01-2.005-2.005zm8.566-6.903a3.097 3.097 0 003.094-3.094.344.344 0 00-.344-.344 3.097 3.097 0 00-3.094 3.094c0 .19.154.343.344.343zm2.378-2.722a2.411 2.411 0 01-2.005 2.005 2.411 2.411 0 012.005-2.005zm-2.378-.028c.19 0 .344-.154.344-.344a3.097 3.097 0 00-3.094-3.094.344.344 0 00-.343.344 3.097 3.097 0 003.093 3.093zm-.372-.717a2.411 2.411 0 01-2.005-2.005c1.03.16 1.844.976 2.005 2.005zm.372 9.654a3.097 3.097 0 003.094-3.094.344.344 0 00-.344-.344 3.097 3.097 0 00-3.094 3.094c0 .19.154.344.344.344zm2.378-2.721a2.411 2.411 0 01-2.005 2.005 2.411 2.411 0 012.005-2.005zM11 10.656a3.097 3.097 0 00-3.094-3.094.344.344 0 00-.343.344A3.097 3.097 0 0010.655 11c.19 0 .344-.154.344-.344zM8.279 8.28a2.41 2.41 0 012.005 2.005A2.411 2.411 0 018.279 8.28zm5.127 8.22a3.097 3.097 0 00-3.094 3.094c0 .19.154.343.344.343a3.097 3.097 0 003.094-3.093.344.344 0 00-.344-.344zm-2.377 2.721a2.411 2.411 0 012.005-2.005 2.411 2.411 0 01-2.005 2.005zM11 16.844a3.097 3.097 0 00-3.094-3.094.344.344 0 00-.343.344 3.097 3.097 0 003.093 3.094c.19 0 .344-.154.344-.344zm-2.721-2.378c1.03.16 1.844.976 2.005 2.005a2.411 2.411 0 01-2.005-2.005zM19.594 4.125A3.097 3.097 0 0016.5 7.219c0 .19.154.343.344.343a3.097 3.097 0 003.093-3.093.344.344 0 00-.343-.344zm-2.378 2.721a2.411 2.411 0 012.005-2.005 2.411 2.411 0 01-2.005 2.005zm-.372-2.033c.19 0 .343-.154.343-.344a3.097 3.097 0 00-3.093-3.094.344.344 0 00-.344.344 3.097 3.097 0 003.094 3.093zm-.373-.717a2.411 2.411 0 01-2.005-2.005 2.41 2.41 0 012.005 2.005zm3.123 6.217a3.097 3.097 0 00-3.094 3.093c0 .19.154.344.344.344a3.097 3.097 0 003.093-3.094.344.344 0 00-.343-.344zm-2.378 2.72a2.411 2.411 0 012.005-2.004 2.411 2.411 0 01-2.005 2.005zM13.75 7.906A3.097 3.097 0 0016.844 11c.19 0 .343-.154.343-.344a3.097 3.097 0 00-3.093-3.094.344.344 0 00-.344.344zm2.721 2.378a2.411 2.411 0 01-2.005-2.005c1.03.16 1.845.975 2.005 2.005zm3.123 6.216a3.097 3.097 0 00-3.094 3.094c0 .19.154.343.344.343a3.097 3.097 0 003.093-3.093.344.344 0 00-.343-.344zm-2.378 2.721a2.411 2.411 0 012.005-2.005 2.411 2.411 0 01-2.005 2.005zm-.028-2.377a3.097 3.097 0 00-3.094-3.094.344.344 0 00-.344.344 3.097 3.097 0 003.094 3.094c.19 0 .343-.154.343-.344zm-2.722-2.378a2.41 2.41 0 012.005 2.005 2.411 2.411 0 01-2.005-2.005z" fill="#48a8ea"/></svg>