<svg width="21" height="22" fill="none" xmlns="http://www.w3.org/2000/svg"><path fill-rule="evenodd" clip-rule="evenodd" d="M12.926 13.52c2.377-2.446 2.377-6.41 0-8.855a5.967 5.967 0 00-8.608 0c-2.376 2.445-2.376 6.41 0 8.854a5.967 5.967 0 008.608 0zm1.418 1.458c3.16-3.25 3.16-8.52 0-11.771a7.934 7.934 0 00-11.444 0c-3.16 3.25-3.16 8.52 0 11.771a7.934 7.934 0 0011.444 0z" fill="currentColor"/><path fill-rule="evenodd" clip-rule="evenodd" d="M19.112 21.436L12.58 14.72l1.418-1.46 6.531 6.719-1.418 1.458z" fill="currentColor"/></svg>