<svg width="20" height="20" fill="none" xmlns="http://www.w3.org/2000/svg"><path d="M10 20c5.523 0 10-4.477 10-10S15.523 0 10 0 0 4.477 0 10s4.477 10 10 10z" fill="url(#paint0_linear_713_8125)"/><path fill-rule="evenodd" clip-rule="evenodd" d="M14.815 5.303a6.36 6.36 0 00-4.49-1.866 6.348 6.348 0 00-6.34 6.34c0 1.111.296 2.208.844 3.17l-.903 3.29 3.363-.89a6.348 6.348 0 009.378-5.57 6.362 6.362 0 00-1.852-4.474zm-4.49 9.763a5.147 5.147 0 01-2.68-.74l-.193-.12-2 .52.533-1.941-.118-.193a5.21 5.21 0 01-.8-2.8 5.286 5.286 0 015.274-5.274c1.407 0 2.726.548 3.733 1.54a5.256 5.256 0 011.54 3.734c-.014 2.904-2.385 5.274-5.288 5.274zm2.89-3.94c-.163-.075-.934-.46-1.082-.52-.148-.058-.252-.073-.355.075-.104.163-.415.519-.504.622-.089.104-.178.119-.34.045-.164-.074-.667-.252-1.275-.786-.474-.414-.785-.933-.889-1.096-.089-.163-.015-.237.074-.326.074-.074.163-.178.237-.281.074-.09.104-.163.163-.267.06-.104.03-.193-.015-.281-.044-.074-.355-.86-.488-1.17-.134-.312-.267-.267-.356-.267h-.311a.638.638 0 00-.43.192c-.148.163-.548.548-.548 1.319 0 .785.563 1.54.652 1.644.074.104 1.111 1.704 2.711 2.4.385.163.667.267.904.34a2.1 2.1 0 00.992.06c.311-.044.934-.385 1.067-.755.133-.37.133-.682.089-.756-.03-.074-.133-.118-.296-.193z" fill="#fff"/><defs><linearGradient id="paint0_linear_713_8125" x1="9.999" y1="18.545" x2="9.999" y2="-1.455" gradientUnits="userSpaceOnUse"><stop stop-color="#78CD51"/><stop offset="1" stop-color="#A0FC84"/></linearGradient></defs></svg>