<svg width="34" height="34" fill="none" xmlns="http://www.w3.org/2000/svg"><path d="M28.9 5.313H5.1A4.036 4.036 0 001.063 9.35v15.3A4.036 4.036 0 005.1 28.688h23.8a4.036 4.036 0 004.038-4.038V9.35A4.036 4.036 0 0028.9 5.313zm1.913 19.337a1.919 1.919 0 01-1.913 1.913H5.1a1.918 1.918 0 01-1.912-1.913V9.35c0-1.052.86-1.912 1.912-1.912h23.8c1.052 0 1.913.86 1.913 1.912v15.3z" fill="#1B57AC"/><path d="M10.625 22.313h-4.25a1.063 1.063 0 000 2.125h4.25a1.063 1.063 0 000-2.125zm17-11.688H6.375a1.063 1.063 0 000 2.125h21.25a1.063 1.063 0 000-2.125z" fill="#1B57AC"/></svg>