<svg width="40" height="40" fill="none" xmlns="http://www.w3.org/2000/svg"><path d="M10.833 26.216a3.94 3.94 0 10-7.88 0 3.94 3.94 0 007.88 0zm-6.592 0a2.653 2.653 0 115.305 0 2.653 2.653 0 01-5.305 0zm8.523-7.794a3.94 3.94 0 100-7.88 3.94 3.94 0 000 7.88zm0-6.593a2.653 2.653 0 110 5.307 2.653 2.653 0 010-5.306zm20.345 7.879h-2.005a6.5 6.5 0 00-3.863-11.734L12.764 7.97a6.504 6.504 0 00-3.869 11.737l-2.001-.004a6.512 6.512 0 100 13.023l26.215-.003a6.508 6.508 0 000-13.016zM18.633 31.44a5.225 5.225 0 110-10.45 5.225 5.225 0 010 10.45zm8.608-22.18a5.222 5.222 0 110 10.443H16.638a6.488 6.488 0 000-10.444H27.24zM7.539 14.481a5.225 5.225 0 1110.45 0 5.225 5.225 0 01-10.45 0zm7.22 6.512a6.543 6.543 0 00-1.996 2.42 6.542 6.542 0 00-1.995-2.42h3.99zm-13.09 5.222a5.225 5.225 0 1110.45 0 5.225 5.225 0 01-10.45 0zm11.094 2.8a6.542 6.542 0 001.997 2.422h-3.993a6.543 6.543 0 001.996-2.421zm20.346 2.422H22.506a6.489 6.489 0 000-10.444H33.11a5.222 5.222 0 010 10.444zm-14.476-9.161a3.939 3.939 0 100 7.877 3.939 3.939 0 000-7.877zm0 6.592a2.653 2.653 0 110-5.306 2.653 2.653 0 010 5.306z" fill="#48A8EA"/></svg>