<svg width="91" height="272" fill="none" xmlns="http://www.w3.org/2000/svg"><path d="M95 287H0v-66.079c0-2.932.792-5.586 2.375-7.963 1.583-2.456 3.738-4.397 6.465-5.823 2.727-1.506 5.718-2.258 8.973-2.258H36.68c1.231 0 2.419.118 3.562.356 1.056.159 2.067.436 3.035.832 2.199-1.426 4.398-2.535 6.597-3.328 2.111-.871 4.266-1.307 6.465-1.307h20.847c3.255 0 6.246.753 8.973 2.258 2.727 1.426 4.882 3.367 6.465 5.824 1.583 2.377 2.375 5.031 2.375 7.962V287zm-15.965-16.401V217.95c0-.555-.22-1.03-.66-1.426-.44-.476-1.012-.713-1.715-.713H57c-.704 0-1.275.237-1.715.713-.44.396-.66.871-.66 1.426v52.649c0 .555.22 1.07.66 1.545.44.396 1.011.594 1.715.594h19.66c.703 0 1.275-.198 1.715-.594.44-.475.66-.99.66-1.545zm-40.375 0v-49.084c0-.634-.22-1.149-.66-1.545-.528-.396-1.1-.594-1.715-.594H18.34c-.703 0-1.275.198-1.715.594-.44.396-.66.911-.66 1.545v49.084c0 .555.22 1.07.66 1.545.44.396 1.012.594 1.715.594h17.945c.616 0 1.187-.198 1.715-.594.44-.475.66-.99.66-1.545zM95 188.472H0V172.19l42.486-32.089L0 108.131v-16.4h95v14.38H22.167l44.993 33.99-44.861 34.109H95v14.262zm0-125.828c0 2.932-.792 5.626-2.375 8.082-1.583 2.377-3.738 4.278-6.465 5.705-2.727 1.426-5.718 2.139-8.972 2.139h-6.334V64.308h5.806c.703 0 1.275-.198 1.715-.594.44-.396.66-.911.66-1.545V9.639c0-.634-.22-1.15-.66-1.545-.44-.476-1.012-.713-1.715-.713H57.792c-.616 0-1.144.237-1.584.713-.527.396-.791.91-.791 1.545v53.005c0 2.932-.792 5.626-2.375 8.082-1.584 2.377-3.695 4.278-6.334 5.705-2.727 1.426-5.717 2.139-8.972 2.139H17.813c-3.255 0-6.246-.713-8.973-2.14-2.727-1.426-4.882-3.327-6.465-5.704C.792 68.27 0 65.576 0 62.644v-53.6C0 6.113.792 3.46 2.375 1.082 3.958-1.375 6.113-3.316 8.84-4.742 11.567-6.247 14.558-7 17.813-7h6.333V7.38H18.34c-.703 0-1.275.238-1.715.714-.44.396-.66.91-.66 1.545v52.53c0 .634.22 1.149.66 1.545.44.396 1.012.594 1.715.594h18.868c.616 0 1.188-.198 1.716-.594.44-.396.66-.911.66-1.545V9.044c0-2.931.791-5.585 2.374-7.962 1.584-2.457 3.739-4.398 6.466-5.824C51.063-6.247 54.009-7 57.264-7h19.923c3.255 0 6.246.753 8.973 2.258 2.727 1.426 4.882 3.367 6.465 5.824C94.208 3.459 95 6.112 95 9.044v53.6z" opacity=".21" fill="#1D2550"/></svg>