<svg width="38" height="38" fill="none" xmlns="http://www.w3.org/2000/svg"><g clip-path="url(#clip0_801_6347)" fill="#fff"><path d="M36.77 22.016h.08c.634 0 1.15-.516 1.15-1.15v-1.272a1.15 1.15 0 00-1.15-1.15h-2.54v-1.31c0-.634-.516-1.15-1.15-1.15h-.694V3.016A3.02 3.02 0 0029.451 0H13.467a3.02 3.02 0 00-3.016 3.016v3.132h-.079c-.634 0-1.15.516-1.15 1.15v1.309H5.39a2.935 2.935 0 00-2.932 2.932v20.43H2.38c-.634 0-1.15.516-1.15 1.15v1.309h-.08c-.634 0-1.15.516-1.15 1.15v1.272C0 37.484.516 38 1.15 38h35.7c.634 0 1.15-.516 1.15-1.15v-1.272c0-.634-.516-1.15-1.15-1.15h-.08V22.016zm-1.113 9.953h-9.953v-9.953h9.953v9.953zm-12.412 2.459v-1.31c0-.634-.516-1.15-1.15-1.15h-.08v-20.43a2.935 2.935 0 00-2.93-2.931h-3.832V7.298c0-.634-.516-1.15-1.15-1.15h-.08V4.245c0-.37.303-.673.674-.673h13.525c.37 0 .673.302.673.673v11.74H28.2a1.15 1.15 0 00-1.15 1.15v1.308h-2.539c-.634 0-1.15.516-1.15 1.15v1.272c0 .635.516 1.15 1.15 1.15h.08v12.413h-1.347zm-17.213-2.46v-1.96h1.345v1.96H6.032zm-2.46-17.33h17.33v1.346H3.572v-1.346zM7.377 25.09v1.346H6.032V25.09h1.345zm-1.345-1.114v-1.345h1.345v1.345H6.032zm1.345-2.459H6.032v-1.346h1.345v1.346zM6.032 27.55h1.345v1.346H6.032V27.55zm1.345-10.451v1.96H6.032v-1.96h1.345zm1.114 0h12.411v14.87H8.491v-14.87zm28.396 2.496v1.271c0 .02-.017.037-.037.037H24.512a.037.037 0 01-.037-.037v-1.271c0-.02.016-.037.037-.037H36.85c.02 0 .037.016.037.037zm-3.689-2.46v1.31h-5.034v-1.31c0-.02.016-.036.037-.036h4.96c.02 0 .037.016.037.037zm-3.19-1.15v-1.346h1.346v1.346h-1.346zM11.565 3.016c0-1.05.853-1.903 1.902-1.903h15.984c1.05 0 1.903.854 1.903 1.903v10.51h-1.346v-9.28c0-.986-.801-1.787-1.786-1.787H14.697c-.985 0-1.787.801-1.787 1.786v1.903h-1.345V3.016zm-1.23 4.282c0-.02.017-.037.037-.037h3.731c.02 0 .037.017.037.037v1.309h-3.805V7.298zM5.391 9.72h13.693a1.82 1.82 0 011.818 1.819v1.986H3.572V11.54a1.82 1.82 0 011.819-1.82zm-1.819 7.378h1.346v14.87H3.572v-14.87zm-1.23 16.02c0-.02.017-.036.038-.036h19.715c.02 0 .037.016.037.037v1.309H2.342v-1.31zm34.545 2.46v1.272c0 .02-.017.037-.037.037H1.15a.037.037 0 01-.037-.037v-1.272c0-.02.017-.037.037-.037h35.7c.02 0 .037.017.037.037zm-11.183-1.15v-1.346h9.953v1.346h-9.953z"/><path d="M28.2 26.934h4.96c.635 0 1.151-.516 1.151-1.15v-1.272a1.15 1.15 0 00-1.15-1.15H28.2a1.15 1.15 0 00-1.15 1.15v1.271c0 .635.515 1.15 1.15 1.15zm-.036-2.422c0-.02.016-.037.037-.037h4.96c.02 0 .037.016.037.037v1.271c0 .02-.017.037-.037.037H28.2a.037.037 0 01-.037-.037v-1.271z"/></g><defs><clipPath id="clip0_801_6347"><path fill="#fff" d="M0 0h38v38H0z"/></clipPath></defs></svg>