<svg width="20" height="20" fill="none" xmlns="http://www.w3.org/2000/svg"><path d="M0 10c0 5.523 4.477 10 10 10s10-4.477 10-10S15.523 0 10 0 0 4.477 0 10z" fill="#0078D7"/><path d="M10 13c-1.688 0-2.438-.875-2.438-1.5 0-.125.063-.313.188-.375C7.875 11 8 11 8.125 11c.688 0 .5 1.063 1.875 1.063.688 0 1.063-.438 1.063-.813 0-.25-.126-.5-.563-.625L9 10.25c-1.187-.313-1.375-1-1.375-1.563 0-1.312 1.188-1.75 2.313-1.75 1 0 2.25.563 2.25 1.313 0 .313-.25.5-.626.5-.624 0-.5-.875-1.75-.875-.624 0-.937.313-.937.688 0 .374.5.562.875.624l1.125.25c1.188.25 1.5 1 1.5 1.626C12.375 12.25 11.562 13 10 13zm4.625-2.188c.063-.25.063-.562.063-.812 0-1.375-.626-2.688-1.688-3.625-1.063-.938-2.5-1.25-3.875-1.063A3.182 3.182 0 007.75 5c-1 0-1.938.563-2.438 1.438-.5.875-.5 1.937 0 2.812-.25 1.5.188 3.063 1.313 4.188a4.775 4.775 0 004.125 1.312c.438.25.875.375 1.375.375 1 0 1.938-.563 2.438-1.438.5-.937.562-2 .062-2.874z" fill="#fff"/></svg>