<svg width="40" height="40" fill="none" xmlns="http://www.w3.org/2000/svg"><g clip-path="url(#clip0_704_3017)" fill="#1B57AC"><path d="M30.995 29.93c0-.811-.416-1.527-1.046-1.945a2.32 2.32 0 00.59-1.548 2.335 2.335 0 00-2.332-2.332h-1.174a.586.586 0 100 1.171h1.174a1.161 1.161 0 010 2.321h-2.394a.586.586 0 100 1.172h2.85a1.16 1.16 0 010 2.321h-2.85a.586.586 0 100 1.172h2.394a1.16 1.16 0 010 2.321h-2.394a.586.586 0 100 1.172h1.36a.971.971 0 010 1.94H17.84c-2.371-.017-3.673-.634-3.656-1.896v-1.642a.586.586 0 10-1.172 0v2.904c0 .35-.284.634-.634.634h-1.566a.635.635 0 01-.634-.634V25.91c0-.35.284-.635.634-.635h1.566c.35 0 .634.285.634.635v5.5a.586.586 0 001.172 0v-4.726c1.682-1.017 2.805-2.911 3.308-4.406l1.972-5.86a.358.358 0 01.498-.21 2.517 2.517 0 011.354 2.713l-.413 2.212a3.517 3.517 0 00.74 2.904 3.441 3.441 0 002.659 1.238.586.586 0 100-1.171c-.696 0-1.32-.29-1.757-.816a2.35 2.35 0 01-.49-1.94l.413-2.212a3.693 3.693 0 00-1.988-3.98 1.528 1.528 0 00-2.127.888l-1.972 5.86c-.47 1.398-1.313 2.638-2.295 3.42a1.809 1.809 0 00-1.708-1.22h-1.566c-.996 0-1.806.81-1.806 1.806v11.15c0 .996.81 1.806 1.806 1.806h1.566c.702 0 1.312-.403 1.61-.99.9.7 2.2.982 3.852.99h9.332a2.144 2.144 0 001.831-3.252 2.336 2.336 0 001.536-2.193c0-.593-.223-1.136-.59-1.548a2.332 2.332 0 001.046-1.944zM15.83 6.51a.743.743 0 00-.604-.508l-1.253-.182-.518-1.05c-.235-.51-1.095-.625-1.425 0l-.518 1.05-1.253.182c-.508.061-.891.796-.414 1.275l.906.884-.214 1.247a.759.759 0 001.085.789l1.12-.59 1.121.59c.41.264 1.201-.128 1.085-.789l-.214-1.247.907-.884a.743.743 0 00.189-.766zm-2.074.967a.748.748 0 00-.215.662l.107.62-.557-.292a.747.747 0 00-.696 0l-.557.292.106-.62a.747.747 0 00-.215-.662l-.451-.44.623-.09a.748.748 0 00.563-.409l.278-.564.279.564c.109.22.32.374.563.41l.623.09-.45.439zM8.57 6.51a.743.743 0 00-.603-.508L6.714 5.82l-.518-1.05c-.235-.511-1.095-.625-1.425 0l-.518 1.05L3 6.002c-.508.061-.891.796-.414 1.275l.906.884-.214 1.247a.759.759 0 001.085.789l1.12-.59 1.121.59c.41.264 1.201-.128 1.085-.789l-.214-1.247.907-.884a.743.743 0 00.189-.766zm-2.073.967a.749.749 0 00-.215.662l.107.62-.557-.292a.747.747 0 00-.696 0l-.557.292.106-.62a.747.747 0 00-.215-.662l-.45-.44.622-.09a.748.748 0 00.563-.409l.279-.564.278.564c.11.22.32.374.563.41l.623.09-.45.44zM23.09 6.51a.743.743 0 00-.604-.508l-1.253-.182-.518-1.05c-.23-.494-1.098-.64-1.425 0l-.518 1.05-1.253.182c-.508.061-.891.796-.415 1.275l.907.884-.214 1.247a.759.759 0 001.085.789l1.12-.59 1.12.59c.41.264 1.202-.128 1.086-.789l-.214-1.247.906-.884a.743.743 0 00.19-.766zm-2.074.967a.747.747 0 00-.215.662l.106.62-.556-.292a.747.747 0 00-.697 0l-.557.292.107-.62a.748.748 0 00-.215-.662l-.451-.44.623-.09a.747.747 0 00.563-.409l.278-.564.279.564a.75.75 0 00.563.41l.623.09-.45.44zm5.531-2.707l-.518 1.05-1.253.182c-.509.061-.892.796-.415 1.275l.907.884-.214 1.247a.759.759 0 001.085.789l1.12-.59 1.12.59c.41.264 1.202-.128 1.086-.789l-.214-1.247.906-.884c.388-.36.24-1.162-.414-1.275L28.49 5.82l-.518-1.05c-.23-.494-1.097-.64-1.425 0zM28.1 6.946l.623.09-.451.44a.748.748 0 00-.215.662l.106.62-.557-.292a.748.748 0 00-.696 0l-.557.293.106-.62a.747.747 0 00-.215-.663l-.45-.439.622-.09a.748.748 0 00.563-.41l.279-.564.279.565c.109.22.32.373.563.408zm9.503-.436A.743.743 0 0037 6.003l-1.253-.182-.519-1.05c-.235-.51-1.095-.625-1.424 0l-.519 1.05-1.252.182c-.525.062-.877.799-.415 1.275l.907.884-.214 1.247c-.067.505.426 1.102 1.085.789l1.12-.59 1.12.59c.415.241 1.202-.115 1.086-.789l-.214-1.247.906-.884a.743.743 0 00.19-.766zm-2.073.967a.747.747 0 00-.215.662l.106.62-.557-.293a.748.748 0 00-.696 0l-.557.293.107-.62a.748.748 0 00-.216-.662l-.45-.44.623-.09a.748.748 0 00.563-.409l.278-.564.279.564c.109.22.319.374.563.41l.623.09-.45.439z"/><path d="M9.34 13.203a.586.586 0 00-.585-.586H2.539a1.369 1.369 0 01-1.367-1.367V3.672c0-.754.613-1.367 1.367-1.367h24.58a.586.586 0 000-1.172H2.54C1.14 1.133 0 2.272 0 3.672v7.578c0 1.4 1.139 2.54 2.54 2.54h6.215a.586.586 0 00.586-.587zm28.121-12.07H29.86a.586.586 0 100 1.172h7.602a1.37 1.37 0 011.368 1.367v7.578a1.37 1.37 0 01-1.368 1.367h-25.98a.586.586 0 100 1.172h25.98c1.4 0 2.54-1.139 2.54-2.539V3.672c0-1.4-1.14-2.54-2.54-2.54z"/></g><defs><clipPath id="clip0_704_3017"><path fill="#fff" d="M0 0h40v40H0z"/></clipPath></defs></svg>