<svg width="40" height="40" fill="none" xmlns="http://www.w3.org/2000/svg"><g clip-path="url(#clip0_801_6470)" fill="#48A8EA"><path d="M11.848 17.354l-.002.026c-.098 1.726.869 3.343 2.464 4.118l.017.008c.562.27 1.023.713 1.314 1.264l.007.012c.804 1.531 2.467 2.46 4.24 2.366l.026-.001a3.087 3.087 0 011.825.474 4.627 4.627 0 004.908 0 3.087 3.087 0 011.825-.474l.027.001c1.77.094 3.435-.835 4.24-2.368l.005-.009a2.909 2.909 0 011.318-1.267l.013-.006c1.596-.776 2.563-2.392 2.464-4.119l-.001-.024a2.762 2.762 0 01.48-1.712 4.248 4.248 0 00.001-4.803 2.763 2.763 0 01-.481-1.711l.001-.026c.1-1.726-.868-3.343-2.465-4.12l-.015-.006a2.9 2.9 0 01-1.312-1.26l-.009-.017c-.804-1.53-2.47-2.458-4.239-2.366l-.027.002a3.085 3.085 0 01-1.825-.475 4.627 4.627 0 00-4.908 0 3.09 3.09 0 01-1.825.475l-.027-.002c-1.77-.094-3.435.835-4.239 2.366l-.006.01a2.904 2.904 0 01-1.316 1.267l-.015.007c-1.596.776-2.563 2.393-2.464 4.12l.001.023a2.76 2.76 0 01-.48 1.712 4.247 4.247 0 000 4.803 2.76 2.76 0 01.48 1.712zm.745-5.67a4.258 4.258 0 00.742-2.64l-.001-.026a2.831 2.831 0 011.626-2.693l.013-.006a4.386 4.386 0 001.986-1.912l.007-.014c.535-1.017 1.653-1.634 2.842-1.57h.026a4.562 4.562 0 002.699-.701 3.13 3.13 0 013.32 0 4.578 4.578 0 002.698.702l.027-.002c1.194-.062 2.307.554 2.84 1.568l.01.019a4.385 4.385 0 001.984 1.91l.013.005c1.053.512 1.692 1.57 1.628 2.694l-.002.027c-.05.938.21 1.866.742 2.64a2.75 2.75 0 010 3.112 4.262 4.262 0 00-.742 2.642l.002.025c.064 1.125-.575 2.182-1.629 2.695l-.01.005a4.39 4.39 0 00-1.989 1.915l-.005.01c-.535 1.018-1.652 1.635-2.842 1.572l-.026-.002a4.57 4.57 0 00-2.7.702 3.13 3.13 0 01-3.319 0 4.563 4.563 0 00-2.699-.702l-.026.001a3.017 3.017 0 01-2.843-1.572l-.007-.014a4.38 4.38 0 00-1.983-1.91l-.014-.006c-1.053-.512-1.693-1.57-1.628-2.694l.002-.026a4.262 4.262 0 00-.743-2.641 2.75 2.75 0 01.001-3.112z"/><path d="M19.388 20.94a.745.745 0 001.026-.237L29.236 6.57a.745.745 0 10-1.264-.789L19.15 19.914a.745.745 0 00.238 1.026zm.79-7.662c1.814 0 3.29-1.683 3.29-3.75 0-2.068-1.476-3.75-3.29-3.75-1.813 0-3.288 1.682-3.288 3.75 0 2.067 1.475 3.75 3.288 3.75zm0-6.011c.993 0 1.8 1.014 1.8 2.26 0 1.247-.807 2.262-1.8 2.262-.992 0-1.799-1.015-1.799-2.261 0-1.247.807-2.261 1.8-2.261zm4.741 9.689c0 2.068 1.475 3.75 3.288 3.75 1.814 0 3.29-1.682 3.29-3.75 0-2.067-1.476-3.75-3.29-3.75-1.813 0-3.288 1.682-3.288 3.75zm5.088 0c0 1.247-.807 2.26-1.8 2.26-.992 0-1.799-1.013-1.799-2.26 0-1.246.807-2.26 1.8-2.26.992 0 1.799 1.013 1.799 2.26zm9.896 12.367a3.762 3.762 0 00-4.967-1.515l-5.834 2.757a4.752 4.752 0 00-4.051-2.5l-5.385-.148a5.693 5.693 0 01-2.448-.632l-.548-.284a9.666 9.666 0 00-8.953.01l.034-1.242a.745.745 0 00-.724-.765l-5.905-.162a.744.744 0 00-.765.724L0 38.526a.745.745 0 00.724.764l5.906.163h.02a.745.745 0 00.745-.725l.017-.62 1.534-.821a2.632 2.632 0 011.964-.215l9.161 2.571a9.809 9.809 0 002.062.22 9.935 9.935 0 004.151-.906.729.729 0 00.093-.05l13.282-8.592a.744.744 0 00.244-.992zM1.51 37.82l.315-11.47 4.417.122-.316 11.47-4.416-.121zm24.103-.195a8.44 8.44 0 01-5.164.576l-9.136-2.564a4.116 4.116 0 00-3.07.336l-.784.42.21-7.627a8.186 8.186 0 018.316-.444l.548.284a7.19 7.19 0 003.092.799l5.385.148a3.266 3.266 0 013.105 2.603l-8.022-.22a.744.744 0 10-.04 1.488l8.852.244h.02a.745.745 0 00.745-.724 4.753 4.753 0 00-.072-.967l5.982-2.827.018-.008a2.275 2.275 0 012.573.36l-12.558 8.123z"/></g><defs><clipPath id="clip0_801_6470"><path fill="#fff" d="M0 0h40v40H0z"/></clipPath></defs></svg>