<svg width="34" height="34" fill="none" xmlns="http://www.w3.org/2000/svg"><path d="M16.468 19.656H4.25a.53.53 0 01-.531-.531v-6.906a.531.531 0 01.531-.531h12.218a.531.531 0 010 1.062H4.78v5.844h11.687a.531.531 0 110 1.062z" fill="#1B57AC"/><path d="M16.468 19.649a.531.531 0 01-.531-.532l-.001-5.816-5.253 4.061a.53.53 0 01-.65 0L3.925 12.64a.531.531 0 01.65-.84l5.783 4.472 5.784-4.473a.531.531 0 01.856.42l.001 6.9a.531.531 0 01-.53.53z" fill="#1B57AC"/><path d="M20.188 24.438H9.03a.531.531 0 010-1.063h10.625V7.437H1.063v15.938h1.593a.531.531 0 010 1.063H.531A.531.531 0 010 23.905v-17a.53.53 0 01.531-.531h19.657a.53.53 0 01.53.531v17a.532.532 0 01-.53.532z" fill="#1B57AC"/><path d="M21.782 24.438h-1.87a.531.531 0 010-1.063h1.87a.531.531 0 010 1.063zm10.311-.001h-3.937a.531.531 0 010-1.062h3.937a.813.813 0 00.632-.303.933.933 0 00.195-.77l-.85-4.6a.867.867 0 00-.833-.724h-11.05a.532.532 0 010-1.062h11.05a1.932 1.932 0 011.877 1.59l.85 4.604a1.992 1.992 0 01-.423 1.641 1.883 1.883 0 01-1.448.686z" fill="#1B57AC"/><path d="M30.282 16.979a.532.532 0 01-.487-.319L26.84 9.898a.646.646 0 00-.598-.335h-6.055a.531.531 0 010-1.063h6.055a1.706 1.706 0 011.572.975l2.953 6.76a.53.53 0 01-.486.744zM5.844 27.625a3.719 3.719 0 110-7.438 3.719 3.719 0 010 7.438zm0-6.375a2.656 2.656 0 100 5.312 2.656 2.656 0 000-5.312z" fill="#1B57AC"/><path d="M5.844 25.5a1.594 1.594 0 110-3.188 1.594 1.594 0 010 3.188zm0-2.125a.532.532 0 100 1.064.532.532 0 000-1.064zm19.125 4.25a3.72 3.72 0 110-7.439 3.72 3.72 0 010 7.439zm0-6.375a2.656 2.656 0 100 5.312 2.656 2.656 0 000-5.312z" fill="#1B57AC"/><path d="M24.969 25.5a1.594 1.594 0 110-3.188 1.594 1.594 0 010 3.188zm0-2.125a.532.532 0 100 1.064.532.532 0 000-1.064zm-5.055-12.75H.531a.531.531 0 010-1.063h19.383a.531.531 0 110 1.063zm13.056 9.563h-2.689a.531.531 0 010-1.063h2.69a.531.531 0 010 1.063z" fill="#1B57AC"/></svg>