<svg width="34" height="34" fill="none" xmlns="http://www.w3.org/2000/svg"><g clip-path="url(#clip0_739_4582)" fill="#1B57AC"><path d="M6.64 19.763c-.318 0-.53-.213-.53-.532V8.606c0-1.275 1.115-2.39 2.39-2.39h16.522c1.275 0 2.39 1.115 2.39 2.39v1.647c0 .32-.212.532-.53.532-.32 0-.532-.213-.532-.532V8.606c0-.743-.584-1.328-1.328-1.328H8.5c-.744 0-1.328.585-1.328 1.328v10.625c0 .32-.213.532-.531.532zm25.607 6.056h-1.222c-.319 0-.531-.213-.531-.532 0-.318.212-.53.531-.53h1.222c.319 0 .69-.267.69-.692V16.84c0-.425-.106-.69-.371-.956l-2.604-2.603c-.265-.212-.637-.372-.956-.372h-1.593v8.394c0 .319-.213.531-.532.531H7.171v2.231c0 .32.266.691.691.691H10.2c.319 0 .531.213.531.531 0 .32-.212.532-.531.532H7.863a1.769 1.769 0 01-1.754-1.754v-2.762c0-.319.213-.531.532-.531H26.35v-8.394c0-.319.212-.531.531-.531h2.125c.585 0 1.169.265 1.7.637l2.656 2.656c.479.479.691 1.01.691 1.7v7.225c-.053.957-.85 1.754-1.806 1.754z"/><path d="M26.562 25.818h-11.9c-.319 0-.531-.212-.531-.53 0-.32.212-.532.531-.532h11.9c.319 0 .531.212.531.531 0 .319-.212.531-.53.531zm6.906-7.011h-6.587c-.319 0-.531-.212-.531-.531v-5.897c0-.319.212-.531.53-.531h2.126c.69 0 1.222.212 1.7.69l2.603 2.603c.425.532.69 1.116.69 1.7v1.435c0 .319-.212.531-.53.531zm-6.056-1.063h5.525v-.903c0-.318-.16-.69-.425-.956l-2.55-2.603c-.265-.266-.531-.372-.956-.372h-1.594v4.834z"/><path d="M12.432 27.785a2.744 2.744 0 01-2.763-2.763 2.744 2.744 0 012.763-2.762 2.744 2.744 0 012.762 2.762 2.744 2.744 0 01-2.762 2.763zm0-4.463c-.957 0-1.7.744-1.7 1.7 0 .957.743 1.7 1.7 1.7.956 0 1.7-.744 1.7-1.7s-.744-1.7-1.7-1.7zm16.309 4.463a2.744 2.744 0 01-2.762-2.763 2.744 2.744 0 012.762-2.762 2.744 2.744 0 012.762 2.762 2.744 2.744 0 01-2.762 2.763zm0-4.463c-.956 0-1.7.744-1.7 1.7 0 .957.744 1.7 1.7 1.7s1.7-.744 1.7-1.7-.744-1.7-1.7-1.7zm.372-2.816h-.744c-.319 0-.531-.213-.531-.531 0-.32.212-.532.531-.532h.744c.319 0 .531.213.531.532 0 .318-.212.53-.531.53zM4.516 9.775H2.125c-.319 0-.531-.212-.531-.53 0-.32.212-.532.531-.532h2.39c.32 0 .532.212.532.531 0 .319-.213.531-.531.531zm0 2.498H.53c-.319 0-.531-.213-.531-.532 0-.319.212-.531.531-.531h3.985c.318 0 .53.212.53.531 0 .319-.212.532-.53.532zm0 2.549H2.125c-.319 0-.531-.212-.531-.531 0-.319.212-.531.531-.531h2.39c.32 0 .532.212.532.531 0 .319-.213.531-.531.531zm0 2.55H.53c-.319 0-.531-.212-.531-.531 0-.319.212-.531.531-.531h3.985c.318 0 .53.212.53.53 0 .32-.212.532-.53.532zm0 2.498H2.125c-.319 0-.531-.213-.531-.532 0-.319.212-.531.531-.531h2.39c.32 0 .532.212.532.53 0 .32-.213.532-.531.532z"/></g><defs><clipPath id="clip0_739_4582"><path fill="#fff" d="M0 0h34v34H0z"/></clipPath></defs></svg>