<svg width="34" height="34" fill="none" xmlns="http://www.w3.org/2000/svg"><path d="M33.952 18.924l-6.42-16.118a.668.668 0 00-.867-.373L.623 12.803a.654.654 0 00-.267.212.66.66 0 00-.356.579v17.353c0 .369.299.668.667.668H28.7a.667.667 0 00.668-.668V21.47l4.213-1.678a.667.667 0 00.372-.868zm-5.92 11.356H1.335V14.26h26.697v16.02zM11.136 12.93l11.175-4.453a5.31 5.31 0 003.827 1.65l1.114 2.803H11.137zm18.23 7.106v-6.442a.668.668 0 00-.667-.667h-.01l-1.415-3.553a.559.559 0 00-.054-.084.66.66 0 00-.698-.514 3.991 3.991 0 01-3.499-1.507.661.661 0 00-.856-.15.752.752 0 00-.095.018L8.43 12.57a.66.66 0 00-.366.357H3.919L26.54 3.92l5.927 14.88-3.1 1.236z" fill="#1B57AC"/><path d="M3.146 25.774a3.99 3.99 0 012.695 2.691.667.667 0 00.64.477.605.605 0 00.102-.015c.03.008.06.014.091.018h16.019a.579.579 0 00.081-.016.621.621 0 00.75-.457l.002-.004a3.99 3.99 0 012.694-2.694.659.659 0 00.458-.735.664.664 0 00.02-.098V19.6a.603.603 0 00-.02-.098.658.658 0 00-.459-.735 3.987 3.987 0 01-2.693-2.695.66.66 0 00-.74-.458.63.63 0 00-.093-.018H6.674a.635.635 0 00-.1.02.66.66 0 00-.733.458 3.99 3.99 0 01-2.695 2.693.659.659 0 00-.458.735.671.671 0 00-.018.098v5.34c.004.031.01.062.018.093a.66.66 0 00.458.74zm.859-5.902a5.296 5.296 0 002.94-2.94h15.476a5.298 5.298 0 002.941 2.94v4.798a5.302 5.302 0 00-2.94 2.94H6.945a5.302 5.302 0 00-2.94-2.94v-4.798z" fill="#1B57AC"/><path d="M14.683 26.275a4.005 4.005 0 100-8.01 4.005 4.005 0 000 8.01zm0-6.674a2.67 2.67 0 110 5.339 2.67 2.67 0 010-5.34zm-7.341 3.671a1.001 1.001 0 100-2.002 1.001 1.001 0 000 2.002zm0-1.335a.334.334 0 110 .667.334.334 0 010-.667zm14.684 1.335a1.001 1.001 0 100-2.003 1.001 1.001 0 000 2.003zm0-1.335a.334.334 0 110 .667.334.334 0 010-.667z" fill="#1B57AC"/></svg>