<svg width="124" height="71" fill="none" xmlns="http://www.w3.org/2000/svg"><g clip-path="url(#clip0_801_6414)" fill="#fff"><path d="M117.657 0H47.938a2.546 2.546 0 00-2.543 2.543v5.691h-5.69a2.546 2.546 0 00-2.544 2.543v22.296L10.486 46.405a4.215 4.215 0 00-2.344 3.791v13.978c0 4.742.56 8.973 1.629 12.81C6.119 80.134 3.8 84.788 3.8 89.978c0 9.461 7.698 17.158 17.159 17.158 2.245 0 4.39-.438 6.357-1.225v9.742a2.74 2.74 0 004.576 2.031l6.661-6.025 6.662 6.025a2.736 2.736 0 002.948.473 2.743 2.743 0 001.628-2.504V101.34h13.662a1.817 1.817 0 000-3.633H53.431c3.85-3.295 7.064-6.83 9.553-10.818H94.82a1.816 1.816 0 100-3.633H64.982a37.612 37.612 0 001.869-4.669h6.047a1.816 1.816 0 100-3.633h-5.052a44.93 44.93 0 00.78-4.668h26.193a1.816 1.816 0 100-3.633H68.905a57.21 57.21 0 00.059-2.48v-2.19h25.855a1.816 1.816 0 100-3.632H68.964v-4.669h9.262a1.816 1.816 0 100-3.633H68.96a4.212 4.212 0 00-2.339-3.644l-2.049-1.025H94.82a1.816 1.816 0 100-3.632H57.302l-16.508-8.251v-21.63h67.539V25.43a1.816 1.816 0 103.633 0V10.777a2.546 2.546 0 00-2.543-2.543H49.028V3.633h67.539v85.84h-4.601V33.906a1.816 1.816 0 10-3.633 0v63.801H71.93a1.816 1.816 0 100 3.633h37.493a2.546 2.546 0 002.543-2.543v-5.691h5.691a2.546 2.546 0 002.543-2.543V2.543A2.546 2.546 0 00117.657 0zM7.433 89.978c0-7.458 6.068-13.526 13.526-13.526s13.526 6.068 13.526 13.526-6.068 13.526-13.526 13.526S7.433 97.436 7.433 89.978zm32.957 18.444a2.731 2.731 0 00-3.674 0l-5.768 5.217v-9.724c4.337-3.117 7.17-8.2 7.17-13.937 0-1.566-.215-3.081-.61-4.524.346.02.694.034 1.045.034 2.708 0 5.28-.586 7.604-1.631v29.782l-5.767-5.217zm24.941-58.226v13.978c0 9.565-2.385 17.124-7.505 23.79-2.137 2.782-4.73 5.403-8.036 8.076V81.7c4.475-3.403 7.37-8.778 7.37-14.82 0-2.988-.729-5.963-2.11-8.605a1.817 1.817 0 00-3.22 1.682 14.802 14.802 0 011.698 6.923c0 8.258-6.718 14.975-14.975 14.975-.892 0-1.765-.08-2.614-.23-2.296-4.102-6.225-7.167-10.902-8.312a14.861 14.861 0 01-1.459-6.433c0-8.257 6.718-14.975 14.975-14.975 2.92 0 5.753.845 8.192 2.442a1.816 1.816 0 101.99-3.038 18.533 18.533 0 00-10.182-3.036c-10.26 0-18.608 8.347-18.608 18.607 0 2.077.345 4.074.977 5.94a17.046 17.046 0 00-7.962 1.985c-.794-3.27-1.185-6.786-1.185-10.631V50.196c0-.23.128-.438.335-.541l26.443-13.216 26.443 13.216a.6.6 0 01.335.541z"/><path d="M52.491 35.263c0 1.003.813 1.817 1.816 1.817H94.82a1.816 1.816 0 100-3.633H54.307a1.816 1.816 0 00-1.816 1.816zM94.82 50.05h-9.81a1.816 1.816 0 100 3.633h9.811a1.816 1.816 0 100-3.633zm-7.803-24.962a1.816 1.816 0 100-3.633H62.112a1.816 1.816 0 000 3.633h24.905zM44.159 62.657l-6.474 6.475-4.236-4.236a1.816 1.816 0 10-2.57 2.568l5.521 5.52a1.812 1.812 0 002.569.001l7.759-7.759a1.816 1.816 0 10-2.57-2.569z"/></g><defs><clipPath id="clip0_801_6414"><path fill="#fff" d="M0 0h124v124H0z"/></clipPath></defs></svg>