<svg width="19" height="19" fill="none" xmlns="http://www.w3.org/2000/svg"><path d="M12.12 6.884a.444.444 0 00-.444.445v8.41a.445.445 0 00.89 0v-8.41c0-.246-.2-.445-.445-.445zm-5.25 0a.444.444 0 00-.444.445v8.41a.445.445 0 00.89 0v-8.41c0-.246-.2-.445-.445-.445z" fill="currentColor"/><path d="M3.043 5.656V16.62c0 .648.238 1.257.653 1.694.413.437.988.686 1.59.687h8.418a2.19 2.19 0 001.59-.687 2.455 2.455 0 00.653-1.694V5.656a1.7 1.7 0 00-.436-3.342h-2.278v-.556A1.748 1.748 0 0011.47 0H7.519a1.748 1.748 0 00-1.762 1.758v.556H3.48a1.7 1.7 0 00-.436 3.342zM13.705 18.11h-8.42c-.76 0-1.352-.654-1.352-1.49V5.695h11.124v10.923c0 .837-.592 1.491-1.353 1.491zM6.646 1.758A.857.857 0 017.52.89h3.952a.857.857 0 01.872.868v.556H6.647v-.556zM3.48 3.204h12.032a.8.8 0 110 1.602H3.479a.8.8 0 110-1.602z" fill="currentColor"/><path d="M9.496 6.884a.445.445 0 00-.445.445v8.41a.445.445 0 00.89 0v-8.41c0-.246-.2-.445-.445-.445z" fill="currentColor"/></svg>