<svg width="34" height="34" fill="none" xmlns="http://www.w3.org/2000/svg"><g clip-path="url(#clip0_739_4613)" fill="#1B57AC"><path d="M6.906 26.031H5.844V12.75h22.312v9.563h-1.062v-8.5H6.906V26.03z"/><path d="M28.156 18.063H5.844V12.75h22.312v5.313zM6.906 17h20.188v-3.188H6.906V17z"/><path d="M5.844 14.875h22.312v1.063H5.844v-1.063zm20.187-3.187H7.97v-4.25h18.06v4.25zm-17-1.063H24.97V8.5H9.03v2.125zm-8.5 21.781H33.47v1.063H.53v-1.063z"/><path d="M12.219 33.469h-8.5v-8.5h8.5v8.5zM4.78 32.406h6.375v-6.375H4.781v6.375z"/><path d="M9.563 30.813h.53v.53h-.53v-.53zm-1.063 0h.531v.53H8.5v-.53zm21.25 2.656a2.125 2.125 0 110-4.25 2.125 2.125 0 010 4.25zm0-3.188a1.063 1.063 0 100 2.126 1.063 1.063 0 000-2.126zm-10.094 3.188a2.125 2.125 0 110-4.25 2.125 2.125 0 010 4.25zm0-3.188a1.063 1.063 0 100 2.126 1.063 1.063 0 000-2.126zm6.375-2.125h-8.5v-8.5h8.5v8.5zm-7.437-1.062h6.375v-6.375h-6.375v6.375z"/><path d="M23.375 25.5h.531v.531h-.531V25.5zm-1.062 0h.53v.531h-.53V25.5zm-12.75 3.188H6.374v-3.72h3.188v3.72zm-2.126-1.063H8.5v-1.594H7.437v1.594zm15.938-4.25h-3.188v-3.719h3.188v3.719zm-2.125-1.063h1.063V20.72H21.25v1.593zm10.96 5.313h-3.523a.532.532 0 01-.53-.531v-2.125a.531.531 0 01.53-.532h2.726a.531.531 0 01.498.345l.797 2.125a.531.531 0 01-.498.718zm-2.991-1.063h2.224l-.398-1.062h-1.826v1.063z"/><path d="M32.938 31.875h-1.594v-1.063h.531v-3.09l-1.43-3.816h-2.82v4.25H17v2.657h1.063v1.062h-2.125v-4.781h10.624v-4.25h4.619l1.756 4.684v4.347z"/><path d="M21.25 30.813h6.906v1.062H21.25v-1.063zm-1.594 1.062a.531.531 0 100-1.062.531.531 0 000 1.062zm10.094 0a.531.531 0 100-1.062.531.531 0 000 1.062zm.531-9.562V8.297L16.996 1.655 3.188 8.303v24.635a.531.531 0 11-1.063 0V7.969a.531.531 0 01.3-.478L16.77.585a.532.532 0 01.469.003L31.05 7.495a.532.532 0 01.294.474v14.344H30.28z"/></g><defs><clipPath id="clip0_739_4613"><path fill="#fff" d="M0 0h34v34H0z"/></clipPath></defs></svg>