<svg width="38" height="38" fill="none" xmlns="http://www.w3.org/2000/svg"><g clip-path="url(#clip0_801_6382)" fill="#fff"><path d="M7.422 22.087c-.356 0-.594-.237-.594-.593V9.619c0-1.425 1.247-2.672 2.672-2.672h18.466c1.425 0 2.671 1.247 2.671 2.672v1.84c0 .357-.237.594-.593.594-.357 0-.594-.238-.594-.594V9.62a1.47 1.47 0 00-1.484-1.485H9.5A1.47 1.47 0 008.016 9.62v11.875c0 .356-.238.593-.594.593zm28.618 6.769h-1.365c-.356 0-.594-.237-.594-.593 0-.357.238-.594.594-.594h1.366c.356 0 .772-.297.772-.772v-8.075c0-.475-.12-.772-.416-1.069l-2.91-2.91c-.296-.237-.712-.415-1.068-.415h-1.781v9.381c0 .357-.238.594-.594.594H8.016v2.494c0 .356.296.772.771.772H11.4c.356 0 .594.237.594.594 0 .356-.238.593-.594.593H8.787a1.976 1.976 0 01-1.959-1.959V23.81c0-.357.238-.594.594-.594H29.45v-9.382c0-.356.238-.593.594-.593h2.375c.653 0 1.306.297 1.9.712l2.968 2.969c.535.534.772 1.128.772 1.9v8.075c-.059 1.069-.95 1.96-2.018 1.96z"/><path d="M29.688 28.856h-13.3c-.357 0-.594-.238-.594-.594s.237-.593.593-.593h13.3c.357 0 .594.237.594.593 0 .357-.237.594-.593.594zm7.718-7.837h-7.362c-.357 0-.594-.238-.594-.594v-6.59c0-.357.238-.594.594-.594h2.375c.772 0 1.365.237 1.9.772l2.91 2.909c.474.594.771 1.247.771 1.9v1.603c0 .356-.237.594-.594.594zm-6.768-1.188h6.174v-1.009c0-.356-.178-.772-.474-1.069l-2.85-2.91c-.297-.296-.594-.415-1.07-.415h-1.78v5.403z"/><path d="M13.894 31.053a3.066 3.066 0 01-3.088-3.088 3.066 3.066 0 013.088-3.087 3.066 3.066 0 013.087 3.087 3.066 3.066 0 01-3.087 3.088zm0-4.988c-1.069 0-1.9.832-1.9 1.9 0 1.07.831 1.9 1.9 1.9s1.9-.83 1.9-1.9c0-1.068-.832-1.9-1.9-1.9zm18.228 4.988a3.066 3.066 0 01-3.088-3.088 3.066 3.066 0 013.088-3.087 3.066 3.066 0 013.087 3.087 3.066 3.066 0 01-3.087 3.088zm0-4.988c-1.069 0-1.9.832-1.9 1.9 0 1.07.831 1.9 1.9 1.9s1.9-.83 1.9-1.9c0-1.068-.831-1.9-1.9-1.9zm.416-3.146h-.832c-.356 0-.593-.238-.593-.594 0-.357.237-.594.593-.594h.832c.356 0 .593.237.593.594 0 .356-.237.594-.593.594zM5.047 10.925H2.375c-.356 0-.594-.238-.594-.594s.238-.594.594-.594h2.672c.356 0 .594.238.594.594s-.238.594-.594.594zm0 2.79H.594c-.356 0-.594-.237-.594-.593 0-.357.237-.594.594-.594h4.453c.356 0 .594.237.594.594 0 .356-.238.593-.594.593zm0 2.85H2.375c-.356 0-.594-.237-.594-.593 0-.357.238-.594.594-.594h2.672c.356 0 .594.237.594.594 0 .356-.238.593-.594.593zm0 2.851H.594c-.356 0-.594-.238-.594-.594 0-.357.237-.594.594-.594h4.453c.356 0 .594.237.594.594 0 .356-.238.594-.594.594zm0 2.79H2.375c-.356 0-.594-.237-.594-.594 0-.356.238-.593.594-.593h2.672c.356 0 .594.237.594.593 0 .357-.238.594-.594.594z"/></g><defs><clipPath id="clip0_801_6382"><path fill="#fff" d="M0 0h38v38H0z"/></clipPath></defs></svg>