<svg width="34" height="34" fill="none" xmlns="http://www.w3.org/2000/svg"><g clip-path="url(#clip0_739_4543)"><path d="M33.689 10.74L17.382.115a.71.71 0 00-.774 0L.305 10.74a.708.708 0 00.775 1.186l1.737-1.133v21.082A2.124 2.124 0 004.943 34h24.105a2.127 2.127 0 002.127-2.125V10.793c.274.13 1.828 1.32 2.126 1.248a.714.714 0 00.388-1.3zm-8.895 21.843h-1.418v-4.958a.708.708 0 00-.709-.708h-2.13v-4.959a.708.708 0 00-.709-.708h-5.67a.71.71 0 00-.709.708v4.959h-2.126a.709.709 0 00-.709.708v4.958H9.196v-12.75H24.79l.004 12.75zm-9.927-5.666v-4.25h4.253v4.25h-4.253zm-2.835 1.416h4.253v4.25h-4.253v-4.25zm5.67 4.25v-4.25h4.253v4.25h-4.253zm12.05-.708a.708.708 0 01-.709.708h-2.835V19.125a.708.708 0 00-.709-.709H8.488a.709.709 0 00-.71.709v13.458H4.944a.71.71 0 01-.708-.708V9.869l12.758-8.315 12.759 8.315v22.006zm-7.088-17.709a.708.708 0 01-.71.709h-9.922a.709.709 0 110-1.417h9.923a.71.71 0 01.712.708h-.003zm-10.632-4.25h9.923a.71.71 0 010 1.417h-9.923a.709.709 0 110-1.417z" fill="#1B57AC"/></g><defs><clipPath id="clip0_739_4543"><path fill="#fff" d="M0 0h34v34H0z"/></clipPath></defs></svg>