<svg width="85" height="107" fill="none" xmlns="http://www.w3.org/2000/svg"><g filter="url(#filter0_d_713_8139)" fill="#48A8EA"><ellipse cx="42.25" cy="40.343" rx="38.25" ry="39.827"/><path d="M43.129 86.558a1 1 0 01-1.75 0l-4.926-8.886a1 1 0 01.874-1.484h9.855a1 1 0 01.874 1.484l-4.927 8.886z"/></g><ellipse cx="43.525" cy="97.429" rx="8.925" ry="9.293" fill="#fff"/><ellipse cx="43.52" cy="97.429" rx="3.825" ry="3.983" fill="#48A8EA"/><path d="M18.121 46.423v-13.68h10.564c.469 0 .893.114 1.273.342.393.228.703.538.931.93.24.393.361.824.361 1.293v2.717c0 .177-.019.348-.057.513a1.74 1.74 0 01-.133.437c.228.316.405.633.532.95.14.304.209.614.209.93v3.003c0 .469-.12.9-.361 1.292a2.525 2.525 0 01-.931.93c-.38.229-.804.343-1.273.343H18.121zm2.622-2.3h8.417a.311.311 0 00.228-.094.307.307 0 00.114-.247V40.95a.306.306 0 00-.114-.247.31.31 0 00-.228-.095h-8.417a.378.378 0 00-.247.095.334.334 0 00-.095.247v2.83c0 .102.032.184.095.248a.378.378 0 00.247.095zm0-5.813h7.847a.334.334 0 00.247-.095.379.379 0 00.095-.247v-2.584a.334.334 0 00-.095-.247.334.334 0 00-.247-.095h-7.847a.378.378 0 00-.247.095.334.334 0 00-.095.247v2.584c0 .088.032.17.095.247a.378.378 0 00.247.095zm13.13 8.113v-13.68h2.603l5.13 6.118 5.11-6.118h2.623v13.68h-2.3V35.935l-5.433 6.479-5.453-6.46v10.469h-2.28zm20.116 0c-.47 0-.9-.114-1.292-.342a2.572 2.572 0 01-.913-.931 2.527 2.527 0 01-.341-1.292v-.912h2.28v.836c0 .101.031.184.095.247a.334.334 0 00.247.095h8.398a.334.334 0 00.246-.095.307.307 0 00.114-.247v-2.717a.288.288 0 00-.114-.228.306.306 0 00-.247-.114h-8.474c-.468 0-.899-.114-1.291-.342a2.62 2.62 0 01-.913-.912 2.527 2.527 0 01-.341-1.292v-2.87c0-.468.114-.899.342-1.291.228-.393.532-.703.912-.931a2.527 2.527 0 011.291-.342h8.57c.468 0 .892.114 1.273.342.392.228.703.538.93.93.241.393.362.824.362 1.293v.912h-2.3v-.836a.306.306 0 00-.114-.247.334.334 0 00-.247-.095h-8.398a.334.334 0 00-.246.095.334.334 0 00-.096.247V38.1c0 .089.032.17.096.247a.334.334 0 00.247.095h8.492c.47 0 .893.114 1.273.342.393.228.704.538.931.93.241.38.362.805.362 1.274v2.869c0 .469-.12.9-.362 1.292a2.525 2.525 0 01-.93.93 2.42 2.42 0 01-1.274.343h-8.569z" fill="#fff"/><defs><filter id="filter0_d_713_8139" x="0" y=".516" width="84.5" height="94.558" filterUnits="userSpaceOnUse" color-interpolation-filters="sRGB"><feFlood flood-opacity="0" result="BackgroundImageFix"/><feColorMatrix in="SourceAlpha" values="0 0 0 0 0 0 0 0 0 0 0 0 0 0 0 0 0 0 127 0" result="hardAlpha"/><feOffset dy="4"/><feGaussianBlur stdDeviation="2"/><feComposite in2="hardAlpha" operator="out"/><feColorMatrix values="0 0 0 0 0.286275 0 0 0 0 0.435294 0 0 0 0 0.611765 0 0 0 0.16 0"/><feBlend in2="BackgroundImageFix" result="effect1_dropShadow_713_8139"/><feBlend in="SourceGraphic" in2="effect1_dropShadow_713_8139" result="shape"/></filter></defs></svg>