<svg width="40" height="40" fill="none" xmlns="http://www.w3.org/2000/svg"><g clip-path="url(#clip0_704_2977)" fill="#1B57AC"><path d="M36.096.013h-23.11a3.908 3.908 0 00-3.903 3.903V17.71C3.913 18.72 0 23.283 0 28.744c0 6.2 5.043 11.243 11.243 11.243h24.853A3.908 3.908 0 0040 36.083V3.916A3.908 3.908 0 0036.096.013zM1.561 28.744c0-5.338 4.343-9.681 9.682-9.681 5.338 0 9.68 4.343 9.68 9.681 0 5.338-4.342 9.681-9.68 9.681-5.339 0-9.682-4.343-9.682-9.681zm12.83-11.399v-1.874c0-.43.35-.78.781-.78h1.874c.43 0 .78.35.78.78v1.874c0 .43-.35.78-.78.78h-1.874c-.43 0-.78-.35-.78-.78zm24.047 18.738a2.345 2.345 0 01-2.342 2.342H16.952a11.323 11.323 0 004.31-4.584v.368a2.345 2.345 0 002.342 2.342h1.874a2.345 2.345 0 002.342-2.342v-1.874a2.345 2.345 0 00-2.342-2.342h-1.874c-.452 0-.875.13-1.233.353a11.297 11.297 0 00.075-2.534 2.33 2.33 0 001.158.307h1.874a2.345 2.345 0 002.342-2.342v-1.874a2.345 2.345 0 00-2.342-2.342h-1.874a2.346 2.346 0 00-2.33 2.11 11.322 11.322 0 00-3.526-4.091c.95-.3 1.64-1.188 1.64-2.235v-1.874a2.345 2.345 0 00-2.342-2.342h-1.874a2.345 2.345 0 00-2.342 2.342v1.874c0 .092.006.182.016.271a11.28 11.28 0 00-2.202-.099v-13.6a2.345 2.345 0 012.342-2.343h23.11a2.345 2.345 0 012.343 2.342v32.167zm-15.614-1.874v-1.874c0-.43.35-.78.78-.78h1.874c.43 0 .78.35.78.78v1.874c0 .43-.35.78-.78.78h-1.874c-.43 0-.78-.35-.78-.78zm0-8.432v-1.874c0-.43.35-.78.78-.78h1.874c.43 0 .78.35.78.78v1.874c0 .43-.35.78-.78.78h-1.874c-.43 0-.78-.35-.78-.78z"/><path d="M35.472 3.448h-7.417a.78.78 0 100 1.562h6.636v4.684h-20.3V5.01h6.637a.78.78 0 000-1.562H13.61a.78.78 0 00-.78.781v6.246c0 .431.349.78.78.78h21.86a.78.78 0 00.781-.78V4.229a.78.78 0 00-.78-.78zm-9.994 9.681h-1.874a2.345 2.345 0 00-2.342 2.342v1.874a2.345 2.345 0 002.342 2.342h1.874a2.345 2.345 0 002.342-2.342V15.47a2.345 2.345 0 00-2.342-2.342zm.78 4.216c0 .43-.35.78-.78.78h-1.874c-.43 0-.78-.35-.78-.78V15.47c0-.43.35-.78.78-.78h1.874c.43 0 .78.35.78.78v1.874zm7.652-4.216h-1.873a2.345 2.345 0 00-2.343 2.342v1.874a2.345 2.345 0 002.343 2.342h1.873a2.345 2.345 0 002.343-2.342V15.47a2.345 2.345 0 00-2.343-2.342zm.781 4.216c0 .43-.35.78-.78.78h-1.874a.782.782 0 01-.781-.78V15.47c0-.43.35-.78.78-.78h1.874c.43 0 .781.35.781.78v1.874zm-.781 4.216h-1.873a2.345 2.345 0 00-2.343 2.343v10.305a2.345 2.345 0 002.343 2.343h1.873a2.345 2.345 0 002.343-2.343V23.904a2.345 2.345 0 00-2.343-2.343zm.781 12.648c0 .431-.35.781-.78.781h-1.874a.782.782 0 01-.781-.78V23.904c0-.43.35-.781.78-.781h1.874c.43 0 .781.35.781.78V34.21z"/><path d="M24.541 5.01a.786.786 0 00.552-.229.787.787 0 00.23-.552.786.786 0 00-.23-.552.786.786 0 00-.552-.229.787.787 0 00-.552.229.787.787 0 00-.228.552c0 .205.083.407.229.552a.787.787 0 00.552.229zM13.788 23.606a.78.78 0 00-1.043.361l-4.296 8.846a.78.78 0 101.404.682l4.296-8.846a.78.78 0 00-.361-1.043zm-4.518-.439a2.502 2.502 0 00-3.534 0 2.502 2.502 0 000 3.534 2.49 2.49 0 001.767.73c.64 0 1.28-.243 1.766-.73a2.502 2.502 0 000-3.534zm-1.105 2.43a.938.938 0 01-1.325-1.326.934.934 0 01.663-.274.938.938 0 01.663 1.6zm5.19 5.19a2.502 2.502 0 000 3.534 2.49 2.49 0 001.767.73c.64 0 1.28-.243 1.767-.73a2.502 2.502 0 000-3.534 2.502 2.502 0 00-3.534 0zm2.43 2.43a.938.938 0 11-1.326-1.328.938.938 0 011.325 1.328z"/></g><defs><clipPath id="clip0_704_2977"><path fill="#fff" d="M0 0h40v40H0z"/></clipPath></defs></svg>