<svg width="22" height="22" fill="none" xmlns="http://www.w3.org/2000/svg"><path d="M11 4.469c1.532 0 4.125-.29 4.125-1.375S12.532 1.719 11 1.719s-4.125.29-4.125 1.375S9.468 4.469 11 4.469zm0-2.063c2.037 0 3.294.44 3.433.688-.139.248-1.396.687-3.433.687-2.078 0-3.344-.457-3.44-.673.096-.245 1.362-.702 3.44-.702z" fill="#48a8ea"/><path d="M11 21.656c3.277 0 5.844-1.208 5.844-2.75V3.094c0-1.542-2.567-2.75-5.844-2.75s-5.844 1.208-5.844 2.75v15.812c0 1.542 2.567 2.75 5.844 2.75zm0-.687c-3.039 0-5.156-1.087-5.156-2.063V9.563C6.819 10.426 8.74 11 11 11s4.18-.574 5.156-1.437v9.343c0 .976-2.117 2.063-5.156 2.063zM11 1.03c3.039 0 5.156 1.087 5.156 2.063 0 .975-2.117 2.062-5.156 2.062-3.039 0-5.156-1.087-5.156-2.062C5.844 2.118 7.96 1.03 11 1.03zM5.844 4.407C6.819 5.27 8.74 5.844 11 5.844s4.18-.575 5.156-1.437v.405c0 .976-2.117 2.063-5.156 2.063-3.039 0-5.156-1.087-5.156-2.063v-.405zm0 1.719C6.819 6.988 8.74 7.562 11 7.562s4.18-.574 5.156-1.436v.405c0 .976-2.117 2.063-5.156 2.063-3.039 0-5.156-1.087-5.156-2.063v-.405zm0 1.719C6.819 8.707 8.74 9.28 11 9.28s4.18-.574 5.156-1.436v.405c0 .976-2.117 2.063-5.156 2.063-3.039 0-5.156-1.087-5.156-2.063v-.405z" fill="#48a8ea"/></svg>