<svg width="22" height="22" fill="none" xmlns="http://www.w3.org/2000/svg"><path d="M21.522 0H6.217c-.264 0-.478.144-.478.322v2.256H.48c-.267 0-.48.144-.48.322v2.857c0 .178.214.322.478.322s.479-.144.479-.322V3.223H13.39V17.81c0 .178.214.322.479.322.264 0 .478-.144.478-.322V3.223h.956v18.133h-.956V19.1c0-.178-.214-.323-.478-.323-.265 0-.479.145-.479.323v2.255H.957V7.046c0-.178-.215-.322-.479-.322S0 6.868 0 7.046v14.632c0 .178.214.322.478.322h15.305c.264 0 .478-.144.478-.322v-2.256h5.26c.265 0 .479-.144.479-.322V.322C22 .144 21.786 0 21.522 0zm-5.74 2.578H6.697V.645H19.13v18.132h-2.87V2.9c0-.178-.213-.322-.477-.322zm5.262 16.2h-.957V.644h.957v18.132z" fill="#48a8ea"/></svg>