<svg width="40" height="41" fill="none" xmlns="http://www.w3.org/2000/svg"><path d="M10 0C8.625 0 7.5 1.153 7.5 2.563v35.874C7.5 39.847 8.625 41 10 41h25c1.375 0 2.5-1.153 2.5-2.563V10.25L27.5 0H10z" fill="#E2E5E7"/><path d="M30 10.25h7.5L27.5 0v7.688c0 1.409 1.125 2.562 2.5 2.562z" fill="#B0B7BD"/><path d="M37.5 17.938L30 10.25h7.5v7.688z" fill="#CAD1D8"/><path d="M32.5 33.313c0 .704-.563 1.28-1.25 1.28H3.75c-.688 0-1.25-.576-1.25-1.28V20.5c0-.705.563-1.281 1.25-1.281h27.5c.688 0 1.25.576 1.25 1.281v12.813z" fill="#F15642"/><path d="M7.95 24.276c0-.339.26-.708.678-.708h2.309c1.3 0 2.47.892 2.47 2.601 0 1.62-1.17 2.522-2.47 2.522H9.268v1.353c0 .45-.28.706-.64.706a.682.682 0 01-.679-.706v-5.768zm1.318.583v2.552h1.669c.67 0 1.2-.606 1.2-1.242 0-.716-.53-1.31-1.2-1.31H9.268zm6.094 5.891c-.33 0-.69-.185-.69-.635v-5.82c0-.367.36-.635.69-.635h2.289c4.567 0 4.467 7.09.09 7.09h-2.38zm.63-5.84v4.59h1.659c2.698 0 2.818-4.59 0-4.59h-1.66zm7.749.083v1.628h2.549c.36 0 .72.37.72.727 0 .338-.36.615-.72.615h-2.55v2.151c0 .359-.249.634-.599.634-.44 0-.708-.275-.708-.634v-5.82c0-.367.27-.635.708-.635h3.51c.44 0 .7.268.7.636a.7.7 0 01-.7.697h-2.91v.001z" fill="#fff"/><path d="M31.25 34.594H7.5v1.281h23.75c.688 0 1.25-.577 1.25-1.281v-1.282c0 .705-.563 1.282-1.25 1.282z" fill="#CAD1D8"/></svg>