<svg width="16" height="16" fill="none" xmlns="http://www.w3.org/2000/svg"><path d="M8 16A8 8 0 108 0a8 8 0 000 16z" fill="url(#a)"/><path d="M5.416 8.58l.948 2.631s.119.25.25.25c.13 0 2.014-1.968 2.014-1.968l2.098-4.065-5.274 2.477-.036.675z" fill="#C8DAEA"/><path d="M6.673 9.256l-.178 1.932s-.071.592.521 0a17.11 17.11 0 011.162-1.055l-1.505-.877z" fill="#A9C6D8"/><path d="M5.428 8.676l-1.955-.64s-.237-.095-.154-.308c.011-.048.047-.083.142-.142.438-.297 8.012-3.023 8.012-3.023s.213-.07.343-.023c.06.023.095.047.13.142a.398.398 0 01.013.178c0 .047-.012.095-.012.166-.048.746-1.422 6.305-1.422 6.305s-.083.32-.38.332a.572.572 0 01-.39-.154c-.582-.498-2.585-1.85-3.035-2.146a.065.065 0 01-.035-.059c-.012-.035.023-.07.023-.07s3.497-3.106 3.591-3.438c.012-.024-.023-.036-.059-.024-.237.083-4.255 2.631-4.705 2.904-.036.012-.107 0-.107 0z" fill="#fff"/><defs><linearGradient id="a" x1="7.996" y1="15.999" x2="7.996" y2="-.001" gradientUnits="userSpaceOnUse"><stop stop-color="#1D93D2"/><stop offset="1" stop-color="#38B0E3"/></linearGradient></defs></svg>