<svg width="30" height="30" fill="none" xmlns="http://www.w3.org/2000/svg"><g clip-path="url(#clip0_521_3705)" fill="#fff"><path d="M23.688 18.481c-.59-1.227-2.695-2.931-4.73-4.578-1.135-.917-2.208-1.785-2.892-2.468a.625.625 0 00-.653-.146c-.422.152-.682.27-.887.36-.312.14-.417.188-.838.23a.625.625 0 00-.458.274c-.884 1.322-1.799 1.21-2.41 1.004-.195-.065-.23-.149-.249-.229-.131-.548.528-1.826 1.382-2.68 2.03-2.032 3.078-2.54 5.29-1.552a73.019 73.019 0 005.05 2.01.624.624 0 10.412-1.181c-.025-.009-2.49-.87-4.95-1.972-2.866-1.28-4.439-.437-6.685 1.81-.855.856-2.016 2.585-1.716 3.854.128.54.508.94 1.073 1.127 1.417.467 2.71.02 3.672-1.258.397-.061.613-.151.938-.297.118-.053.255-.114.438-.188.715.671 1.68 1.452 2.696 2.274 1.838 1.486 3.921 3.171 4.39 4.146.232.481-.017.795-.186.939-.248.212-.586.28-.77.151a.626.626 0 00-.976.581c.042.398-.322.625-.48.704-.4.203-.817.168-.973.023a.625.625 0 00-1.049.399c-.037.41-.34.803-.737.957-.191.072-.469.116-.718-.111a.624.624 0 00-1.01.249c-.023.062-.077.212-.662.212-.416 0-1.165-.282-1.531-.524-.44-.289-3.19-2.341-5.567-4.331-.333-.282-.91-.884-1.42-1.417-.453-.472-.867-.9-1.08-1.08a.626.626 0 00-.807.955c.194.163.569.56.982.99.558.583 1.134 1.186 1.522 1.51 2.327 1.95 5.125 4.053 5.682 4.42.46.302 1.451.727 2.219.727.616 0 1.09-.142 1.419-.418.44.171.94.173 1.42-.015a2.462 2.462 0 001.302-1.201c.493.105 1.057.031 1.569-.226.501-.253.864-.639 1.044-1.09.497.026 1.01-.15 1.433-.514.718-.614.915-1.569.5-2.43z"/><path d="M12.5 8.125H6.875a.625.625 0 000 1.25H12.5a.625.625 0 000-1.25zm13.019 9.025a.623.623 0 00-.868-.17l-1.827 1.228a.625.625 0 00.697 1.038l1.828-1.228a.626.626 0 00.17-.867zm-3.88 2.984c-.448-.353-2.449-2.402-3.686-3.692a.624.624 0 10-.902.865c.32.335 3.154 3.29 3.813 3.81a.622.622 0 00.878-.106.625.625 0 00-.103-.877zm-2.498 1.253c-.749-.599-2.63-2.597-3.055-3.06a.626.626 0 00-.921.846c.022.024 2.267 2.448 3.195 3.19a.628.628 0 00.879-.097.626.626 0 00-.098-.879zm-2.487 1.259c-.892-.751-2.715-2.693-3.072-3.074a.625.625 0 10-.913.854c.512.549 2.257 2.399 3.178 3.176a.624.624 0 00.882-.075.626.626 0 00-.075-.881z"/><path d="M7.305 7.046C6.234 6.03 1.95 5.702.663 5.626A.62.62 0 000 6.25V17.5c0 .345.28.625.625.625h3.75c.27 0 .51-.174.594-.432.091-.28 2.245-6.89 2.528-10.14a.622.622 0 00-.192-.507zm-3.386 9.829H1.25V6.92c2.009.158 4.176.503 4.964.886-.331 2.737-1.83 7.601-2.295 9.069zm25.456-10c-4.908 0-7.63 1.256-7.744 1.309a.622.622 0 00-.265.896c.773 1.244 3.191 8.151 3.656 9.836a.625.625 0 00.603.459h3.75c.345 0 .625-.28.625-.625V7.5a.624.624 0 00-.625-.625zm-.625 11.25h-2.657c-.593-1.93-2.343-6.963-3.32-9.042.954-.324 3.003-.88 5.977-.95v9.992z"/></g><defs><clipPath id="clip0_521_3705"><path fill="#fff" d="M0 0h30v30H0z"/></clipPath></defs></svg>