<svg width="22" height="22" fill="none" xmlns="http://www.w3.org/2000/svg"><path d="M5.959 14.419a2.167 2.167 0 10-4.334 0 2.167 2.167 0 004.334 0zm-3.626 0a1.46 1.46 0 112.92 0 1.46 1.46 0 01-2.92 0zm4.688-4.287a2.167 2.167 0 100-4.333 2.167 2.167 0 000 4.333zm0-3.626a1.46 1.46 0 110 2.918 1.46 1.46 0 010-2.918zm11.19 4.333h-1.103a3.575 3.575 0 00-2.125-6.453l-7.962-.002a3.577 3.577 0 00-2.128 6.455l-1.1-.002a3.582 3.582 0 000 7.163l14.418-.002a3.58 3.58 0 000-7.159zm-7.962 6.454a2.874 2.874 0 110-5.748 2.874 2.874 0 010 5.748zm4.734-12.2a2.872 2.872 0 010 5.744H9.152a3.568 3.568 0 000-5.744h5.831zM4.147 7.965a2.874 2.874 0 115.748 0 2.874 2.874 0 01-5.748 0zm3.971 3.582a3.598 3.598 0 00-1.097 1.331 3.598 3.598 0 00-1.098-1.331h2.195zm-7.2 2.872a2.874 2.874 0 115.748 0 2.874 2.874 0 01-5.748 0zm6.103 1.54c.252.526.629.984 1.098 1.332H5.923a3.598 3.598 0 001.098-1.332zm11.19 1.332h-5.832a3.568 3.568 0 000-5.744h5.832a2.872 2.872 0 110 5.744zm-7.962-5.039a2.166 2.166 0 100 4.333 2.166 2.166 0 000-4.333zm0 3.626a1.46 1.46 0 110-2.919 1.46 1.46 0 010 2.919z" fill="#48a8ea"/></svg>