<svg width="30" height="30" fill="none" xmlns="http://www.w3.org/2000/svg"><path d="M4.688 27.188a.469.469 0 100-.938.469.469 0 000 .938zM15 21.563h.938v.937H15v-.938zm1.875 0h.938v.937h-.938v-.938zm-2.812-3.75h-1.876a.469.469 0 00-.468.468v1.875a.468.468 0 00.469.469h1.874a.469.469 0 00.47-.469v-1.875a.468.468 0 00-.47-.468zm-.47 1.875h-.937v-.938h.938v.938zm10.313 1.875h.938v.937h-.938v-.938zm1.875 0h.938v.937h-.938v-.938zm-4.687-.938h1.875a.469.469 0 00.468-.469v-1.875a.469.469 0 00-.468-.468h-1.875a.469.469 0 00-.469.468v1.875a.469.469 0 00.469.469zm.468-1.875h.938v.938h-.938v-.938zM15 14.063h.938V15H15v-.938zm1.875 0h.938V15h-.938v-.938zm-4.687-.938h1.874a.469.469 0 00.47-.469v-1.875a.468.468 0 00-.47-.469h-1.874a.469.469 0 00-.47.47v1.874a.468.468 0 00.47.469zm.468-1.875h.938v.938h-.938v-.938zm11.25 2.813h.938V15h-.938v-.938zm1.875 0h.938V15h-.938v-.938zm-4.687-.938h1.875a.469.469 0 00.468-.469v-1.875a.469.469 0 00-.468-.469h-1.875a.469.469 0 00-.469.47v1.874a.469.469 0 00.469.469zm.468-1.875h.938v.938h-.938v-.938z" fill="#fff"/><path d="M28.125.938H10.312a.469.469 0 00-.468.468v22.969H8.607L5.925 22.14a.47.47 0 00-.3-.109h-.469v-7.878l.904-2.26a.468.468 0 00.034-.174V9.844a.469.469 0 00-.469-.469h-3.75a.469.469 0 00-.469.469v1.875c0 .06.012.119.034.174l.904 2.26v7.878h-.469a.469.469 0 00-.469.469v3.75a.469.469 0 00.469.469h.469a2.343 2.343 0 104.687 0h2.813v1.875a.469.469 0 00.469.468h2.812a.469.469 0 00.469-.468v-1.875h3.75v1.875a.468.468 0 00.468.468h2.813a.469.469 0 00.469-.468v-1.875h3.75v1.875a.468.468 0 00.468.468h2.813a.469.469 0 00.469-.468V1.406a.469.469 0 00-.469-.468zM10.781 25.78v-1.406h16.875v1.406H10.781zm16.875-9.843h-7.968V9.375h7.968v6.563zm0 7.5h-7.968v-6.563h7.968v6.563zm-16.875 0v-6.563h7.969v6.563h-7.969zm7.969-7.5h-7.969V9.375h7.969v6.563zm8.906-7.5h-7.968V1.875h7.968v6.563zM10.781 1.875h7.969v6.563h-7.969V1.875zm-8.437 8.438h2.812v1.316l-.786 1.965h-.15V11.25h-.94v2.344h-.15l-.786-1.965v-1.316zm.937 4.218h.938v7.5H3.28v-7.5zm1.406 13.594a1.406 1.406 0 110-2.813 1.406 1.406 0 010 2.813zm2.148-2.344a2.343 2.343 0 00-4.295 0h-.196V22.97h3.111l2.514 2.094v.718H6.835zm2.071-.468h.938v.468h-.938v-.468zm3.75 2.812h-1.875v-1.406h1.875v1.406zm7.5 0h-1.875v-1.406h1.875v1.406zm7.5 0h-1.875v-1.406h1.875v1.406z" fill="#fff"/><path d="M15 6.563h.938V7.5H15v-.938zm1.875 0h.938V7.5h-.938v-.938zm-2.812-3.75h-1.876a.469.469 0 00-.468.468v1.875a.468.468 0 00.469.469h1.874a.469.469 0 00.47-.469V3.281a.468.468 0 00-.47-.469zm-.47 1.874h-.937V3.75h.938v.938zm10.313 1.876h.938V7.5h-.938v-.938zm1.875 0h.938V7.5h-.938v-.938zm-4.687-.938h1.875a.469.469 0 00.468-.469V3.281a.469.469 0 00-.468-.469h-1.875a.469.469 0 00-.469.47v1.874a.469.469 0 00.469.469zm.468-1.875h.938v.938h-.938V3.75z" fill="#fff"/></svg>