<svg width="20" height="20" fill="none" xmlns="http://www.w3.org/2000/svg"><path d="M10 20c5.523 0 10-4.477 10-10S15.523 0 10 0 0 4.477 0 10s4.477 10 10 10z" fill="url(#paint0_linear_713_8131)"/><path d="M6.768 10.726l1.185 3.289s.148.31.31.31c.164 0 2.52-2.458 2.52-2.458l2.622-5.082-6.593 3.096-.044.845z" fill="#C8DAEA"/><path d="M8.343 11.57l-.222 2.415s-.09.74.651 0 1.452-1.318 1.452-1.318L8.343 11.57z" fill="#A9C6D8"/><path d="M6.78 10.844l-2.444-.8s-.297-.118-.193-.385c.015-.06.06-.104.178-.178.548-.37 10.015-3.778 10.015-3.778s.266-.089.43-.03c.073.03.118.06.162.178.015.045.03.134.015.223 0 .059-.015.118-.015.207-.059.933-1.778 7.882-1.778 7.882s-.103.4-.474.414a.715.715 0 01-.488-.192c-.726-.622-3.23-2.311-3.793-2.682a.081.081 0 01-.044-.074c-.015-.044.03-.089.03-.089s4.37-3.881 4.488-4.296c.015-.03-.03-.044-.074-.03-.296.104-5.319 3.29-5.882 3.63-.044.015-.133 0-.133 0z" fill="#fff"/><defs><linearGradient id="paint0_linear_713_8131" x1="9.995" y1="19.999" x2="9.995" y2="-.001" gradientUnits="userSpaceOnUse"><stop stop-color="#1D93D2"/><stop offset="1" stop-color="#38B0E3"/></linearGradient></defs></svg>