<svg width="30" height="30" fill="none" xmlns="http://www.w3.org/2000/svg"><g clip-path="url(#clip0_521_3735)" fill="#fff"><path d="M4.92 4.285h2.547V6.4c0 1.01.822 1.833 1.833 1.833h1.91v10.163c0 .107.039.21.109.291l3.34 3.87a.446.446 0 00.674 0l3.34-3.87a.446.446 0 00.108-.29v-6.04a.446.446 0 10-.89 0v5.874l-2.895 3.352-2.895-3.352V8.233h5.79v2.342a.446.446 0 00.89 0V8.233h1.91A1.835 1.835 0 0022.526 6.4V4.285h2.547a3.844 3.844 0 003.84-3.84c0-.245-.2-.445-.446-.445H1.526C1.28 0 1.08.2 1.08.446a3.844 3.844 0 003.84 3.839zM21.634 6.4c0 .52-.423.942-.942.942H9.3a.943.943 0 01-.942-.942V4.285h13.276V6.4zM27.987.89a2.953 2.953 0 01-2.915 2.503H4.92A2.953 2.953 0 012.005.89h25.982z"/><path d="M29.525 19.318l-1.451-2.593a.446.446 0 00-.606-.171l-12.473 6.979-12.47-6.98a.445.445 0 00-.607.172L.467 19.318a.446.446 0 00.171.606l3.902 2.183a.446.446 0 00.435-.777l-3.513-1.966 1.016-1.815 12.3 6.883c.135.076.3.076.435 0l12.3-6.883 1.016 1.815-13.534 7.573L6.53 22.2a.445.445 0 10-.435.777l1.48.828v5.75c0 .246.199.445.445.445h13.952c.246 0 .445-.2.445-.445v-5.75l6.936-3.881a.445.445 0 00.172-.606zm-7.999 9.791H8.466v-4.805l6.312 3.532a.446.446 0 00.435 0l6.313-3.532v4.805z"/><path d="M2.444 14.584a.445.445 0 00.17.606l6.125 3.427a.446.446 0 10.435-.778L3.05 14.412a.445.445 0 00-.606.172zm4.47 1.212a.445.445 0 10.435-.777L4.59 13.476a.445.445 0 10-.435.777l2.758 1.543zm13.724 2.65a.445.445 0 00.606.17l6.124-3.426a.446.446 0 10-.435-.778l-6.124 3.427a.445.445 0 00-.171.607zm2.214-2.593a.445.445 0 00.217-.057l2.758-1.543a.445.445 0 10-.435-.778l-2.758 1.543a.446.446 0 00.218.835z"/></g><defs><clipPath id="clip0_521_3735"><path fill="#fff" d="M0 0h30v30H0z"/></clipPath></defs></svg>