<svg width="22" height="22" fill="none" xmlns="http://www.w3.org/2000/svg"><path d="M20.281 12.313h-1.316a.687.687 0 00-.685-.663h-1.964a.687.687 0 00-.685.663h-1.635v-1.635a.687.687 0 00.663-.685V8.03a.688.688 0 00-.663-.685V3.376a.343.343 0 00-.344-.344H8.348a.343.343 0 00-.344.344v3.968a.687.687 0 00-.663.685v1.964a.687.687 0 00.663.685v1.635H6.37a.687.687 0 00-.685-.663H3.72a.687.687 0 00-.685.663H1.719a.343.343 0 00-.344.344v5.304a.344.344 0 00.344.344h1.316a.687.687 0 00.685.663h1.964a.687.687 0 00.685-.663h9.262a.687.687 0 00.685.663h1.964a.687.687 0 00.685-.663h1.316a.345.345 0 00.344-.344v-5.304a.345.345 0 00-.344-.344zM3.032 17.617h-.97v-4.616h.97v4.616zm2.652.663H3.72v-5.942h1.964v5.942zM8.692 3.72h4.616v3.622H8.692V3.72zm-.663 4.309h5.942v1.964H8.03V8.03zm7.6 9.588H6.371v-4.616h1.976a.343.343 0 00.344-.344v-1.976h4.616v1.976a.341.341 0 00.212.318.344.344 0 00.132.026h1.976v4.616zm2.651.663h-1.964v-5.942h1.964v5.942zm1.657-.663h-.97v-4.616h.97v4.616z" fill="#48a8ea"/></svg>