<svg width="16" height="16" fill="none" xmlns="http://www.w3.org/2000/svg"><path d="M8 16A8 8 0 108 0a8 8 0 000 16z" fill="url(#a)"/><path fill-rule="evenodd" clip-rule="evenodd" d="M11.852 4.243A5.087 5.087 0 008.26 2.75a5.078 5.078 0 00-4.397 7.609L3.14 12.99l2.69-.711a5.078 5.078 0 007.502-4.456 5.09 5.09 0 00-1.481-3.58zm-3.591 7.81a4.118 4.118 0 01-2.146-.592l-.154-.095-1.6.415.427-1.553-.095-.154a4.168 4.168 0 01-.64-2.24 4.229 4.229 0 014.22-4.219c1.125 0 2.18.439 2.986 1.233a4.205 4.205 0 011.233 2.986c-.012 2.323-1.908 4.22-4.231 4.22zm2.31-3.152c-.13-.06-.746-.367-.864-.415-.119-.047-.202-.059-.285.06-.083.13-.332.414-.403.497-.071.083-.142.095-.272.036-.13-.06-.534-.202-1.02-.628-.379-.332-.628-.747-.71-.877-.072-.13-.013-.19.058-.261.06-.06.13-.142.19-.225.06-.071.083-.13.13-.214.048-.083.024-.154-.011-.225-.036-.059-.285-.687-.392-.936-.106-.249-.213-.213-.284-.213h-.249a.51.51 0 00-.344.154c-.118.13-.438.438-.438 1.055 0 .628.45 1.232.521 1.315.06.083.89 1.363 2.17 1.92.307.13.533.213.722.273.308.095.581.083.794.047.25-.035.747-.308.854-.604.106-.297.106-.546.07-.605-.023-.06-.106-.095-.236-.154z" fill="#fff"/><defs><linearGradient id="a" x1="7.999" y1="14.836" x2="7.999" y2="-1.164" gradientUnits="userSpaceOnUse"><stop stop-color="#78CD51"/><stop offset="1" stop-color="#A0FC84"/></linearGradient></defs></svg>