<svg width="40" height="40" fill="none" xmlns="http://www.w3.org/2000/svg"><g clip-path="url(#clip0_704_3007)" fill="#1B57AC"><path d="M29.166 40c-5.973 0-10.833-4.86-10.833-10.834 0-5.973 4.86-10.833 10.833-10.833C35.14 18.333 40 23.193 40 29.166 40 35.14 35.14 40 29.166 40zm0-20C24.111 20 20 24.11 20 29.166c0 5.055 4.111 9.167 9.166 9.167 5.055 0 9.167-4.112 9.167-9.167S34.221 20 29.166 20z"/><path d="M27.5 33.333a.842.842 0 01-.59-.243l-3.333-3.333a.834.834 0 011.178-1.179l2.703 2.704 5.247-5.997a.834.834 0 111.255 1.098l-5.833 6.667a.831.831 0 01-.6.283H27.5zM16.678 17.5a.834.834 0 01-.373-1.579l15.823-7.916a.834.834 0 011.205.745v7.083a.834.834 0 01-1.667 0v-5.735L17.05 17.411a.828.828 0 01-.372.089z"/><path d="M15.822 33.333a.83.83 0 01-.405-.105L.427 24.895A.836.836 0 010 24.166V8.75a.834.834 0 011.205-.745l15.823 7.916a.835.835 0 01-.745 1.492L1.667 10.098v13.578l14.561 8.095a.834.834 0 01-.406 1.562z"/><path d="M32.5 9.583a.828.828 0 01-.372-.088l-15.472-7.73-15.45 7.73a.834.834 0 01-.747-1.49L16.284.088a.837.837 0 01.745 0l15.843 7.917a.831.831 0 01-.372 1.578z"/><path d="M8.405 19.566a.834.834 0 01-.834-.834v-6.196c0-.316.179-.604.46-.745l15.824-7.917a.833.833 0 11.745 1.492L9.238 13.051v5.682a.83.83 0 01-.833.831z"/></g><defs><clipPath id="clip0_704_3007"><path fill="#fff" d="M0 0h40v40H0z"/></clipPath></defs></svg>