<svg width="40" height="40" fill="none" xmlns="http://www.w3.org/2000/svg"><path d="M4.688 3.745a.938.938 0 00-.943.943V9.79a.937.937 0 00.943.942.937.937 0 00.942-.942V6.95l6.846 6.844a.938.938 0 001.318 0 .938.938 0 000-1.318L6.951 5.63h2.84a.937.937 0 00.941-.942.937.937 0 00-.942-.943H4.688zm8.518 4.09a.937.937 0 00-.933.94.937.937 0 00.933.942h12.177c2.718 0 4.9 2.182 4.9 4.9v12.19a.938.938 0 00.943.94c.52.001.94-.42.94-.94v-12.19c0-3.73-3.052-6.783-6.783-6.783H13.206zm-4.432 4.401a.938.938 0 00-.94.94v12.207c0 3.73 3.052 6.783 6.783 6.783h12.19c.52 0 .941-.42.94-.94a.938.938 0 00-.94-.943h-12.19a4.886 4.886 0 01-4.9-4.9V13.176a.938.938 0 00-.943-.94zm17.432 13.97a.937.937 0 000 1.318l6.846 6.849H30.21a.937.937 0 00-.94.94c-.003.52.42.943.94.942h5.102a.938.938 0 00.943-.943V30.21a.938.938 0 00-.943-.94.937.937 0 00-.94.94v2.842l-6.848-6.846c-.485-.43-1.024-.298-1.318 0z" fill="#1B57AC"/></svg>