<svg width="30" height="30" fill="none" xmlns="http://www.w3.org/2000/svg"><path d="M26.875 1.25H3.125A1.877 1.877 0 001.25 3.125v23.75c0 1.034.841 1.875 1.875 1.875h23.75a1.877 1.877 0 001.875-1.875V3.125a1.877 1.877 0 00-1.875-1.875zm-20 1.25h3.75v5.625L9.125 7a.624.624 0 00-.75 0l-1.5 1.125V2.5zM27.5 26.875c0 .344-.28.625-.625.625H3.125a.626.626 0 01-.625-.625V3.125c0-.344.28-.625.625-.625h2.5v6.875a.626.626 0 001 .5L8.75 8.281l2.125 1.594c.39.313 1.016 0 1-.5V2.5h15c.344 0 .625.28.625.625v23.75z" fill="#fff"/><path d="M6.25 22.5H10c.816-.003.818-1.246 0-1.25H6.25c-.816.003-.818 1.246 0 1.25zm7.5 1.25h-7.5c-.815.003-.82 1.246 0 1.25h7.5c.815-.003.82-1.246 0-1.25z" fill="#fff"/></svg>