<svg width="22" height="23" fill="none" xmlns="http://www.w3.org/2000/svg"><path d="M.645 14.747l2.535.317.62 1.857a.344.344 0 00.277.232l2.406.344a.344.344 0 00.356-.187l.579-1.157 2.293.286.62 1.857a.344.344 0 00.277.232l2.406.344a.344.344 0 00.356-.187l.579-1.158 2.508.314a.344.344 0 00.354-.196l4.813-10.312a.344.344 0 00-.269-.486l-2.75-.344a.347.347 0 00-.354.195l-.537 1.151-1.986-.284-.62-1.861a.344.344 0 00-.284-.232l-2.75-.344a.345.345 0 00-.354.195l-.537 1.15-1.986-.283-.62-1.861a.344.344 0 00-.284-.233l-2.75-.343a.347.347 0 00-.354.195L.376 14.261a.343.343 0 00.27.486zm7.552-9.382l.371 1.114-4.39 9.407-.37-1.115 4.389-9.406zm6.531 1.375l.372 1.114-4.39 9.407-.371-1.115 4.39-9.406zm4.04.476l2.034.254-4.507 9.658-2.034-.254 4.507-9.658zm-5.33 9.795l-.572 1.145-1.702-.243 4.509-9.661 1.737.248-3.971 8.51zm-1.2-11.17l2.032.254-4.507 9.658-2.032-.255 4.506-9.657zM6.91 15.63l-.575 1.15-1.702-.243 4.509-9.662 1.738.248-3.97 8.507zM5.706 4.466l2.033.254-4.507 9.658-2.033-.255 4.507-9.657z" fill="#48a8ea"/></svg>