<svg width="40" height="40" fill="none" xmlns="http://www.w3.org/2000/svg"><g clip-path="url(#clip0_801_6460)" fill="#48A8EA"><path d="M6.791 19.065c.111.11.445.437.95.437h.014c.506 0 .84-.328.95-.437l.02-.02c3.055-3.21 8.74-9.187 5.62-15.126l-.004-.006C13.071 1.542 10.55.043 7.761 0h-.026C4.947.043 2.426 1.542 1.152 3.92c-3.121 5.938 2.565 11.914 5.62 15.125l.02.02zM2.67 4.725c.974-1.818 2.92-2.969 5.078-3.006 2.158.037 4.102 1.187 5.077 3.003 2.292 4.367-1.35 8.909-5.077 12.855C4.02 13.63.378 9.087 2.67 4.725z"/><path d="M11.913 7.583a4.165 4.165 0 10-8.33 0 4.165 4.165 0 008.33 0zm-6.61 0a2.446 2.446 0 114.891 0 2.446 2.446 0 01-4.892 0zm25.992 24.862c.11.11.444.438.95.438h.014c.505 0 .839-.328.95-.438l.02-.02c3.054-3.211 8.74-9.187 5.62-15.126l-.004-.006c-1.27-2.37-3.792-3.87-6.58-3.913h-.026c-2.788.043-5.31 1.542-6.583 3.92-3.122 5.939 2.564 11.915 5.62 15.125l.019.02zm-4.121-14.34c.974-1.817 2.919-2.968 5.078-3.005 2.157.037 4.101 1.187 5.076 3.002 2.293 4.367-1.35 8.91-5.076 12.856-3.728-3.948-7.371-8.49-5.078-12.852z"/><path d="M36.416 20.964a4.164 4.164 0 10-8.328 0 4.164 4.164 0 008.328 0zm-6.61 0a2.447 2.447 0 114.893 0 2.447 2.447 0 01-4.893 0zm5.28 14.797a3.065 3.065 0 00-5.785.345H12.624a1.655 1.655 0 010-3.309h5.047a5.014 5.014 0 100-10.028h-6.958a3.071 3.071 0 10-.047 1.719h7.005a3.297 3.297 0 012.34 5.631 3.293 3.293 0 01-2.34.96h-5.047a3.373 3.373 0 100 6.746h16.694a3.066 3.066 0 105.768-2.064zM8.263 24.797a1.348 1.348 0 11-1.03-2.491 1.348 1.348 0 011.03 2.491zm24.504 13.38a1.347 1.347 0 11.73-1.76 1.34 1.34 0 01-.73 1.76z"/></g><defs><clipPath id="clip0_801_6460"><path fill="#fff" d="M0 0h40v40H0z"/></clipPath></defs></svg>