<svg width="34" height="34" fill="none" xmlns="http://www.w3.org/2000/svg"><g clip-path="url(#clip0_739_4571)" fill="#1B57AC"><path d="M17.003 34H17a.664.664 0 11.002 0z"/><path d="M27.496 24.52v-2.658c-.03-1.842-.723-3.205-2.118-4.166-1.162-.801-2.624-1.195-4.038-1.576-.403-.108-.79-.213-1.162-.324v-1.405a5.691 5.691 0 002.513-4.72V8.96a2.095 2.095 0 00.416-2.926V3.371A3.375 3.375 0 0019.736 0h-5.472a3.375 3.375 0 00-3.37 3.37v2.664a2.096 2.096 0 00.415 2.926v.711a5.69 5.69 0 002.513 4.72v1.405c-.372.111-.76.216-1.162.324-1.414.381-2.876.775-4.038 1.575-1.395.962-2.088 2.325-2.118 4.166v2.659c-.31.313-.5.742-.5 1.215v1.89a1.73 1.73 0 001.727 1.727h1.654c.087 0 .173-.004.258-.012v3.094c0 .864.702 1.566 1.564 1.566h2.81a.664.664 0 000-1.328h-2.81a.24.24 0 01-.235-.238V28.83a2.67 2.67 0 000-4.298v-1.998c0-.128.107-.236.235-.236h3.099v4.042a.664.664 0 001.035.55l1.66-1.117 1.658 1.118a.664.664 0 001.035-.55v-4.043h3.099a.24.24 0 01.237.236v1.996a2.67 2.67 0 000 4.302v3.603a.24.24 0 01-.237.238h-2.81a.664.664 0 000 1.328h2.81c.863 0 1.565-.702 1.565-1.566V29.34c.085.008.17.013.257.013h1.654a1.73 1.73 0 001.728-1.728v-1.89c0-.473-.192-.902-.5-1.215zM12.221 3.37c0-1.126.917-2.042 2.043-2.042h5.472c1.126 0 2.043.916 2.043 2.043v1.487A8.3 8.3 0 0017 3.36a8.3 8.3 0 00-4.779 1.498V3.371zm-.194 4.46a.765.765 0 010-1.081A6.987 6.987 0 0117 4.689c1.878 0 3.645.731 4.973 2.06a.765.765 0 010 1.08.766.766 0 01-1.078 0A5.47 5.47 0 0017 6.216a5.47 5.47 0 00-3.893 1.612.768.768 0 01-1.081.001zm.61 1.841v-.294a2.088 2.088 0 001.41-.609A4.151 4.151 0 0117 7.544c1.115 0 2.165.435 2.955 1.225.39.388.895.59 1.407.607v.295A4.368 4.368 0 0117 14.035a4.369 4.369 0 01-4.364-4.364zm6.213 5.382v1.23a1.85 1.85 0 01-3.7 0v-1.23a5.664 5.664 0 003.7 0zM7.73 28.024a.4.4 0 01-.399-.4v-1.889c0-.22.18-.4.4-.4h1.654a1.346 1.346 0 010 2.689H7.731zm10.636-2.934l-.994-.67a.664.664 0 00-.742 0l-.996.671v-2.794h2.732v2.793zm4.427-4.12H11.207c-.862 0-1.564.7-1.564 1.563v1.487a2.721 2.721 0 00-.258-.012H7.832v-2.13c.024-1.398.515-2.38 1.544-3.089.974-.671 2.324-1.035 3.63-1.387a58.6 58.6 0 00.935-.258 3.184 3.184 0 003.06 2.317 3.182 3.182 0 003.057-2.317c.312.09.627.175.936.259 1.306.351 2.656.715 3.63 1.386 1.03.71 1.52 1.691 1.544 3.09v2.128h-1.553a2.73 2.73 0 00-.257.013v-1.487c0-.862-.702-1.564-1.565-1.564zm3.876 6.655a.4.4 0 01-.4.4h-1.654a1.333 1.333 0 01-.646-.167 1.345 1.345 0 01.646-2.522h1.654a.4.4 0 01.4.4v1.889z"/></g><defs><clipPath id="clip0_739_4571"><path fill="#fff" d="M0 0h34v34H0z"/></clipPath></defs></svg>