<svg width="22" height="22" fill="none" xmlns="http://www.w3.org/2000/svg"><g clip-path="url(#clip0_465_6158)" fill="#48a8ea"><path d="M21.994.34a.36.36 0 00-.014-.074.346.346 0 00-.023-.064.346.346 0 00-.038-.056.351.351 0 00-.051-.055c-.007-.006-.01-.015-.019-.02a.337.337 0 00-.036-.017.321.321 0 00-.14-.046.336.336 0 00-.04-.008H10.267c-.01 0-.018.005-.027.005a.354.354 0 00-.074.015.355.355 0 00-.064.023.353.353 0 00-.056.038.352.352 0 00-.055.051c-.006.007-.015.01-.02.019L.07 13.717a.328.328 0 00-.017.037.32.32 0 00-.046.14.344.344 0 00-.008.04v7.7c0 .202.164.366.367.366h11.366a.403.403 0 00.278-.135c.006-.007.014-.009.018-.016l9.9-13.566a.348.348 0 00.017-.037.322.322 0 00.046-.14.355.355 0 00.008-.04v-7.7c0-.009-.005-.017-.006-.027zM11.367 21.266H.733V14.3h10.634v6.967zm.18-7.7H1.088L10.453.733h10.459l-9.365 12.834zm9.72-5.62L12.1 20.51v-6.456L21.267 1.49v6.456z"/><path d="M1.487 20.267c.02.067.06.128.111.175.008.006.011.015.02.02.014.01.03.018.047.025a.367.367 0 00.168.046h8.434a.367.367 0 00.366-.366V15.4a.367.367 0 00-.366-.367H1.833a.367.367 0 00-.366.367v4.766c0 .01.005.018.005.028a.43.43 0 00.015.073zm8.413-4.5V19.8H2.555L5.5 15.766h4.4zm-7.7 0h2.391l-2.39 3.275v-3.276z"/></g><defs><clipPath id="clip0_465_6158"><path fill="#fff" d="M0 0h22v22H0z"/></clipPath></defs></svg>