<svg width="22" height="22" fill="none" xmlns="http://www.w3.org/2000/svg"><g clip-path="url(#clip0_465_6181)" fill="#48a8ea"><path d="M16.156 8.938V5.5a1.72 1.72 0 00-1.718-1.719h-11A1.72 1.72 0 001.718 5.5v3.438a1.72 1.72 0 001.72 1.718h11a1.72 1.72 0 001.718-1.719zm-13.75 0V5.5c0-.569.463-1.031 1.031-1.031h11c.57 0 1.032.462 1.032 1.031v3.438c0 .568-.463 1.03-1.031 1.03h-11a1.033 1.033 0 01-1.032-1.03z"/><path d="M15.125 8.594v-2.75c0-.569-.463-1.032-1.031-1.032H3.78c-.568 0-1.031.463-1.031 1.032v2.75c0 .568.463 1.031 1.031 1.031h10.313c.568 0 1.031-.463 1.031-1.031zm-.688 0c0 .19-.154.344-.343.344H3.78a.344.344 0 01-.344-.344v-2.75c0-.19.155-.344.344-.344h10.313c.19 0 .344.154.344.344v2.75z"/><path d="M17.174 15.5a8.597 8.597 0 00.357-2.438v-11A1.72 1.72 0 0015.813.345H2.063a1.72 1.72 0 00-1.72 1.719v11c0 4.738 3.856 8.593 8.595 8.593a8.56 8.56 0 007-3.613l3.384 3.231c.266.253.615.38.964.38s.697-.127.963-.38a1.292 1.292 0 000-1.884l-4.075-3.89zm-8.236 5.47c-4.36 0-7.907-3.547-7.907-7.907v-11c0-.568.463-1.03 1.032-1.03h13.75c.568 0 1.03.462 1.03 1.03v11a7.98 7.98 0 01-.231 1.902l-1.172-1.119a.344.344 0 00-.475 0l-.5.478-2.19-2.19a.343.343 0 00-.486 0L11 12.92l-.444-.444a.343.343 0 00-.486 0l-1.032 1.031a.343.343 0 000 .486l1.375 1.375a.342.342 0 00.486 0l1.032-1.031a.343.343 0 000-.486l-.445-.445.545-.545 1.937 1.936-.455.435a.344.344 0 000 .497l1.921 1.834a7.875 7.875 0 01-6.496 3.406zm2.263-6.875l-.545.545-.889-.889.546-.545.888.889zm9.573 6.683a.716.716 0 01-.977 0l-5.55-5.297.955-.91 5.572 5.318a.61.61 0 01.195.444c0 .167-.07.325-.195.445z"/></g><defs><clipPath id="clip0_465_6181"><path fill="#fff" d="M0 0h22v22H0z"/></clipPath></defs></svg>