<svg width="75" height="75" fill="none" xmlns="http://www.w3.org/2000/svg"><g clip-path="url(#clip0_713_6915)" fill="#1B57AC"><path d="M74.212 15.292L59.564.644A2.197 2.197 0 0058.01 0H24.318a6.6 6.6 0 00-6.591 6.592v28.98C7.853 36.669.148 45.063.148 55.225.148 66.129 9.02 75 19.924 75h48.34a6.6 6.6 0 006.592-6.592V16.846a2.2 2.2 0 00-.644-1.554zm-14.005-7.79l4.774 4.774 2.372 2.372h-7.146V7.502zM4.543 55.225c0-8.481 6.9-15.381 15.38-15.381 8.482 0 15.382 6.9 15.382 15.38 0 8.482-6.9 15.382-15.381 15.382s-15.381-6.9-15.381-15.381zm63.72 15.38H32.339c3.95-3.194 6.649-7.874 7.239-13.183h22.827a2.197 2.197 0 000-4.395H39.576a19.654 19.654 0 00-3.218-8.789h26.046a2.197 2.197 0 000-4.394H32.338a19.683 19.683 0 00-10.217-4.272V6.592a2.2 2.2 0 012.197-2.197h31.494v12.45c0 1.214.984 2.198 2.198 2.198h12.45v49.365a2.2 2.2 0 01-2.196 2.198z"/><path d="M62.4 26.66H30.174a2.197 2.197 0 000 4.395H62.4a2.197 2.197 0 000-4.395zM28.653 49.716a2.198 2.198 0 00-3.107 0l-8.7 8.7-2.841-2.841a2.197 2.197 0 00-3.107 3.107l4.394 4.395c.43.429.991.644 1.554.644a2.19 2.19 0 001.553-.644l10.254-10.254a2.197 2.197 0 000-3.107z"/></g><defs><clipPath id="clip0_713_6915"><path fill="#fff" d="M0 0h75v75H0z"/></clipPath></defs></svg>