<svg width="22" height="22" fill="none" xmlns="http://www.w3.org/2000/svg"><g clip-path="url(#clip0_465_6149)" fill="#48A8EA"><path d="M21.902 15.589a.326.326 0 00-.047-.394L9.397 2.738V.322A.322.322 0 009.075 0H.373a.326.326 0 00-.322.322v21.356c0 .175.147.322.322.322H2.22a.322.322 0 000-.645H1.062l1.413-1.69h4.498l1.413 1.69h-4.62a.322.322 0 000 .645h5.309a.327.327 0 00.322-.322v-5.723l5.849 5.849a.326.326 0 00.455 0l6.154-6.153a.318.318 0 00.047-.062zM6.463 3.232l-3.18 3.18-2.195-.196 5.179-5.178.196 2.194zm-3.816.514V2.98h.766l-.766.766zm-.645.645L.695 5.697V1.211l1.307 1.563v1.617zm16.74 10.45l-6.743-6.742a.322.322 0 00-.455.456l6.596 6.596-2.938 2.938L3.86 6.747l2.938-2.938 3.682 3.683a.322.322 0 00.456-.456L7.108 3.208l-.182-2.03 13.845 13.845-2.03-.182zM7.303.645h1.449v1.448L7.304.645zm-1.556 0l-1.69 1.69H2.475L1.062.645h4.686zM.695 20.79V7.252l6.106 6.107v5.66H2.647v-8.804a.322.322 0 10-.645 0v9.01L.695 20.79zm8.058 0l-1.307-1.564v-5.222l1.307 1.307v5.479zM1.229 6.876l2.03.181L14.892 18.69l.181 2.03L1.23 6.876zM15.733 20.86l-.196-2.195 3.18-3.18 1.595.143.6.053-5.179 5.179zM14.709 5.723a.322.322 0 00.322-.322V3.638a.322.322 0 10-.644 0V5.4c0 .178.144.322.322.322zm1.081.447a.321.321 0 00.227-.094l1.247-1.247a.322.322 0 00-.456-.455L15.561 5.62a.322.322 0 00.228.55zm.124.758c0 .178.144.322.322.322H18a.322.322 0 000-.645h-1.764a.322.322 0 00-.322.323z"/></g><defs><clipPath id="clip0_465_6149"><path fill="#fff" d="M0 0h22v22H0z"/></clipPath></defs></svg>