<svg width="40" height="40" fill="none" xmlns="http://www.w3.org/2000/svg"><path fill-rule="evenodd" clip-rule="evenodd" d="M19.558 2.627a.833.833 0 01.884 0l3.548 2.218a15.834 15.834 0 006.428 2.284l3.019.377c.417.053.73.407.73.827v10.763a17.5 17.5 0 01-8.225 14.84l-5.5 3.437a.833.833 0 01-.884 0l-5.5-3.437a17.5 17.5 0 01-8.225-14.84V8.333c0-.42.313-.774.73-.827l3.019-.377a15.833 15.833 0 006.427-2.284l3.55-2.218zM20 4.316l-3.107 1.942a17.5 17.5 0 01-7.105 2.525L7.5 9.069v10.027a15.834 15.834 0 007.442 13.427L20 35.684l5.058-3.161A15.833 15.833 0 0032.5 19.096V9.069l-2.289-.286a17.5 17.5 0 01-7.104-2.525L20 4.316z" fill="#48A8EA"/><path fill-rule="evenodd" clip-rule="evenodd" d="M26.423 15.59l-6.667 6.666a.834.834 0 01-1.178 0l-3.334-3.333 1.179-1.179 2.744 2.744 6.077-6.077 1.179 1.178z" fill="#48A8EA"/></svg>