<svg width="24" height="24" fill="none" xmlns="http://www.w3.org/2000/svg"><g clip-path="url(#clip0_724_4061)"><path d="M0 12c0 6.627 5.373 12 12 12s12-5.373 12-12S18.627 0 12 0 0 5.373 0 12z" fill="#fff"/><path d="M12 15.6c-2.024 0-2.924-1.05-2.924-1.8 0-.15.075-.375.225-.45.15-.15.3-.15.45-.15.825 0 .6 1.275 2.25 1.275.825 0 1.275-.525 1.275-.975 0-.3-.15-.6-.675-.75l-1.8-.45c-1.425-.375-1.65-1.2-1.65-1.875 0-1.575 1.425-2.1 2.775-2.1 1.2 0 2.7.675 2.7 1.575 0 .375-.3.6-.75.6-.75 0-.6-1.05-2.1-1.05-.75 0-1.125.375-1.125.825 0 .45.6.675 1.05.75l1.35.3c1.425.3 1.8 1.2 1.8 1.95 0 1.425-.975 2.325-2.85 2.325zm5.55-2.625c.076-.3.076-.675.076-.975 0-1.65-.75-3.225-2.025-4.35-1.275-1.125-3-1.5-4.65-1.275A3.818 3.818 0 009.3 6c-1.2 0-2.325.675-2.925 1.725a3.39 3.39 0 000 3.375c-.3 1.8.225 3.675 1.575 5.025A5.73 5.73 0 0012.9 17.7c.525.3 1.05.45 1.65.45 1.2 0 2.325-.675 2.925-1.725.6-1.125.675-2.4.075-3.45z" fill="#0078D7"/></g><defs><clipPath id="clip0_724_4061"><path fill="#fff" d="M0 0h24v24H0z"/></clipPath></defs></svg>