<svg width="38" height="38" fill="none" xmlns="http://www.w3.org/2000/svg"><path d="M26.288 21.817h-9.9a.557.557 0 100 1.113h9.9a.557.557 0 000-1.113zm-12.087-.926a.557.557 0 00-.782.087l-1.329 1.66-.582-.463a.557.557 0 10-.692.872l1.016.808a.554.554 0 00.781-.088l1.675-2.093a.557.557 0 00-.087-.783zm12.087 5.222h-9.9a.557.557 0 100 1.113h9.9a.557.557 0 000-1.113zm.556 4.85a.557.557 0 00-.556-.556h-9.9a.557.557 0 000 1.113h9.9c.307 0 .556-.25.556-.557zm-12.643-5.776a.557.557 0 00-.782.087l-1.329 1.66-.582-.463a.557.557 0 10-.692.872l1.016.808a.555.555 0 00.781-.088l1.675-2.094a.557.557 0 00-.087-.782zm0 4.296a.557.557 0 00-.782.087l-1.329 1.66-.582-.462a.557.557 0 10-.692.871l1.016.808a.555.555 0 00.781-.088l1.675-2.093a.557.557 0 00-.087-.783zM18.607 3.44a.555.555 0 00.787-.001.557.557 0 00-.001-.788l-.01-.01a.557.557 0 10-.787.788l.011.011zm4.263 12.783v2.143c0 .514.419.933.934.933h1.848a.935.935 0 00.934-.933V16.49h.977a.935.935 0 00.934-.933V13.64a.935.935 0 00-.934-.933h-.977v-1.875a.935.935 0 00-.934-.934h-1.848a.935.935 0 00-.934.934v2.077h-7.74v-2.077a.935.935 0 00-.934-.934h-1.848a.935.935 0 00-.934.934v1.875h-.977a.935.935 0 00-.934.933v1.917c0 .515.42.933.934.933h.977v1.876c0 .514.42.933.934.933h1.848a.935.935 0 00.934-.933v-2.143h7.74zm4.514-2.403v1.557h-.798V13.82h.798zm-3.401-2.808h1.49v7.174h-1.49v-7.174zm-1.113 3.01v1.088h-7.74v-1.088h7.74zm-12.254 1.355V13.82h.798v1.557h-.797zm3.401 2.809h-1.49v-7.174h1.49v7.174z" fill="#fff"/><path d="M32.438 3.816h-5.277a1.212 1.212 0 00-1.184-.957h-3.446a3.613 3.613 0 00-7.064 0h-3.445c-.58 0-1.067.411-1.183.957h-5.28c-.63 0-1.143.513-1.143 1.144v31.896c0 .631.513 1.144 1.144 1.144h26.878c.632 0 1.145-.513 1.145-1.144V4.96c0-.63-.513-1.144-1.145-1.144zm.032 33.04c0 .014-.015.03-.032.03H5.56a.032.032 0 01-.03-.03V4.96c0-.015.015-.03.03-.03h5.252v1.289H7.428a.557.557 0 00-.556.557V35.04c0 .307.249.556.556.556h10.36a.557.557 0 100-1.113H7.984V7.332h2.85a1.21 1.21 0 001.187.978h5.765a.557.557 0 000-1.113h-5.765a.097.097 0 01-.097-.095V4.068c0-.053.044-.096.097-.096h3.93a.556.556 0 00.556-.522A2.496 2.496 0 0119 1.113a2.495 2.495 0 012.49 2.337.557.557 0 00.556.522h3.932a.1.1 0 01.097.096v3.034a.1.1 0 01-.097.095h-5.613a.557.557 0 100 1.114h5.613a1.21 1.21 0 001.187-.979h2.848v27.152h-9.648a.557.557 0 100 1.113H30.57a.556.556 0 00.556-.556V6.776a.557.557 0 00-.556-.557h-3.382v-1.29h5.25c.017 0 .032.018.032.031v31.896z" fill="#fff"/></svg>