<svg width="81" height="24" fill="none" xmlns="http://www.w3.org/2000/svg"><path d="M.97 23.49V.45h17.792c.79 0 1.504.191 2.144.575a4.253 4.253 0 011.568 1.568 4.09 4.09 0 01.608 2.176v4.576c0 .299-.032.587-.096.864a2.937 2.937 0 01-.224.736c.384.534.683 1.067.896 1.6.235.512.352 1.035.352 1.568v5.056c0 .79-.203 1.515-.608 2.176a4.252 4.252 0 01-1.568 1.568 4.087 4.087 0 01-2.144.576H.97zm4.416-3.873h14.176c.15 0 .277-.053.384-.16a.516.516 0 00.192-.416v-4.768c0-.17-.064-.31-.192-.416a.524.524 0 00-.384-.16H5.386a.638.638 0 00-.416.16.563.563 0 00-.16.416v4.768c0 .17.054.31.16.416.128.107.267.16.416.16zm0-9.792h13.216c.17 0 .31-.053.416-.16a.637.637 0 00.16-.416V4.897c0-.17-.053-.31-.16-.416a.563.563 0 00-.416-.16H5.386a.637.637 0 00-.416.16.563.563 0 00-.16.416V9.25c0 .15.054.288.16.416.128.107.267.16.416.16zM27.5 23.49V.45h4.383l8.64 10.303L49.131.45h4.416v23.04h-3.872V5.825l-9.152 10.912-9.184-10.88V23.49H27.5zm33.879 0c-.79 0-1.515-.193-2.176-.577a4.33 4.33 0 01-1.536-1.568 4.256 4.256 0 01-.576-2.176v-1.536h3.84v1.408c0 .17.053.31.16.416a.56.56 0 00.416.16H75.65c.17 0 .309-.053.416-.16a.516.516 0 00.192-.416v-4.576a.485.485 0 00-.192-.384.516.516 0 00-.416-.192H61.379c-.79 0-1.515-.192-2.176-.576a4.412 4.412 0 01-1.536-1.536 4.256 4.256 0 01-.576-2.176V4.77c0-.79.192-1.514.576-2.176a4.331 4.331 0 011.536-1.568A4.256 4.256 0 0161.379.45H75.81c.789 0 1.504.192 2.144.576a4.253 4.253 0 011.568 1.568 4.09 4.09 0 01.608 2.176v1.536h-3.872V4.897c0-.17-.064-.31-.192-.416a.563.563 0 00-.416-.16H61.507a.564.564 0 00-.416.16.563.563 0 00-.16.416v4.576c0 .15.053.288.16.416a.56.56 0 00.416.16H75.81c.789 0 1.504.192 2.144.576a4.253 4.253 0 011.568 1.568c.405.64.608 1.355.608 2.144v4.832c0 .79-.203 1.515-.608 2.176a4.252 4.252 0 01-1.568 1.568 4.087 4.087 0 01-2.144.576H61.379z" fill="#48A8EA"/></svg>