<svg width="1265" height="746" fill="none" xmlns="http://www.w3.org/2000/svg"><path d="M74.519 526.343c-.55-.629-1.413-5.028-1.885-9.741-.47-4.792-1.256-8.956-1.648-9.348-.472-.393-2.513-1.336-4.554-2.121-3.141-1.1-4.319-2.2-6.596-5.735-2.591-4.085-2.67-4.478-1.806-7.384.471-1.65 1.335-3.221 1.885-3.378 1.57-.629 7.302 1.807 11.228 4.713 2.434 1.886 4.475 2.828 6.203 2.828 2.12 0 3.062.629 5.339 3.378 2.59 3.142 2.826 3.849 2.826 8.484-.078 7.542-1.02 10.527-4.79 14.769-4.082 4.556-5.024 5.027-6.202 3.535zm-7.695-64.652c-.864-.55-.864-1.257-.078-3.849 1.413-4.949.785-5.656-5.025-5.656h-5.026l-.55-4.007c-.47-3.535-.784-4.085-3.218-5.263-1.492-.707-2.748-1.728-2.748-2.357 0-1.335 6.124-10.369 7.066-10.369.393 0 .942.707 1.178 1.493.785 2.435 11.306 4.87 13.426 3.142.707-.629 4.24-1.257 8.245-1.493 6.438-.393 6.91-.314 7.302 1.179.864 3.142.392 5.42-1.57 8.091-2.513 3.142-3.926 9.269-2.592 10.841.707.864.55 1.099-.706 1.099-.943 0-2.905 1.571-4.868 3.928-2.984 3.535-3.612 3.928-6.517 3.928-1.806-.079-3.77-.314-4.319-.707zm155.779-5.342l-5.417-3.614-2.906 1.729c-4.318 2.435-8.48 2.121-13.269-.943-3.298-2.121-3.926-2.828-3.69-4.478.235-1.414-.629-2.906-3.848-6.206-4.004-4.163-4.24-4.32-6.124-3.299-2.042 1.021-6.125.707-8.323-.628-1.649-1.1 3.062-5.028 10.129-8.642 3.219-1.728 6.988-3.613 8.244-4.32 1.649-.864 4.397-1.257 8.873-1.257 8.087 0 11.699 1.571 15.31 6.834 5.34 7.699 7.067 9.113 13.82 11.155 5.967 1.728 6.438 1.807 7.773.55 1.806-1.571 5.653-1.728 5.653-.236 0 .629-.55 1.572-1.178 2.121-.785.629-1.177 2.357-1.177 5.107v4.163l-4.397-.393c-3.691-.314-4.869-.078-7.303 1.493-7.537 5.027-6.202 4.949-12.17.864z" fill="#F3F5F9"/><path d="M88.416 453.128c-3.69-1.257-3.847-1.414-3.454-3.77.235-1.414 1.492-4.007 2.826-5.814 2.199-3.063 2.356-3.692 1.963-7.855-.47-3.849-.314-4.556.864-5.028.942-.393 2.12.079 3.533 1.414 1.963 1.964 2.356 2.043 9.501 1.571 4.083-.235 8.244-.55 9.344-.707 1.57-.235 2.277.236 3.297 1.964.785 1.336 1.885 2.357 2.513 2.357 1.727 0 3.612 3.142 3.612 6.127 0 1.964-.628 3.221-2.434 4.949-2.749 2.593-4.476 2.75-9.501 1.022l-3.612-1.257-5.103 3.22c-5.497 3.535-7.381 3.771-13.349 1.807zm90.688 5.813c-5.967-7.62-9.971-11.469-11.699-11.469-.863 0-2.041-.55-2.591-1.178-.785-1.022-.707-1.493.471-2.828 1.178-1.336 1.257-1.886.471-3.143-1.413-2.278-.549-3.063 3.298-3.063 2.277 0 4.083.55 5.967 1.885 3.455 2.592 10.443 4.242 12.171 2.828 1.02-.864 1.491-.785 2.905.471 3.926 3.378 5.26 5.342 4.789 7.463-.314 1.807.079 2.357 2.827 3.85 3.612 2.042 4.083 3.142 1.492 3.142-.942 0-2.513.707-3.455 1.649-1.413 1.257-2.041 1.414-3.298.786-2.983-1.65-5.496-1.1-6.831 1.414-.628 1.257-1.492 2.514-1.884 2.749-.393.236-2.513-1.806-4.633-4.556zm-95.006 38.885c-1.963-2.435-3.22-3.221-5.81-3.613-2.042-.393-4.947-1.729-7.302-3.535-2.12-1.571-5.418-3.3-7.224-3.85-2.748-.785-3.376-1.335-3.376-2.749 0-1.021-.707-3.849-1.57-6.363-2.042-5.97-2.042-6.206 1.177-7.699 1.492-.707 3.298-2.435 3.926-3.77 1.256-2.436 1.492-2.514 5.34-2.121 3.768.392 4.318.785 8.243 5.027 5.81 6.442 6.36 7.306 7.303 12.334.706 3.849 1.334 5.027 5.103 8.719 2.356 2.357 4.24 4.635 4.24 5.028 0 .393-.942 1.335-2.12 2.121-5.967 3.849-5.26 3.771-7.93.471zm26.382 10.056c-1.963-1.021-3.141-2.357-3.769-4.242-.471-1.492-1.334-3.064-1.806-3.378-.549-.314-1.57-1.492-2.277-2.671-.785-1.178-2.434-2.278-3.769-2.592-1.334-.314-3.376-1.807-4.71-3.456l-2.356-2.829 2.748-.235c2.356-.236 3.298-.943 6.046-4.714 1.727-2.513 3.455-4.791 3.847-5.184.314-.393 1.492.314 2.513 1.492l1.884 2.2 3.455-1.414c1.884-.707 3.847-1.493 4.319-1.728.785-.315 8.951 9.505 8.951 10.683 0 .236-1.963 1.886-4.319 3.614l-4.318 3.142.157 5.813c.235 5.656.157 5.892-1.806 6.363-1.257.393-2.984.079-4.79-.864zm21.828-63.081c-.236-.943-.471-2.828-.471-4.164 0-2.356.235-2.513 3.455-3.063 4.475-.629 5.182-.157 5.182 3.613 0 3.457-.157 3.535-4.476 4.556-2.983.629-3.297.55-3.69-.942z" fill="#F3F5F9"/><path d="M127.597 465.776c-.157-.236.157-1.493.706-2.828.943-2.278.786-2.907-1.727-8.406-2.277-5.027-2.67-6.441-2.198-9.583.549-4.321-1.414-9.27-3.612-9.27-.707 0-2.12-1.257-3.062-2.75l-1.649-2.749 2.591-4.713c2.12-3.85 3.062-4.871 5.339-5.499 4.475-1.257 6.046-.943 8.087 1.649 1.728 2.2 2.748 2.593 9.579 3.928 9.815 1.886 15.233 5.735 9.815 6.992-1.413.314-2.198 1.571-3.612 5.813-1.649 4.713-1.727 5.813-.942 8.484.471 1.65 1.885 3.928 3.141 4.949 2.591 2.121 2.669 2.828.706 7.07-1.413 3.142-1.57 3.221-7.223 4.242-3.219.55-8.009 1.493-10.679 2.042-2.669.55-5.025.786-5.26.629zm9.736-18.225l5.104-1.414.235-4.242c.314-6.206-.549-6.992-7.302-6.363l-5.496.55.235 5.499c.236 5.813.55 7.462 1.492 7.462.393 0 2.905-.707 5.732-1.492zm-49.152 37.471c-.392-.55-1.099-3.142-1.649-5.656-.785-3.849-1.648-5.263-5.731-9.662-2.749-2.986-4.554-5.421-4.162-5.971 2.042-3.692 5.182-6.755 6.282-6.284.706.236 1.648-.079 2.277-.943.942-1.257 1.492-1.257 6.517-.314l5.496 1.021.47 3.849c.394 2.593 1.336 4.635 2.828 6.363 3.454 3.928 3.219 8.327-.707 13.826-2.827 4.164-3.062 4.321-6.988 4.557-2.67.157-4.24-.158-4.633-.786zm58.653 8.562c-2.434-2.435-2.513-2.435-6.124-1.492-2.591.707-3.848.785-4.005.157-.628-1.807-2.748-3.142-5.103-3.142-3.22-.079-3.612-.314-7.931-5.892-3.926-5.106-4.161-5.577-2.434-6.206.628-.236 2.042-2.199 3.141-4.399 1.256-2.514 2.591-4.085 3.769-4.321 4.161-1.021 18.373-3.535 19.865-3.535 1.649 0 8.009 7.306 12.406 14.298l2.277 3.77-5.811 6.128c-3.219 3.456-6.203 6.363-6.752 6.677-.471.236-1.963-.707-3.298-2.043zm-73.336-62.766c-2.355-1.335-1.727-9.976 1.335-19.403 2.513-7.541 3.062-8.563 7.38-12.883 4.633-4.635 4.712-4.635 7.382-3.692 2.198.785 3.611 2.356 7.223 8.327l4.554 7.384h11.621l3.14 4.006c1.728 2.2 3.141 4.242 3.141 4.635 0 .864-4.632 9.505-5.81 10.762-.628.629-4.005 1.257-8.873 1.493l-7.93.55-1.963-2.279-1.963-2.278-3.769 1.729c-4.161 1.806-13.426 2.828-15.468 1.649z" fill="#F3F5F9"/><path d="M123.514 523.436c-5.81-6.285-7.145-8.013-7.695-10.213-.392-1.806-.235-2.199 1.571-2.592 1.963-.55 1.963-.628 1.806-6.677-.157-3.378-.079-6.285.157-6.442 5.653-4.635 8.323-6.049 11.071-6.049 2.434 0 3.219.315 3.926 1.964 1.02 2.2 1.099 2.278 5.81 1.022 3.298-.786 3.769-.707 5.261.864l1.727 1.728-2.199 1.571-2.198 1.65.55 9.269.549 9.27-7.93 4.006c-4.397 2.2-8.244 4.007-8.637 4.007-.314 0-2.041-1.493-3.769-3.378zm28.659-96.702c-1.492-1.336-4.161-2.2-9.5-3.143-6.832-1.257-7.538-1.571-9.58-4.163-2.12-2.671-2.355-2.75-5.731-2.2-1.963.236-4.005.629-4.476.864-.55.158-2.591-1.806-4.632-4.399l-3.691-4.713h-5.26c-2.984-.079-5.732-.314-6.203-.628-1.178-.786-8.166-12.098-8.166-13.198 0-.55 1.1-1.414 2.355-1.885 2.906-1.257 3.534-2.357 4.319-7.463.942-6.677 2.905-8.484 5.261-4.949.863 1.335 2.983 2.121 8.951 3.378 4.239.943 8.872 2.199 10.285 2.749 2.199.943 2.984.864 7.774-1.178l5.26-2.278 4.554 4.87c3.926 4.242 4.79 4.792 6.125 4.085 2.355-1.257 3.69-1.021 7.694 1.571 2.748 1.729 4.633 2.357 7.381 2.357 3.219 0 3.769.236 4.161 1.885.707 2.828-.706 5.656-4.868 9.741-4.632 4.478-7.38 10.998-5.731 13.59.863 1.415.706 1.964-1.1 4.242-1.099 1.493-2.277 2.75-2.591 2.671-.314 0-1.492-.785-2.591-1.806zm-44.519 50.511c-.707-1.257-1.571-2.278-1.885-2.278-.392 0-.628-1.257-.628-2.749 0-1.964-.706-3.535-2.434-5.499-2.12-2.436-2.512-3.457-2.591-7.306l-.078-4.399 3.533-2.2 3.533-2.199 4.633 1.335c4.554 1.257 4.711 1.257 7.537-.393l2.984-1.728 2.199 4.949c2.512 5.656 2.512 5.813.942 9.741-4.633 11.234-4.397 10.919-11.935 13.512l-4.475 1.571-1.335-2.357zm48.916-7.149c-5.81-7.305-5.575-6.363-3.219-11.626l2.041-4.713-2.826-2.593c-4.083-3.692-4.554-5.498-2.984-11.312.707-2.749 1.57-4.949 1.806-4.949s1.492 1.257 2.748 2.828c2.12 2.671 2.434 2.75 5.575 2.278 4.004-.549 5.182.472 3.062 2.829-1.335 1.414-1.335 1.728-.236 3.692.629 1.178 2.356 2.513 3.769 2.985 3.534 1.1 15.311 14.375 13.976 15.711-.785.786-18.844 8.955-19.707 8.877-.472 0-2.277-1.807-4.005-4.007zm-70.274 70.073c-1.963-1.257-3.847-2.279-4.318-2.357-.628 0-3.69-4.478-4.947-7.149-.078-.314 1.885-2.828 4.476-5.656 5.103-5.656 6.36-9.191 6.36-17.753v-4.557l4.397-2.985c4.946-3.299 7.695-3.299 8.951 0 .392 1.1 1.099 1.964 1.57 1.964.471 0 1.492 1.571 2.356 3.457 1.099 2.592 2.198 3.849 4.161 4.635 2.827 1.178 5.261 3.927 5.261 5.97 0 .707 2.512 3.849 5.496 7.148 4.947 5.342 5.496 6.206 5.496 9.191 0 4.085-1.256 4.4-5.339 1.257-2.513-1.885-3.062-2.042-8.558-1.571-3.22.236-6.046.629-6.282.786-.235.235-.628 1.649-.942 3.063-.471 2.279-1.099 2.828-5.104 4.4-6.988 2.749-8.95 2.828-13.034.157z" fill="#F3F5F9"/><path d="M155.863 436.474c-1.727-1.885-1.178-4.006 2.277-8.248 3.533-4.478 3.69-4.871 2.67-6.835-1.492-2.749.549-7.541 5.26-12.254 5.261-5.185 6.988-5.264 11.15-.786l3.141 3.3 2.198-1.493c1.963-1.336 2.199-1.336 3.141-.079.942 1.336 2.669 11.234 2.669 15.712 0 2.042-.392 2.749-1.806 3.063-.942.236-3.611 2.121-5.967 4.085-3.298 2.828-4.632 3.535-5.889 3.064-2.826-.943-12.327-.314-13.583.864-1.571 1.571-3.691 1.414-5.261-.393zM15.552 618.882a121.571 121.571 0 00-1.335-2.749c-.157-.315.55-.55 1.57-.55 1.021-.079 2.356-.393 2.984-.786.943-.628 1.021-1.021.236-2.356-1.649-2.593-1.178-3.614 2.041-5.107 2.984-1.335 5.261-4.477 4.397-5.97-.314-.393-1.648-.707-3.14-.707-2.984 0-6.36-2.906-7.145-6.127-.707-2.75.157-2.985 2.826-.707 1.806 1.492 3.377 2.121 5.575 2.121 2.827 0 3.22.235 4.319 2.749 1.57 3.771 2.355 12.334 1.256 14.219-.785 1.335-.942 1.257-1.728-1.1-.55-1.414-1.334-2.514-1.884-2.514-.471 0-2.434 2.593-4.397 5.892-1.884 3.221-3.69 5.892-4.004 5.892-.236 0-.943-1.021-1.57-2.2zm103.329 32.365c-5.182-.55-10.05-.864-10.756-.629-.786.236-1.885.079-2.592-.314-.942-.55-.549-1.257 2.277-4.085l3.534-3.378-1.571-3.063c-1.727-3.457-1.963-3.221 4.947-4.557 2.513-.55 4.711-1.178 4.868-1.492.157-.236 0-2.278-.393-4.399-.706-3.614-.549-4.007 2.042-7.856 1.492-2.2 2.748-4.242 2.748-4.556 0-.315-1.806-.55-4.004-.55h-4.083l.549-6.285c.314-4.006.157-7.462-.471-9.741-.471-1.963-.706-3.849-.392-4.163.392-.314 3.376-.55 6.674-.471 5.182.078 6.203.392 7.38 1.806 1.728 2.121 1.806 3.614.236 5.185-1.256 1.257-1.413 3.692-.471 6.206.392.943.078 3.142-.785 5.735-1.728 5.027-1.414 5.813 3.533 9.505 1.963 1.492 3.769 3.221 3.926 3.928.235.707.628 4.399.863 8.327l.55 7.148-3.298 1.336c-3.297 1.257-3.376 1.257-2.826 4.399.549 3.692 1.727 3.535-12.485 1.964zm-62.578 30.794c-.707-1.414-1.02-2.985-.785-3.377.314-.472 4.397-3.3 9.186-6.364 8.48-5.498 8.637-5.577 10.05-4.084.786.864 2.12 1.571 2.906 1.571 2.748 0 1.884 2.985-1.178 4.477-2.12 1.022-2.984 2.043-3.926 4.949l-1.256 3.693-5.653.549c-3.063.315-6.203.707-6.91.865-.785.235-1.649-.55-2.434-2.279z" fill="#F3F5F9"/><path d="M64.783 717.47c-.236-.943-.471-4.242-.471-7.227 0-5.185-.157-5.656-4.005-11.47-3.533-5.42-3.847-6.363-3.376-8.955.628-3.535 2.356-4.321 9.736-4.321 5.889 0 5.968-.078 7.852-5.106.707-1.728 1.963-3.535 2.905-4.006 3.455-1.65 4.24-2.907 4.004-5.735-.156-2.435-.55-2.906-2.355-3.063-2.12-.315-3.22-1.493-6.752-7.385l-1.728-2.828 6.753-3.692 6.752-3.77 4.24 4.242c4.633 4.556 4.947 5.184 2.905 5.97-3.847 1.335-4.161 2.278-3.612 11.233.55 9.427.629 9.034-5.339 16.89l-2.983 4.006-.236 12.491-.235 12.569-3.926.864c-2.12.55-5.183.942-6.753 1.021-2.356.079-2.984-.236-3.376-1.728z" fill="#F3F5F9"/><path d="M52.848 675.678c-.314-.786.157-2.042 1.257-3.142 1.57-1.65 1.727-2.436 1.256-6.285l-.55-4.32h5.81c7.067 0 10.522.628 11.071 1.964.315.864-2.905 3.142-16.567 12.019-1.57.942-1.806.942-2.277-.236zm-17.117-20.267c-.785-2.671-2.041-5.656-2.983-6.599l-1.57-1.728 3.925-1.964 3.926-2.042 4.24 2.356c2.277 1.257 6.517 3.535 9.422 5.106l5.26 2.75-1.57 2.671c-1.57 2.592-1.57 2.671-6.124 2.199-3.14-.235-5.81 0-8.401.865-2.042.707-3.926 1.335-4.24 1.335-.314 0-1.1-2.2-1.885-4.949zm55.041-1.572c-3.847-3.535-4.79-5.027-6.124-9.191-.864-2.749-2.748-7.62-4.24-10.84-1.492-3.221-2.984-7.306-3.22-9.113-.55-3.378-5.103-12.333-7.537-14.768-.785-.864-2.513-1.414-4.083-1.414-2.199 0-2.748-.315-2.984-1.807-.157-1.414-.628-1.728-2.67-1.493-1.413.079-2.826-.314-3.297-.942-.785-.864-.236-1.179 3.14-1.65 2.278-.314 4.79-1.1 5.497-1.728 1.177-1.1 1.492-.864 3.376 2.121 1.178 1.806 2.513 4.399 3.062 5.813 1.806 4.87 2.434 5.42 6.91 5.734 4.24.393 4.318.315 5.339-2.121 1.02-2.435 1.1-2.513 4.711-1.963l3.769.471 2.905-4.713c1.57-2.671 2.67-5.185 2.356-5.578-.236-.471-1.885-.786-3.612-.786-2.591 0-3.141-.235-2.905-1.414.235-1.099 1.256-1.414 6.124-1.571 4.554-.235 6.281-.628 7.538-1.806 1.806-1.729 2.669-1.336 2.669 1.178 0 2.514 1.492 3.692 3.376 2.671 2.67-1.414 3.298.393 3.298 9.819v8.799l2.984.235c1.57.157 2.905.55 2.905.943 0 .393-.864 1.964-1.963 3.535-1.256 1.964-1.727 3.535-1.492 4.949 1.021 5.185 1.099 5.185-4.397 6.206-2.748.628-5.417 1.414-5.81 1.807-.471.392-.157 1.964.707 3.927l1.491 3.221-3.768 3.614c-3.769 3.692-3.769 3.692-2.12 5.027 2.198 1.807 2.12 2.357-.864 4.4-4.868 3.22-6.046 2.985-11.071-1.572zm-62.814-9.268c-1.806-1.414-11.15-16.262-10.6-16.811.157-.158 2.042-1.1 4.162-1.964l3.847-1.65 2.434 2.907 2.513 2.906 2.59-1.335c3.534-1.729 4.162-1.65 5.654.942 1.256 2.043 1.256 2.2 0 2.985-1.256.786-1.256 1.1 0 4.4l1.256 3.613-2.355.943c-1.257.55-3.534 1.807-4.947 2.828-2.59 1.728-2.67 1.728-4.554.236z" fill="#F3F5F9"/><path d="M28.586 624.616c-1.177-1.492-2.512-2.749-3.062-2.749-.471 0-2.905 1.021-5.34 2.2-2.512 1.178-4.789 1.964-5.103 1.649-.314-.314-1.884-.942-3.454-1.414-3.377-1.099-3.848-2.671-3.848-13.59 0-5.577-.392-8.013-2.434-13.747-3.14-8.956-4.475-13.747-5.104-18.461-.47-3.378-.314-3.771 1.021-3.771.785 0 2.12 1.022 2.827 2.357 1.806 2.985 2.983 2.907 7.302-.157 3.22-2.357 3.69-2.435 8.48-1.964 5.967.55 6.595.079 6.91-5.42.235-4.242 0-4.085 6.673-3.064 2.277.393 2.513.629 2.12 2.592-.628 2.986 1.414 5.028 3.926 4.085 1.492-.55 2.199-.314 3.377 1.022 3.611 4.163 3.611 4.163 2.198 8.405l-1.335 3.928 2.905 4.32c2.277 3.378 2.827 4.949 2.591 7.228-.235 2.906-.314 2.985-3.533 2.985-2.984 0-3.533.314-5.34 2.906-2.276 3.378-2.355 4.242-.706 8.484 1.257 2.985 1.178 3.143-.392 4.478-.864.786-2.12 2.828-2.67 4.556-.707 1.964-1.963 3.614-3.533 4.557l-2.356 1.414-2.12-2.829zm-6.674-6.52l3.377-5.263 1.099 2.514c1.413 3.456 2.905 3.221 4.475-.786 1.021-2.828 1.1-4.399.55-9.269-1.256-9.663-2.748-11.705-8.558-11.705-1.1 0-2.984-.943-4.24-2.121-1.885-1.807-2.434-1.964-4.162-1.178-2.67 1.256-2.512 4.399.471 8.405 1.65 2.121 3.14 3.221 4.79 3.535 3.769.55 3.455 1.964-1.02 3.771-4.084 1.728-4.24 2.042-2.749 5.734.471.943 0 1.336-1.806 1.729-1.492.314-2.434.942-2.434 1.728 0 2.199 4.004 8.248 5.496 8.248.864 0 2.67-1.964 4.711-5.342zm23.556 52.555c-5.183-1.336-5.968-2.121-7.381-6.835-.393-1.492 0-1.807 3.612-2.671 2.277-.471 5.732-.785 7.694-.707l3.534.314.235 4.557c.236 4.163-.628 6.991-2.12 6.756-.235-.079-2.748-.707-5.574-1.414z" fill="#F3F5F9"/><path d="M59.051 659.653c-2.198-.236-2.198-.628-.235-3.614 2.12-3.299 2.041-3.849-1.335-5.42-1.649-.785-5.81-2.985-9.343-4.949-5.89-3.378-6.36-3.849-7.067-7.07-.707-2.985-.628-3.378.55-3.378 2.512 0 2.355-1.492-.393-5.656-1.57-2.278-2.827-4.792-2.827-5.577 0-1.964 1.414-4.635 3.298-6.128 1.57-1.257 1.57-1.335.236-5.656-1.335-4.163-1.335-4.477-.079-6.441.942-1.414 1.885-1.964 3.455-1.886 1.178.079 2.984-.235 4.004-.785 1.65-.943 2.12-.786 5.104 2.199 2.356 2.278 3.769 3.064 4.711 2.75.942-.393 1.492-.079 1.806 1.1.314 1.414 1.02 1.728 3.69 1.728 3.062 0 3.376.157 6.282 4.792 2.041 3.063 3.454 6.52 4.083 9.584.47 2.67 2.198 7.384 3.69 10.447 3.612 7.306 4.79 11.391 3.455 12.569-.471.472-3.377 2.2-6.439 3.85-7.066 3.77-7.616 4.242-7.145 6.206.393 1.492.079 1.649-3.69 1.649-2.277 0-4.868-.157-5.81-.314zm19.001-47.055c-2.905-.393-4.318-1.493-4.318-3.457 0-2.042-5.34-11.626-6.753-12.176-.628-.236-1.884.471-2.748 1.65-1.57 1.964-2.041 2.042-6.831 1.885l-5.26-.236-.393-3.142c-.236-1.728-1.65-4.87-3.063-6.991l-2.59-3.85 1.334-4.084 1.414-4.164-2.906-3.613c-3.062-3.693-3.454-3.928-6.595-3.693-1.413.158-1.806-.157-1.57-1.256.235-1.179 1.02-1.415 3.925-1.415 2.042 0 4.162-.471 4.712-1.099 1.099-1.1.078-2.2-5.261-6.128-2.277-1.649-2.277-1.728-.864-3.299 1.1-1.257 2.434-1.65 4.947-1.65 3.062 0 3.926.472 8.244 4.399l4.79 4.478 2.434-2.749c1.334-1.493 3.69-4.478 5.182-6.52 2.041-2.828 3.533-4.085 5.889-4.714 5.025-1.492 6.517-2.592 7.459-5.734 1.492-4.478 1.963-4.635 6.438-1.807 3.455 2.121 4.554 2.435 6.91 2.042 5.889-1.178 5.732-1.257 6.988 4.164 1.335 5.499 1.413 5.342-4.24 9.269-1.57 1.1-1.57 1.1.236 4.478 1.805 3.378 1.805 3.457.47 6.285-1.334 2.749-1.57 2.906-5.181 2.906-3.926 0-8.48 1.728-8.48 3.142 0 .472.55 1.964 1.256 3.221 1.02 2.043 1.1 3.064.392 5.892-1.177 4.478.157 9.191 3.063 11.312 1.649 1.178 2.041 1.964 1.727 3.849-.314 2.357-.236 2.435 2.984 2.435h3.219l-1.806 3.221c-1.806 3.221-1.806 3.221-5.496 2.75-3.533-.393-3.848-.315-4.947 1.885-1.413 2.671-1.727 2.828-4.71 2.514z" fill="#F3F5F9"/><path d="M132.308 597.2c-1.178-2.749-2.591-3.299-10.286-3.849-2.591-.235-10.128 1.1-11.149 1.964-1.021.864-1.256.471-2.12-3.535-.628-2.828-1.571-2.671-4.476.629-2.355 2.592-2.669 2.749-7.773 2.749-7.145 0-9.03-.864-10.207-4.399-.707-2.2-.707-3.614 0-6.206.785-2.828.706-3.771-.393-5.892-1.806-3.535-.864-4.163 6.517-4.32 3.22 0 3.455-.236 5.496-3.85l2.042-3.77-1.649-2.985-1.727-2.985 3.219-2.671 3.298-2.75-1.021-4.635c-.55-2.592-1.178-5.341-1.335-6.206-.314-1.178.314-1.963 2.513-3.142 2.826-1.571 3.69-2.514 4.554-5.342.314-1.099 1.334-1.335 5.103-1.335 2.591 0 4.947.393 5.261.864.235.393 1.57 1.493 2.905 2.278 1.256.786 3.298 3.142 4.397 5.185 1.963 3.613 2.277 3.849 7.773 5.42 3.141.864 6.046 2.121 6.517 2.75.864 1.492.942 6.756 0 9.898-.942 3.221.079 4.713 3.534 5.342 2.041.392 3.219 1.256 4.397 3.299.942 1.571 2.748 3.299 4.004 3.849 1.649.629 2.67 1.885 3.376 3.928.55 1.65.864 3.299.628 3.614-.157.314-3.297 2.199-6.909 4.163-7.538 4.085-8.088 4.635-8.48 8.17-.157 2.042-.864 2.906-3.533 4.477l-3.298 1.964-1.178-2.671zM277.88 427.833c-1.1-.392-2.984-.707-4.162-.707-1.413-.078-2.905-.864-3.847-2.121-1.414-1.728-1.963-1.964-4.633-1.492l-3.062.471v-3.064c0-2.435-.314-3.22-1.492-3.535-.864-.235-2.277-1.885-3.141-3.613-1.648-3.221-3.219-3.928-5.496-2.514-.549.314-1.963.393-3.14.079-1.649-.393-2.12-1.1-2.435-3.614-.314-2.514-.706-3.064-1.962-2.907-.864.158-3.141.472-5.104.707-3.376.472-3.69.315-5.653-2.278-1.335-1.728-4.24-3.692-8.009-5.499-4.554-2.199-6.046-3.299-6.439-4.87-.314-1.178-1.177-2.2-2.355-2.435-2.199-.55-12.092-10.841-12.092-12.569 0-.629.864-3.3 1.963-5.813 1.099-2.593 1.963-5.185 1.963-5.892 0-.629 1.413-1.885 3.062-2.75 2.748-1.335 3.219-2.042 3.926-5.577.471-2.278 1.727-5.106 2.827-6.363 1.806-2.2 1.884-2.357.785-5.97-1.963-6.442-1.57-8.484 2.669-14.14 1.649-2.121 2.435-2.514 5.261-2.514 2.591 0 3.376.314 3.691 1.492.314 1.414 4.789 4.792 6.202 4.792.864 0 6.125-4.792 6.988-6.363.472-.942.393-2.592-.235-4.87-1.099-4.164-.157-9.82 1.884-11.077 2.12-1.335 2.905.079 3.691 7.228l.706 6.52 5.025 5.263c6.596 6.913 7.852 7.07 9.972 1.178 3.926-10.919 5.339-11.94 16.96-11.94 10.129.078 10.364.157 13.034 6.598 3.219 7.463 4.004 8.17 6.988 6.442l2.277-1.414 5.575 10.605 5.574 10.605 4.869-.471c3.533-.314 5.26-.079 6.359.707 1.335 1.021 1.257 1.335-1.648 7.306l-3.141 6.284 1.727 5.656c1.492 4.713 1.571 5.892.785 7.07-.942 1.178-1.413 1.257-4.632.393-1.963-.55-5.025-.943-6.831-.943-2.67 0-3.69-.55-6.988-3.77-2.12-2.043-6.125-4.95-8.951-6.442-4.79-2.514-5.261-2.592-8.245-1.728-1.805.55-3.219 1.492-3.219 2.042 0 .55 1.1 3.378 2.356 6.128 2.041 4.399 2.277 5.42 1.57 7.384-.549 1.257-.707 3.849-.471 5.891.55 4.007.707 3.85-4.318 4.871-1.649.393-2.277 1.335-3.848 6.442l-1.884 5.97 2.355 1.885c3.141 2.592 4.397 2.435 7.302-1.178 2.12-2.671 2.984-3.142 5.497-3.142 2.355 0 3.297.392 4.24 1.806 1.177 1.807 1.02 2.043-5.418 8.484-5.732 5.578-6.596 6.913-6.282 8.642.864 4.399-3.14 6.441-8.95 4.634z" fill="#F3F5F9"/><path d="M402.173 375.279c-14.369-6.363-19.472-9.034-29.601-15.79-9.265-6.049-12.72-7.934-14.055-7.62-1.57.393-23.791.472-36.118.157-2.905-.078-5.575-.471-5.967-.864-.393-.393-2.905-4.949-5.575-10.055-4.004-7.463-4.711-9.427-3.847-10.055.628-.393 2.277-1.414 3.769-2.357l2.591-1.649-.471-5.421-.55-5.342 3.376-1.492c4.633-1.964 11.621-9.663 11.621-12.726 0-1.179.314-2.435.706-2.671 1.257-.786 4.947 2.906 6.439 6.441 1.884 4.478 1.884 7.463 0 9.191-1.492 1.336-1.727 1.336-5.575 0-3.847-1.414-3.926-1.414-7.459.315-1.963.942-3.769 2.278-4.083 2.985-.471 1.335 1.099 13.59 1.963 15.004.628.943 8.558 4.163 10.364 4.163.707 0 3.141-1.963 5.497-4.32l4.24-4.321h22.22c12.327 0 22.299.315 22.535.707.314.393-1.492 1.807-3.848 3.143-2.434 1.335-4.554 2.985-4.868 3.692-.471 1.257 4.633 7.07 7.224 8.091 1.02.393 3.14.079 5.81-.864 5.339-1.807 6.91-1.807 11.856.157 3.219 1.257 4.947 1.414 9.893 1.021l5.968-.471-.55 3.613c-.55 3.457-.471 3.693 1.649 4.557 3.769 1.571 7.616 1.099 11.306-1.336l3.377-2.278-.471-5.263c-.393-4.164-.157-5.578.785-6.52 1.256-1.336 1.099-1.336 13.348 5.656 1.884 1.1 4.318 3.456 5.81 5.813l2.513 3.928-1.649 2.278c-2.12 2.828-2.12 2.514.392 8.405 1.1 2.75 1.806 5.185 1.492 5.499-.314.314-1.649.079-3.062-.471-2.434-.943-2.591-.864-5.418 2.278-2.041 2.278-3.926 3.456-6.203 4.006-1.805.393-4.711 1.964-6.517 3.378-1.962 1.65-5.025 3.142-8.008 3.928-2.67.707-4.947 1.178-5.104 1.178-.157 0-8.166-3.535-17.745-7.698zm11.463-70.779c-3.376-2.592-6.203-5.498-6.438-6.441-.236-1.021-1.178-5.735-2.042-10.527-1.491-7.62-1.491-9.112-.628-11.783.864-2.514 1.649-3.299 4.083-4.085 1.806-.628 5.81-3.692 10.443-8.091 6.595-6.206 7.773-6.992 9.658-6.599 1.884.393 2.512-.078 5.81-4.32 1.963-2.593 5.261-5.814 7.302-7.228 2.042-1.414 7.067-5.027 11.15-8.091 4.083-3.142 8.401-6.206 9.5-6.991 2.434-1.571 18.295-4.085 33.213-5.264 6.203-.471 13.427-1.571 16.646-2.435 3.141-.943 6.203-1.414 6.909-1.178 2.199.864 1.414 4.949-1.491 7.855-2.984 2.986-2.984 2.986-20.494 4.871-12.719 1.335-16.331 2.671-26.853 9.662-2.434 1.571-6.595 3.771-9.108 4.792-2.512 1.1-6.988 3.849-9.814 6.128-2.827 2.356-8.009 6.363-11.464 8.955-6.595 4.87-14.84 13.669-18.216 19.403-1.963 3.3-1.963 3.692-1.57 12.962.235 5.263.549 10.212.706 11.076.472 2.671-1.256 2.043-7.302-2.671zm104.9-163.003c-1.492-3.849 1.178-6.756 4.711-5.185 2.277 1.1 2.356 1.729.236 4.321-1.806 2.357-4.24 2.749-4.947.864zm13.034 0c-2.12-.943-2.434-1.414-1.728-2.592 1.1-2.043 8.559-3.928 9.501-2.357 1.413 2.199.707 3.928-2.041 5.027-1.492.629-2.827 1.1-2.906 1.1-.157-.078-1.413-.55-2.826-1.178zm-22.927-1.493c0-3.377 5.417-3.613 5.496-.235 0 .628-3.376 2.199-4.79 2.199-.392 0-.706-.864-.706-1.964zm-.707-9.584c-1.57-5.577-.942-5.97 5.732-3.692 3.454 1.179 3.69 1.414 3.454 3.692-.235 2.436-.392 2.514-4.318 2.75l-4.083.235-.785-2.985zm-30.151-2.592c-1.335-1.492-1.335-1.571 1.257-2.592 9.422-3.928 14.133-5.421 14.839-4.714.629.708.157 6.521-.549 6.521-.157 0-2.984.471-6.36 1.178-7.695 1.493-7.538 1.493-9.187-.393zm35.961-5.028l-2.355-1.021 4.318-1.336c3.69-1.1 4.397-1.178 5.418-.157.942.943.942 1.336.078 2.357-1.177 1.492-4.24 1.492-7.459.157zm-31.328-4.399c-.236-.471-1.728-.785-3.219-.785-3.298 0-3.455-1.493-.393-3.771l2.277-1.65 4.397 1.729c2.434.942 4.318 1.963 4.318 2.356 0 .629-4.711 2.907-6.124 2.907-.393 0-1.021-.393-1.256-.786zM15.081 333.802c-1.256-1.65-4.71-6.52-7.694-10.762-5.81-8.406-5.81-9.113-.236-9.113 2.434 0 3.14.393 4.476 2.593.863 1.414 2.355 3.22 3.219 4.085 1.57 1.414 1.649 1.413 3.926-.236 1.413-1.1 2.434-1.414 2.748-.943.864 1.336 4.318 12.805 4.318 14.297 0 1.65-.392 1.886-4.79 2.593-3.454.471-3.69.392-5.967-2.514zM159.476 377.4c-.55-.549-.943-1.256-.943-1.571 0-.392-1.491-3.849-3.297-7.698l-3.22-7.07h-3.062c-2.748 0-3.062-.236-2.591-1.571.314-1.022-.157-2.671-1.178-4.321-1.727-2.828-2.983-3.221-7.066-2.042-3.062.864-8.48-.472-10.679-2.671-1.884-1.886-2.041-1.964-4.24-.786-1.256.629-2.434 1.179-2.669 1.179-.157 0-.55-2.043-.785-4.557-.314-2.435-1.257-6.913-2.199-9.819-2.041-6.128-1.884-6.363 3.769-7.227 2.513-.393 4.318-.079 7.302 1.178 4.162 1.807 4.868 2.907 6.046 9.584.471 2.749.628 2.906 4.554 3.378 2.199.235 5.261.392 6.753.235 2.434-.235 2.905-.707 4.789-4.556 1.178-2.435 1.963-4.635 1.728-4.949-.158-.314-2.513-1.807-5.34-3.299-3.69-2.121-5.182-3.457-5.81-5.264-1.256-3.692-1.099-4.399 1.806-7.384 2.355-2.514 3.062-2.749 6.124-2.514 3.298.236 3.455.393 5.654 4.714 1.256 2.514 4.397 9.348 7.066 15.318l4.79 10.841 4.554.628c4.24.629 4.711.55 6.595-1.178l1.963-1.807 1.885 2.357c1.02 1.257 2.983 3.771 4.24 5.577l2.355 3.3-2.827.942c-1.57.55-5.417 3.221-8.558 5.971-4.554 4.006-5.81 5.577-6.046 7.541-.157 2.043-1.021 2.907-4.946 5.42-5.418 3.378-5.261 3.3-6.517 2.121z" fill="#F3F5F9"/><path d="M205.722 359.961c-2.277-2.435-3.141-2.749-8.245-3.221l-5.731-.55-5.418-7.384c-2.984-4.006-5.889-7.384-6.36-7.384-.55 0-1.806.864-2.748 1.964-1.649 1.885-4.004 2.357-7.381 1.492-1.334-.392-3.14-3.613-7.694-13.983-3.298-7.384-5.968-13.904-5.968-14.454 0-.707 1.571-.942 5.339-.942 6.439 0 26.853-3.614 28.11-4.95.549-.549 1.492-4.634 2.198-9.191.707-4.556 1.571-8.484 1.885-8.876.392-.315 2.198-1.022 4.161-1.572 3.298-.942 3.69-1.414 7.773-8.719 3.926-6.992 4.711-7.934 9.03-10.448 6.046-3.535 7.695-5.106 11.542-10.684 1.649-2.435 3.376-4.477 3.769-4.477.471 0 2.591 1.256 4.789 2.828 3.691 2.67 3.926 3.063 3.455 5.341-1.178 4.949-.078 7.542 3.219 7.542 2.12 0 2.199.393 3.534 9.741l.942 7.07-2.199 1.571c-4.632 3.299-8.087 6.834-12.562 12.726l-4.633 5.97 1.492 7.149c.785 3.928 1.57 7.777 1.806 8.562.314 1.179-.157 1.414-3.219 1.414-3.298 0-3.691.236-6.753 4.164-3.062 3.928-3.219 4.478-3.141 9.269.079 2.75.314 5.892.628 6.992.472 1.414.157 2.514-1.099 4.006-1.021 1.179-2.041 3.771-2.277 5.735-.471 2.906-1.021 3.849-2.826 4.792-1.257.628-2.434 1.178-2.513 1.178-.157 0-1.492-1.257-2.905-2.671zm146.357 100.238c-8.009-3.221-11.699-3.536-20.964-1.807-5.654 1.021-6.439 1.021-11.385-.393-5.104-1.414-5.418-1.65-7.381-5.42l-1.963-3.928-5.889-.55c-8.166-.707-8.558-.55-8.558 4.163 0 5.578-1.649 6.049-11.935 3.457-8.401-2.043-9.108-1.964-12.327 1.492-1.099 1.1-2.356 2.043-2.827 2.043-.942 0-3.533-7.777-3.533-10.605 0-.786 1.178-2.75 2.669-4.321 2.042-2.278 2.984-4.477 4.083-9.034l1.414-6.049 2.826.472c8.637 1.649 9.108 1.571 11.228-1.257 1.335-1.728 1.885-3.299 1.649-4.556-.314-1.65.707-3.143 6.36-8.642 3.69-3.692 6.674-6.991 6.674-7.305 0-.393-.942-1.886-2.12-3.378-1.963-2.357-2.591-2.671-5.889-2.671-3.297 0-3.847.236-6.281 3.221-2.434 2.906-2.905 3.142-4.397 2.356-2.041-1.099-2.041-1.571-.236-6.755 1.257-3.693 1.649-4.007 4.869-4.792l3.454-.864-.235-4.714c-.157-2.514.157-5.656.628-6.913.707-1.885.471-2.985-1.57-7.305-1.885-4.007-2.199-5.342-1.414-5.814 1.806-1.099 3.612-.707 7.852 1.807 6.517 3.85 8.558 5.421 9.344 7.463.549 1.571 1.177 1.885 4.161 1.885 1.884 0 5.732.707 8.48 1.572 2.748.785 5.025 1.492 5.104 1.571.078 0 1.02-1.257 2.119-2.828l1.885-2.828-1.885-5.499-1.805-5.499 2.041-4.085c1.099-2.2 2.827-5.263 3.847-6.834l1.806-2.907 14.448.157 14.447.079 12.091 7.934c8.559 5.577 15.233 9.269 22.692 12.412 5.81 2.513 12.013 5.184 13.741 5.891 11.385 5.106 10.05 4.871 16.096 3.221 3.69-.943 6.438-2.278 8.637-4.163 2.041-1.729 4.318-2.907 6.281-3.143 2.199-.314 3.69-1.178 5.575-3.22 3.612-4.164 7.459-3.535 4.24.707-1.649 2.278-1.414 4.163.863 6.127l1.963 1.728-2.198 3.142c-1.178 1.807-3.769 4.714-5.732 6.442-3.298 2.985-4.24 3.378-10.992 4.556-7.381 1.257-11.228 2.985-14.605 6.756-.706.786-3.768 2.2-6.674 3.064-2.983.864-7.537 3.063-10.128 4.87-4.319 2.985-4.868 3.221-5.575 1.964-1.256-2.199-2.434-1.65-7.695 3.614-4.24 4.32-4.946 5.499-5.261 8.405-.157 1.886-.392 3.457-.471 3.457-.157.078-2.355 1.806-5.025 3.849-4.632 3.535-4.946 4.006-8.48 12.883-5.653 13.904-7.694 17.832-9.5 17.989-.864.079-4.711-1.099-8.637-2.67z" fill="#F3F5F9"/><path d="M275.76 307.328c-4.947-2.042-6.517-3.456-10.914-9.583-4.476-6.285-7.852-15.633-9.501-26.474-1.256-7.855-1.57-8.877-3.062-9.034-1.178-.157-2.591.864-4.947 3.692-2.355 2.75-3.926 4.007-5.261 4.007-2.512 0-2.983-1.414-1.491-4.949 1.099-2.75 1.099-2.828-1.021-4.635-1.178-1.021-3.533-2.75-5.104-3.771-3.14-2.121-3.376-2.828-1.963-5.891.943-2.121 1.178-2.279 8.088-3.614 6.281-1.178 7.93-2.357 8.558-5.97 1.963-11.312 2.905-14.219 5.025-15.162 7.695-3.535 10.286-4.006 19.708-3.142 13.976 1.257 14.212 1.336 14.212 3.535 0 1.65-.393 1.964-2.356 1.964-1.335 0-2.591.471-2.826 1.1-.786 1.964 1.963 9.898 6.045 17.754 3.691 6.991 4.005 8.012 5.104 17.282.628 5.342 1.885 11.862 2.748 14.454 1.806 5.578 1.806 9.348.079 19.718l-1.335 7.855-4.711 1.257c-6.282 1.807-10.207 1.65-15.075-.393zM157.355 390.44c-2.355-1.492-3.847-1.885-5.889-1.571-2.512.393-3.14 0-7.223-4.085l-4.554-4.477-3.298 1.335a236.665 236.665 0 00-5.81 2.278c-2.042.786-2.906.786-5.104-.314-1.492-.628-5.339-1.65-8.558-2.199-4.711-.786-6.439-1.415-8.402-3.3l-2.512-2.435 5.182-5.813 5.182-5.735-.942-3.063c-.471-1.572-.864-3.85-.864-4.95 0-1.728.393-2.042 2.984-2.356 1.57-.157 4.004-.786 5.339-1.414 2.198-.864 2.67-.864 4.161.628 2.12 1.886 7.538 2.907 12.014 2.121 3.768-.628 5.26.864 5.339 5.342 0 2.907.078 2.985 3.14 2.985h3.141l3.219 6.835c4.083 8.876 4.319 9.976 2.67 12.569-1.335 1.963-1.335 2.121.157 3.299.942.707 2.198 1.571 2.984 2.042.785.472 1.256 1.493 1.099 2.514l-.314 1.65-3.141-1.886z" fill="#F3F5F9"/><path d="M88.81 389.498c-3.455-6.756-9.501-22.939-9.03-24.274.707-2.043 10.443-18.461 11.856-20.111.628-.707 2.277-1.335 3.612-1.335 3.298 0 5.261-1.493 8.244-6.206 2.434-3.771 5.339-5.577 8.716-5.577 1.884 0 4.554 7.148 5.182 13.904l.549 5.735h-1.963c-2.905 0-4.004 1.806-3.533 5.656.236 1.885.628 4.085.942 4.949.314 1.099-.549 2.592-3.14 5.499-9.579 10.369-10.443 11.626-11.307 16.418-.47 2.592-.864 4.792-.864 4.949 0 .628-5.182 3.378-6.36 3.378-.706 0-2.04-1.336-2.905-2.985zm48.287-48.705c-.549-.864-1.413-6.442-1.099-6.442.236 0 1.649.55 3.298 1.179 3.69 1.571 5.417 1.021 4.946-1.571-.235-1.1-.078-1.964.314-1.964.55 0 3.455 1.571 5.261 2.906.157.079-.314 1.65-1.099 3.378l-1.413 3.142h-4.947c-2.67 0-5.104-.314-5.261-.628zm97.676 98.51c-4.868-1.571-5.339-1.964-9.265-7.542-3.376-4.792-4.946-6.284-8.637-8.169-4.318-2.2-4.789-2.279-12.013-1.729-5.26.393-8.166.943-10.05 2.043-1.492.864-2.905 1.414-3.062 1.257-.236-.236-.864-3.771-1.414-8.013-.863-5.813-1.491-8.013-2.826-9.505-1.963-2.043-3.141-2.278-5.496-.864-1.414.864-1.885.707-4.005-2.043-1.335-1.65-3.298-3.299-4.318-3.692-1.414-.55-1.806-1.257-1.806-3.299 0-3.457-1.178-4.478-5.261-4.478-3.298 0-3.376-.079-3.376-2.592 0-1.886-.628-3.064-2.513-4.635-2.512-2.043-2.591-2.121-1.02-3.771.785-.943 3.611-2.985 6.281-4.478 6.517-3.927 7.459-4.87 7.459-7.384 0-1.65 1.099-3.142 4.947-6.52 2.748-2.357 5.889-4.713 6.909-5.106 1.257-.471 4.947-.471 9.344-.157 7.145.628 7.459.707 9.972 3.456l2.591 2.828-2.356 6.363c-1.256 3.535-2.355 6.835-2.355 7.306 0 1.335 11.934 13.904 13.191 13.904.549 0 1.334.864 1.727 1.886.471 1.335 2.67 2.906 6.831 5.027 4.004 2.043 6.988 4.164 8.637 6.206l2.513 3.142 4.004-.785c4.475-.864 5.496-.314 5.496 3.142 0 2.121 2.67 2.985 6.988 2.278 2.827-.471 3.141-.314 4.005 1.964.549 1.257 1.884 2.907 2.905 3.614 1.806 1.178 2.277 3.535 1.335 6.049-.236.628-2.592 2.121-5.104 3.299-4.79 2.121-5.653 3.692-3.298 5.42 1.099.786 1.256 1.414.55 3.221-.707 2.042-1.021 2.2-4.083 2.042-2.042-.157-3.926.158-5.025.943-2.12 1.493-2.12 1.493-8.402-.628zm792.637 176.122c-4.4-4.007-12.25-11.155-17.43-15.947-17.748-16.34-17.119-15.947-22.38-16.497-3.847-.471-5.104-.314-6.831.785-1.728 1.179-3.141 1.257-9.344.786-7.93-.55-9.736 0-17.431 5.263-4.083 2.828-5.496 2.593-10.364-1.728l-3.533-3.064 1.413-2.356c1.884-3.143 1.727-4.242-.864-6.206-1.648-1.179-2.591-2.985-3.611-6.599-2.513-9.112-2.906-10.055-4.319-10.055-.785 0-2.198.864-3.219 1.964-1.021 1.021-2.042 1.964-2.356 1.964-.235 0-1.57-1.65-2.983-3.535-1.335-1.964-2.905-3.535-3.455-3.535-.471 0-1.885.942-3.141 2.042-2.748 2.671-4.632 1.571-4.004-2.357.392-2.356.157-2.67-3.612-4.713-2.198-1.178-4.004-2.592-4.004-3.064 0-.549 1.806-2.199 4.004-3.692 3.769-2.514 4.161-2.592 7.224-1.885 5.103 1.335 15.154.628 21.042-1.414l5.261-1.728 3.847 2.514c4.711 2.985 5.811 3.063 11.7.471 3.611-1.65 5.417-1.964 8.244-1.65 3.455.393 4.083.157 10.207-3.928 4.005-2.671 8.794-5.106 12.013-6.048 3.455-1.1 5.732-2.279 6.282-3.221 3.062-5.656 4.714-7.463 7.304-7.934 1.65-.315 5.34-2.671 9.34-5.814 8.72-6.912 10.05-7.541 12.72-6.598 3.06 1.021 3.22 4.87.32 12.176-2.12 5.42-4.87 18.225-4.87 22.938 0 2.514.47 2.514 6.91.55 2.74-.864 5.41-1.571 5.96-1.571.55 0 1.81 1.414 2.75 3.142s2.12 3.142 2.59 3.142c.47 0 4.16-2.513 8.25-5.498 6.75-5.185 7.3-5.735 7.3-8.249 0-2.435.24-2.749 1.88-2.749 1.34 0 3.07-1.257 5.5-4.085l3.53-4.007 2.44 5.421c1.41 2.985 2.98 6.52 3.61 7.855l1.02 2.514-6.2 2.514c-3.46 1.335-6.28 2.907-6.28 3.378 0 .471 1.1 1.964 2.43 3.378l2.43 2.514-1.96 1.728c-1.26 1.1-2.2 2.985-2.51 4.949-.32 1.807-1.65 5.42-2.91 8.091-2.2 4.635-2.35 5.342-2.04 13.355.24 7.777.47 8.876 2.44 11.862 2.04 3.22 2.27 3.378 6.28 3.378 3.92 0 4.32.157 8.24 4.163 2.28 2.278 4.08 4.635 4.08 5.185 0 .628-.7 3.849-1.64 7.227-1.26 4.635-2.05 6.284-3.22 6.599-.87.314-4.87.078-8.8-.472-6.75-.864-7.38-.864-11.07.707-3.61 1.571-14.13 4.871-15.54 4.871-.32 0-4.17-3.3-8.64-7.227zm60.61 15.239c-.7-.314-3.14-2.828-5.49-5.577-7.54-8.877-7.07-7.856-5.89-12.962.63-2.435 1.18-4.635 1.33-4.714 1.26-1.021 16.41-9.112 17.12-9.112.47 0 2.12.55 3.61 1.335 2.75 1.257 3.14 1.257 9.9-.471 3.84-1.021 7.22-1.728 7.45-1.493.16.236-1.8 3.614-4.39 7.62-2.59 3.928-5.73 9.191-6.99 11.627-2.59 5.184-10.52 13.276-13.43 13.904-1.1.157-2.51.157-3.22-.157zm141.57-266.54c-28.74-14.533-37.84-19.796-37.84-21.917 0-.236 2.66-3.378 5.96-6.913l6.05-6.52-1.02-4.713c-.55-2.514-1.42-5.264-1.97-5.971-.86-1.178-1.17-1.178-4-.078-2.9 1.178-3.3 1.178-5.26-.079-1.18-.707-2.12-1.492-2.12-1.807 0-.314 2.67-2.906 5.89-5.813 6.04-5.42 6.67-6.677 4.79-9.426-3.06-4.4-9.11-16.34-8.48-16.733 7.54-5.106 11.23-8.563 12.4-11.626.71-1.886 1.5-3.378 1.65-3.378.16 0 2.04.864 4.16 1.964 2.91 1.414 5.11 1.964 8.64 1.964 5.5 0 6.6 1.178 4.48 4.87-1.73 2.985-1.65 4.007.31 10.055 1.96 5.892 3.14 7.463 6.05 8.17 9.5 2.278 10.2 2.671 10.75 5.97.47 2.75.24 3.457-1.88 5.892-2.12 2.435-2.43 3.378-2.43 7.306 0 2.435.23 5.185.47 6.049.23.864 3.22 3.378 6.67 5.656 6.91 4.634 6.6 3.849 6.28 14.454l-.23 6.834 3.06 3.378c6.28 6.835 9.58 12.726 11.23 19.875 1.88 8.17 1.96 9.112.31 9.112-.63 0-15.94-7.462-33.92-16.575z" fill="#F3F5F9"/><path d="M1185.39 335.687c-4.17-4.635-4.48-5.342-6.05-12.333-1.65-7.07-1.88-7.62-5.34-10.684l-3.61-3.221 1.33-5.656c1.65-6.756 2.28-4.32-8.4-34.643l-7.93-22.389-.55-10.055c-.7-11.705-1.02-12.49-8.4-17.753-2.83-1.964-5.97-4.321-7.07-5.185l-1.8-1.571 1.96-3.771c2.83-5.263 2.2-6.834-2.75-6.834h-3.84l-3.62 6.677c-2.59 4.792-3.53 7.227-3.22 8.484.32.943 2.83 3.614 5.58 5.892 3.14 2.514 5.1 4.792 5.1 5.656 0 .864-.23 1.571-.55 1.571-.31 0-3.06-2.435-6.12-5.42-5.97-5.814-9.11-7.463-12.01-6.128-2.2.943-2.59.55-4.87-5.184-1.57-4.164-1.96-4.478-4.24-4.478-3.3-.079-3.77-.471-6.75-5.735-2.2-4.006-2.83-4.556-5.58-5.027-2.67-.393-3.06-.707-3.06-2.593 0-2.592 2.51-6.048 8.87-12.097 2.67-2.593 5.97-6.52 7.22-8.641 1.97-3.3 2.75-4.007 4.95-4.242 1.96-.158 2.98-.786 3.93-2.514 1.1-1.886 2.27-2.435 6.59-3.457 7.85-1.807 7.78-1.807 11.15 4.321 1.65 3.064 3.46 5.734 4.09 5.97.62.236 2.82-1.021 4.86-2.749 3.61-2.985 4.16-3.221 9.58-3.378l5.73-.236 1.42-5.106c.78-2.828 1.49-6.206 1.49-7.541 0-1.336.86-4.635 1.96-7.385 1.1-2.749 1.97-6.206 1.97-7.62v-2.592h4.55c2.43 0 4.87.236 5.34.55.47.314 3.22 8.877 6.12 19.089 3.46 12.255 5.97 19.718 7.54 22.231 1.34 2.043 2.36 4.085 2.36 4.4 0 .314-3.14 1.571-6.99 2.67-3.85 1.1-7.3 2.514-7.7 2.986-.47.549-1.17 4.949-1.65 9.819-.7 7.384-.7 9.191.24 11.548 1.81 4.32 1.49 4.635-2.43 2.514-6.91-3.85-7.7-2.514-3.85 6.52 1.49 3.535 2.75 6.834 2.75 7.227 0 .393-1.42 2.514-3.14 4.713-1.73 2.2-3.14 4.242-3.14 4.556 0 1.807 19.15 31.187 20.96 32.13.78.393 3.22.471 5.34.236l3.92-.472-.15-2.906c-.16-2.357.15-3.064 1.41-3.457 1.65-.471 3.46.629 4.71 2.907.47.942.24 2.592-.86 5.577-1.34 3.535-2.44 4.714-7.46 8.406-3.22 2.356-5.89 4.713-5.89 5.263 0 .471 2.36 5.106 5.18 10.212l5.18 9.27-2.19 1.885c-6.05 5.185-10.53 9.505-10.53 10.291 0 .471 1.42 1.728 3.22 2.907 3.14 2.121 3.14 2.121 5.97.785 3.3-1.571 3.61-1.335 5.03 4.399l.86 3.771-5.73 6.049c-3.14 3.378-5.89 6.206-6.13 6.284-.23.079-2.43-2.042-4.86-4.713zm-55.99 286.1c-.94-2.278-1.18-4.32-.78-7.07.47-3.613.31-4.085-3.54-10.055-2.19-3.456-4.31-7.227-4.79-8.327-.39-1.1-1.02-1.964-1.33-1.964-.31 0-3.93 1.022-8.01 2.357-8.71 2.749-8.71 2.749-12.72.707l-3.14-1.571-7.69 4.32c-4.32 2.436-8.01 4.4-8.25 4.4-.23 0-.47-.55-.47-1.257 0-.707-2.28-3.535-5.1-6.285-4.87-4.792-5.34-5.027-8.95-5.027-3.46 0-3.85-.236-5.34-2.986-1.18-2.121-1.73-4.791-1.97-9.976-.31-6.677-.23-7.384 2.28-12.805 1.41-3.142 2.59-6.598 2.59-7.698 0-1.021 1.1-3.064 2.44-4.556 1.96-2.279 2.19-3.064 1.57-4.321-.48-.864-1.5-1.964-2.28-2.357-1.81-1.099-.79-1.964 4.95-4.32 2.59-1.021 5.02-2.357 5.33-2.985.71-1.179-7.45-19.482-8.71-19.482-.39 0-2.36 1.885-4.4 4.242-3.06 3.535-4.16 4.32-6.59 4.556-2.91.236-2.91.236-2.67 3.456.31 3.221.23 3.3-5.66 7.699-3.29 2.435-6.28 4.399-6.67 4.399-.39 0-1.49-1.335-2.36-2.906-1.88-3.143-2.67-3.143-10.44-.708-3.45 1.1-3.77 1.022-3.77-.157 0-3.692 2.59-15.397 4.87-21.603 2.04-5.813 2.36-7.462 1.73-9.819-.63-2.514-1.18-3.064-4.01-4.085l-3.37-1.178-5.89 4.163c-3.22 2.2-6.2 4.085-6.6 4.085-.86 0-3.22-7.698-3.22-10.605 0-1.178.4-2.749.79-3.614 1.57-2.906.08-5.341-5.26-8.405l-5.027-2.907.55-3.142c.864-5.185.864-5.342-2.277-7.384-2.513-1.728-2.827-2.121-1.806-3.064.864-.942 1.021-3.299.707-12.254l-.393-11.077 7.776-4.006 7.69-3.928-.16-4.713-.15-4.792 4.87-1.493 4.86-1.492.4-5.892.39-5.892 2.75-.314c5.42-.471 5.34-.628-4.16-12.883-5.03-6.442-6.05-8.249-6.76-12.098-1.1-5.813-1.17-5.263 1.57-8.484 2.75-3.064 2.67-3.928-.86-9.819-1.18-2.043-2.59-4.949-3.22-6.599-.94-2.514-.86-2.985.31-4.242 1.1-1.021 2.52-1.336 6.29-1.1 2.67.079 6.43-.314 8.4-.864 2.98-.943 3.85-1.65 5.49-4.792l1.97-3.613h9.18l-.55-4.164-.47-4.085 3.85-2.985c3.85-2.907 4-2.985 7.62-2.121 5.65 1.257 9.5 3.614 12.09 7.306l2.35 3.456-2.27 3.142-2.28 3.064 1.96 2.907c2.2 3.22 3.77 3.535 6.6 1.335 1.73-1.335 3.22-1.571 11.62-1.571 7.77 0 9.58.157 9.58 1.1 0 .628-1.73 1.649-4.09 2.435-5.41 1.807-6.2 2.514-5.96 5.342.23 2.199-.08 2.514-3.14 3.613-1.89.707-3.85 1.964-4.32 2.828-.47.865-4.08 5.421-8.01 10.213a785.301 785.301 0 00-8.17 9.976c-.86 1.179-.78 2.043.79 5.735 1.96 4.713 1.88 5.734-1.26 13.826l-1.41 3.613 2.9 4.714 2.99 4.792-2.44 9.741-2.43 9.819 1.26 10.998 1.25 11.076-3.61 16.968c-2.04 9.348-3.45 17.361-3.22 17.754.32.393 2.04.786 3.85.786 2.75 0 4.47-.708 8.56-3.536 2.9-1.963 5.57-3.535 5.96-3.535.48 0 2.28 1.729 4.17 3.928 3.92 4.557 6.36 5.185 6.28 1.571 0-.235-.24-1.178-.47-2.121-.4-1.335-.08-1.964 1.17-2.671 2.12-1.099 3.22-.078 4.56 4.557.63 2.356 1.33 3.378 2.35 3.378 1.57 0 8.72-7.228 8.72-8.72 0-.55-1.1-2.907-2.51-5.263l-2.44-4.321 3.3-3.142c3.14-2.907 3.53-3.064 6.99-2.592 2.04.235 6.99.707 10.99.942 7.77.472 7.38.236 8.17 5.342.15.943 2.67 2.828 6.91 5.185l6.67 3.692 1.33 6.206c2.05 9.819 6.68 18.932 14.06 27.494 3.53 4.085 8.87 11.548 11.86 16.654l5.57 9.113.55 10.998c.31 6.127.24 11.39-.08 11.783-.86.943-3.06-.943-3.06-2.75 0-1.335-7.93-7.777-9.5-7.777-1.26 0-8.56 10.605-8.32 12.098.07.943 1.49 2.357 3.22 3.299 2.43 1.336 3.53 1.571 5.49 1.022 1.34-.393 2.51-.707 2.67-.707.08 0 .16 2.121.16 4.713v4.713h-2.44c-1.25 0-3.06.315-3.92.786-1.49.864-1.49 1.021.94 5.263l2.51 4.399-3.22 2.985c-3.22 2.986-3.29 3.064-9.5 3.064h-6.28l-2.83 4.321c-2.9 4.634-3.21 5.813-1.88 7.227.94.864.39 2.592-.78 2.592-.4 0-1.26-1.492-1.97-3.221z" fill="#F3F5F9"/><path d="M1064.39 358.311c-.71-1.65-.55-2.357 1.33-4.792l2.12-2.828-2.82-4.242c-2.99-4.478-7.54-7.463-13.04-8.563-1.49-.314-3.29-.707-4-.864-.71-.236-2.91.864-4.87 2.435-2.04 1.571-4.08 2.593-4.47 2.357-.4-.314-.79-1.728-.79-3.299 0-2.357-.78-3.614-5.42-8.406-6.91-7.148-9.5-12.176-9.5-18.46v-4.635l5.19-2.671c2.9-1.414 5.41-3.064 5.65-3.614.16-.628-1.1-2.592-2.91-4.477l-3.29-3.3 4.55-4.085c3.3-2.906 5.02-3.928 6.12-3.613.87.235 2.52.628 3.69.864l2.12.471-.47-4.006c-.39-3.771-.31-4.164 2.67-7.699 1.73-2.121 3.38-4.242 3.69-4.792.32-.55-1.33-2.906-4.24-6.127l-4.87-5.185.55-3.77c.48-3.692.48-3.771-2.35-5.499-2.28-1.414-2.75-2.121-2.36-3.457 1.42-4.556 1.34-4.949-1.1-6.756-1.33-.942-2.43-1.963-2.43-2.356 0-.314 2.36-2.121 5.18-4.007 2.83-1.885 5.5-4.163 5.89-5.184.47-1.336 1.26-1.807 2.98-1.807 2.83 0 2.83 0 4.24-6.206 1.1-4.556 1.03-4.949-.39-6.756-1.41-1.885-1.41-1.885.08-2.749 1.1-.55 1.73-.472 2.59.55.55.707 2.36 2.199 4.01 3.378l2.9 2.199 7.15-2.671c4.39-1.649 8.32-3.692 10.13-5.342 2.27-2.042 3.84-2.749 7.22-3.22 2.75-.315 5.34-1.257 6.99-2.436 4.16-3.063 5.81-2.592 9.18 2.828 2.52 4.085 3.22 4.714 5.34 4.714 2.91 0 3.46.628 5.34 5.577.71 1.964 1.73 4.164 2.28 4.949 1.02 1.336 1.18 1.336 3.61.079 2.36-1.257 2.67-1.179 5.03.314 1.41.864 4.63 3.692 7.22 6.285 2.59 2.592 5.1 4.791 5.57 4.791.71 0 5.03 18.618 5.03 21.525 0 .707-3.69.471-6.05-.393-1.17-.471-3.69-2.592-5.57-4.713-1.89-2.121-4.08-3.85-4.95-3.85-1.02 0-3.37 2.828-7.61 9.191-3.38 5.107-6.36 9.82-6.6 10.527-.55 1.335.31 4.556 6.83 25.766 4.24 13.748 6.75 19.168 10.21 21.996 1.1.943 1.57.864 3.53-.628 2.51-1.807 3.93-2.122 3.93-.865 0 .472-1.73 2.828-3.77 5.342-3.3 4.007-4.01 5.578-5.97 13.119-2.67 10.134-3.22 11.391-5.02 11.391-2.75-.079-3.22-1.022-2.28-4.557 1.02-3.692.31-4.87-2.98-4.87-2.05 0-19.24 10.055-19.79 11.626-.31.629.16 2.985.94 5.263.79 2.279 1.18 4.478.87 4.95-.24.471-1.73 1.178-3.22 1.728-1.5.471-2.75 1.178-2.75 1.571 0 .471-4.24.785-9.58.785-8.32 0-9.97.236-12.01 1.572-2.99 1.963-3.38 1.963-4.48-.393z" fill="#F3F5F9"/><path d="M1056.46 210.861c-3.46-2.906-3.93-3.142-5.81-2.278-1.89.864-2.28.629-5.1-2.042l-2.99-2.985-6.28.235-6.36.236-3.06-3.378c-2.99-3.221-3.14-3.692-3.14-8.405 0-4.557.23-5.264 2.75-8.327 2.04-2.436 2.74-4.085 2.74-6.206 0-2.043.71-3.771 2.52-5.971 2.43-3.063 2.43-3.063.94-4.713-2.83-3.142-8.56-6.756-13.66-8.563-2.83-1.021-5.42-2.121-5.81-2.513-1.1-.943 1.25-5.421 7.69-14.376 6.75-9.27 7.54-10.684 7.54-13.276 0-1.1.47-2.278.94-2.592.55-.315 4.87-.786 9.58-1.1 5.42-.393 8.87-.943 9.5-1.65 1.34-1.414 2.04-11.312.86-12.726-.55-.785-2.82-1.257-6.75-1.414-4.71-.236-6.36-.628-8.4-2.199-1.41-1.022-2.59-2.436-2.59-2.986 0-1.099 8.64-16.89 13.58-24.745 2.44-3.927 11.55-12.412 22.62-20.974 10.91-8.484 37.92-26.71 39.57-26.71.86 0 3.53.708 5.89 1.572 2.35.864 5.02 1.571 5.89 1.492 2.12 0 10.13-5.656 10.52-7.384.39-1.964-1.02-2.592-7.54-3.22-5.81-.55-6.99-1.415-4.55-3.457.62-.55 1.88-3.3 2.74-6.206 1.57-5.185 1.57-5.263 8.01-9.427 3.46-2.356 6.91-4.399 7.62-4.556.71-.157 2.51.786 4 2.043l2.75 2.278-1.41 5.342c-2.36 9.19-2.75 8.798 11.62 11.312 5.1.864 9.81 1.963 10.36 2.435 2.59 2.2 0 7.777-3.61 7.777-2.75 0-3.77.864-7.93 6.52-3.14 4.32-3.45 4.635-5.97 4.242-2.19-.393-3.22 0-6.51 2.67-4.09 3.222-4.4 3.772-5.18 8.956-1.03 6.285-.55 5.892-7.7 5.342-7.93-.55-8.72 0-7.93 5.97.31 2.121.94 4.478 1.41 5.106.55.786 3.77 1.65 8.64 2.357 4.24.629 8.09 1.414 8.4 1.807.39.393 1.41 3.456 2.28 6.913l1.57 6.206-3.46 5.106c-4.31 6.206-3.92 7.148 2.99 7.148 4.24 0 5.34-.392 8.87-2.749 4.55-3.064 5.03-3.142 11.23-1.885 3.85.785 4.87.707 9.11-.786 6.28-2.2 8.24-2.12 10.83.55l2.2 2.278-5.89 6.285-5.89 6.284 3.06 12.412c1.73 6.834 2.99 12.883 2.75 13.433-.31.786-2.04 1.1-5.96 1.1h-5.5v3.535c0 2.042-.86 5.577-1.96 8.248-1.1 2.514-1.97 5.813-1.97 7.227 0 1.414-.47 4.321-1.02 6.521l-1.02 3.927-5.49.393c-4.87.314-5.89.707-8.48 2.907-1.57 1.414-3.3 2.592-3.85 2.592-.47-.079-2.28-2.514-3.93-5.499-3.3-6.284-3.45-6.284-11.85-4.32-6.83 1.571-7.23 1.728-8.17 3.849-.55 1.335-1.73 2.042-3.85 2.356-2.67.472-3.29 1.1-6.04 5.656-1.65 2.828-4.95 6.756-7.23 8.72-6.43 5.499-8.16 8.406-8.16 13.747 0 5.342-1.34 6.599-7.93 7.385-3.3.393-4.79 1.021-7.3 3.378-2.75 2.435-13.04 7.07-15.79 7.07-.39 0-2.51-1.493-4.55-3.3zM1028.19 47.7c-2.59-2.828-2.9-3.613-2.9-7.462 0-3.693.23-4.32 1.8-4.792.95-.314 2.67-1.179 3.85-2.043 1.1-.785 2.44-1.414 2.91-1.414 2.04 0 .15 17.911-1.97 18.618-.47.157-2.12-1.178-3.69-2.907zm105.69 667.019c-.71-.471-.16-2.199 2.12-6.52 1.73-3.221 3.14-6.284 3.14-6.834 0-.55-2.28-4.635-5.1-9.113-3.54-5.734-6.36-9.112-9.43-11.547-2.35-1.886-4.32-4.007-4.32-4.714 0-1.571 2.36-8.72 3.3-9.898.39-.471 3.06-1.257 5.97-1.807 6.28-1.021 9.58-2.199 9.58-3.456 0-.471-.47-2.278-1.1-4.007-.63-1.728-1.34-6.912-1.65-11.39-.39-6.206-1.02-9.348-2.43-12.491-1.97-4.399-2.36-6.363-1.26-6.363.39 0 1.26-.471 2.04-1.099 1.41-.943 1.41-1.179.16-2.985-1.18-1.886-1.18-2.121.78-5.656l2.05-3.614h12.09l4.32-3.849 4.24-3.85-2.12-4.399-2.12-4.32 2.9-.236c2.28-.236 2.98-.628 3.38-2.2.86-3.063.78-10.84-.08-11.39-.39-.314-2.04-.157-3.61.314-2.2.629-3.38.471-5.11-.393-1.25-.628-2.27-1.414-2.27-1.806 0-.315 1.41-2.671 3.22-5.107l3.21-4.477 3.62 2.592c2.59 1.885 3.76 3.299 3.92 4.792.24 1.571.94 2.435 2.83 3.221 2.12.864 2.67 1.571 3.06 4.085.31 1.649 1.26 6.048 2.12 9.741 1.57 6.048 1.73 9.505 2.12 39.278l.39 32.6-5.02 10.998-5.03 10.919-9.65 2.907c-5.27 1.65-10.05 3.299-10.6 3.771-.63.471-1.18 3.22-1.42 6.284-.23 2.985-1.1 6.992-1.88 9.034-1.18 2.907-1.89 3.614-3.46 3.614-1.1-.079-2.35-.315-2.9-.629z" fill="#F3F5F9"/><path d="M897.304 543.153c-5.496-4.163-6.045-4.949-8.558-11.704-1.492-3.771-4.318-7.856-14.918-21.132l-2.12-2.671-4.947 2.121-4.947 2.121-4.946-4.792-5.025-4.792-5.732.472c-3.141.314-6.282.707-6.988.942-.628.157-3.219 4.478-5.653 9.506-3.377 6.991-4.633 10.448-4.947 14.14-.393 3.378-1.021 5.342-2.041 6.284-1.492 1.336-1.649 1.257-3.691-1.335-1.492-1.807-2.591-2.514-3.455-2.121-2.434.864-13.505 8.562-16.331 11.312l-2.827 2.671-2.434-2.121c-2.984-2.436-3.062-3.064-1.256-20.896.706-6.913 1.021-13.041.864-13.59-.236-.55-1.571-1.257-2.906-1.572-1.727-.392-3.297-1.806-5.574-4.87-2.827-3.849-3.141-4.713-2.748-7.384.235-1.571.706-3.535.942-4.164.314-.864-.55-1.885-3.141-3.456-2.198-1.336-3.533-2.75-3.612-3.614 0-1.649-2.983-7.148-6.046-11.312-1.334-1.885-2.748-2.671-5.025-3.063-2.905-.472-3.062-.55-1.806-1.886 1.021-1.178 1.1-1.885.393-4.085-1.649-4.87-2.513-5.184-14.212-5.499l-10.6-.157-.235-3.77c-.157-2.436.314-4.871 1.413-7.306.864-2.043 1.57-4.399 1.57-5.185 0-.864-1.648-3.849-3.611-6.599-2.905-4.084-3.691-5.97-4.24-10.055-.864-5.734-1.414-7.541-2.434-7.541-1.806 0-1.414-2.514.942-5.735l2.512-3.613-2.905-14.769-2.826-14.768-4.005-4.007-4.004-4.085 4.475-4.477c4.24-4.242 4.711-4.478 7.538-4.164 4.162.629 5.025-.785 6.124-9.584.55-4.163 1.178-8.091 1.414-8.876.157-.786 2.669-4.007 5.417-7.07 2.749-3.143 5.026-6.285 5.026-6.992 0-2.199-12.092-19.717-15.704-22.86-3.219-2.749-3.533-3.378-5.104-10.605-.942-4.163-1.57-8.17-1.413-8.798.314-1.257 5.104-4.713 6.517-4.713.393 0 1.492 1.414 2.356 3.142 2.12 4.163 3.925 4.085 6.124-.393 2.12-4.399 3.769-5.42 11.856-7.463 6.596-1.571 7.93-1.571 7.93.315 0 1.649 4.633 5.184 6.753 5.184 1.021 0 6.046-1.728 11.149-3.849 5.025-2.121 9.972-4.085 10.914-4.321 2.591-.864 2.748-2.513.628-7.305-2.277-5.028-2.355-6.442-.863-8.563.942-1.257 1.963-1.414 7.066-1.257 5.732.236 6.125.157 8.794-2.199 1.492-1.257 3.062-2.357 3.377-2.357.392 0 4.318 3.221 8.794 7.227 6.202 5.656 7.694 7.306 6.516 7.541-1.648.315-3.454 1.572-3.454 2.514 0 .315 2.748 2.593 6.046 5.106 5.339 4.007 7.459 5.028 16.645 8.013 14.055 4.478 14.133 4.399 10.051-7.855-1.571-4.871-2.906-9.506-2.906-10.213 0-1.1 1.021-1.257 7.303-1.1l7.223.158 1.571-4.557c.863-2.435 2.041-4.634 2.669-4.87.628-.236 3.298-.707 5.889-.943 6.203-.628 7.695-1.414 7.145-3.613-.393-1.336.393-2.514 3.141-5.185 1.963-1.885 3.533-3.692 3.533-4.085 0-.393-2.434-2.592-5.496-4.792-5.653-4.085-5.968-4.556-6.517-11.076-.393-4.399-.079-4.871 6.36-8.484 14.133-8.013 23.32-13.748 28.031-17.675 4.789-3.928 5.653-4.321 8.558-4.085 3.455.235 3.376.078 2.277 5.42-.236 1.257 0 2.2.707 2.435 1.099.393 26.381-4.949 27.952-5.97.549-.314 3.926-6.52 7.616-13.747l6.674-13.198 6.282-3.299c6.202-3.221 6.359-3.221 10.756-2.435 3.377.628 4.947 1.414 6.282 2.985.942 1.178 1.806 2.435 1.806 2.749 0 .236.706.707 1.57 1.022 2.358.707 10.838-5.342 12.248-8.799 1.34-3.063 1.18-3.063 9.19.157 4.71 1.886 10.75 6.206 10.75 7.542 0 .471-.7 1.728-1.57 2.828-.86 1.1-1.57 3.063-1.57 4.32 0 2.75-1.02 4.792-4 8.327-2.04 2.278-2.28 3.064-2.28 8.17 0 4.792.32 6.049 1.57 7.149.87.785 1.73 2.042 1.97 2.828.78 2.514 6.04 4.163 11.62 3.535l5.02-.55 4.32 4.792 4.4 4.87-.95 4.085c-.86 3.771-1.09 4.085-3.61 4.478-2.04.314-2.75.864-3.14 2.278-.31 1.335-2.43 3.221-6.44 5.892-3.37 2.199-6.04 4.477-6.04 5.184-.08.629 1.18 1.964 2.75 2.985 2.27 1.493 2.74 2.121 2.27 3.535-1.49 4.792-1.41 5.107 1.49 6.913 2.75 1.807 2.91 1.964 2.44 5.421-.47 3.535-.39 3.692 3.85 8.248 2.43 2.593 4.39 5.106 4.39 5.578 0 .471-1.41 2.513-3.22 4.556-2.74 3.064-3.14 4.006-2.9 6.441.31 2.75.31 2.75-2.28 2.279-2.43-.472-3.14-.079-8.09 4.32-3.06 2.671-5.49 5.263-5.49 5.813 0 .472 1.25 2.121 2.75 3.614 1.57 1.492 2.67 2.985 2.51 3.378-.08.314-2.28 1.807-4.87 3.142l-4.71 2.514-.24 5.106c-.31 7.227 2.75 13.669 9.58 20.189l4.95 4.792 1.1 6.52c1.57 9.348 1.73 8.955-2.75 8.955-3.85 0-3.93 0-5.73 3.614-2.28 4.556-4.95 5.656-13.51 5.499-5.81-.157-6.04-.079-7.38 2.121-.7 1.335-1.33 2.828-1.33 3.456 0 .629 1.65 4.164 3.61 7.934l3.53 6.835-2.43 3.063-2.51 3.064 1.25 5.892c1.1 5.577 1.65 6.52 7.54 13.983 6.44 8.17 6.75 9.269 2.67 9.348-1.81 0-2.67 2.749-2.67 9.034v3.142l-4.87 1.571-4.94 1.571.23 4.714.24 4.713-7.697 4.085-7.695 4.006.314 11.391c.236 10.919.157 11.391-1.413 12.255-2.513 1.335-1.963 2.906 1.727 4.949 3.455 1.964 3.455 2.042 2.591 7.463l-.549 3.22 5.103 2.985c2.829 1.65 5.339 3.457 5.579 4.085.23.629 0 2.357-.55 3.85-.87 2.278-.71 3.613.78 9.426 1.96 7.699 1.81 8.249-3.37 9.584-2.988.707-3.773 1.414-6.286 5.42-2.67 4.321-3.062 4.714-7.302 5.657-2.905.707-6.753 2.67-11.307 5.734-6.517 4.399-7.145 4.635-10.364 4.085-2.67-.393-4.318-.079-7.93 1.493-5.732 2.592-6.517 2.513-11.385-.472l-4.005-2.514-6.517 2.121c-7.066 2.279-14.525 2.75-20.336 1.179-3.298-.864-3.455-.864-8.401 2.749-2.748 2.043-5.182 3.614-5.418 3.614-.235 0-2.748-1.807-5.575-4.007zM871.08 208.034c-.786-5.106-.629-5.735 2.355-6.913 3.141-1.336 9.815-1.257 10.286.157.314.864-6.988 6.913-10.521 8.798-1.414.786-1.649.55-2.12-2.042zm-31.015-13.983c-1.963-.629-3.847-1.414-4.24-1.886-.785-.785-2.826-10.055-2.905-13.197 0-1.728.157-1.807 6.91-1.571l6.831.314-.236-2.357c-.078-1.335-.235-3.299-.392-4.32-.079-1.493.235-1.964 1.413-1.964 1.099 0 1.727.785 2.198 2.985.707 2.828 1.178 3.299 6.125 5.499l5.339 2.514-3.926 5.106c-8.323 10.762-9.422 11.312-17.117 8.877zm17.588-19.718c-6.046-3.299-5.732-7.541.628-8.563 2.513-.392 2.748-.235 3.612 2.121.942 2.907 1.178 8.642.314 8.563-.392 0-2.355-.943-4.554-2.121zm13.113-11.312c-2.12-2.2-.864-3.457 7.302-7.541 10.6-5.264 10.992-5.264 10.286-.158-.315 2.121-.707 4.4-.943 4.949-.235.629-3.14 1.65-6.438 2.357-7.224 1.571-8.951 1.65-10.207.393zm341.004 407.234c-1.26-.707-2.99-1.807-3.85-2.514-2.98-2.592-10.6-13.276-14.21-19.953-3.22-5.97-4.08-7.07-6.99-8.327-2.75-1.178-5.97-4.635-17.43-18.618l-14.06-17.046-6.36-2.985c-7.93-3.614-11.69-6.992-16.72-14.848-4.24-6.598-4.79-8.876-2.67-11.154 1.02-1.179 1.18-2.122.55-5.185-.71-3.771-1.02-4.085-6.99-6.677-2.67-1.1-3.06-2.75-.94-4.007 1.18-.785 2.12-.078 6.44 4.399 2.75 2.907 7.85 7.777 11.38 10.841 4.01 3.535 6.76 6.677 7.54 8.484 1.02 2.671 2.51 3.692 15.47 10.841 24.42 13.59 31.56 17.675 32.27 18.382.47.393-1.33 1.65-4.48 3.064-2.9 1.335-5.49 2.906-5.73 3.535-.23.628 1.42 5.341 3.61 10.448 2.28 5.106 4.95 11.233 6.05 13.668 2.28 5.185 2.91 5.499 19.24 10.92 10.13 3.299 15.15 6.284 10.36 6.205-1.25 0-4.24-.314-6.59-.707-3.14-.471-4.64-.392-5.34.315-1.1 1.021-1.18.785 2.67 9.662 1.33 2.985.55 3.299-3.22 1.257zM588.103 745.356c-2.12-.236-3.063-1.021-4.868-3.928-1.335-1.964-2.513-4.242-2.749-4.949-.628-1.964-2.277-2.357-4.711-1.1-2.198 1.179-8.715 1.414-12.17.472-2.041-.55-12.798-14.848-12.091-16.026.235-.314 1.256-.55 2.276-.55 1.571 0 2.12-.628 2.906-3.221.785-2.749.785-3.377-.236-3.927-4.318-2.514-4.24-2.593 2.67-4.871 6.438-2.121 6.752-2.357 9.893-6.834 3.455-4.949 4.004-5.185 8.872-4.007 3.455.786 4.083.236 4.947-4.242 1.021-5.891 1.099-5.97 8.166-4.399 3.376.786 6.517 1.65 6.988 1.964 1.256.707.235 2.907-2.356 5.185-2.198 1.807-2.277 2.199-2.041 7.384l.235 5.499 3.455 1.021c2.984.786 3.769.786 5.182-.157 1.649-1.021 1.806-.864 4.162 4.164 1.335 2.906 3.219 6.598 4.161 8.169l1.806 2.986-2.198 2.278-2.277 2.356 2.434 2.75c2.355 2.671 2.591 4.713.706 5.342-.549.235-3.925 1.021-7.537 1.885-5.811 1.335-6.831 1.807-8.951 4.399-1.335 1.65-2.748 2.907-3.22 2.828-.471-.078-2.041-.236-3.454-.471z" fill="#F3F5F9"/><path d="M522.776 650.225l-8.087 3.378c-5.811 2.356-10.6 3.77-16.882 4.713l-9.893 2.278c2.356 3.771 4.083 8.955 11.385 29.458 3.141 8.799 5.889 15.869 6.124 15.869.315 0 1.885-1.807 3.534-4.007 4.318-5.813 5.889-4.87 8.715 5.028l1.257 4.478 4.004.078c2.277.079 8.087.079 12.877-.078l8.715-.157 2.513 3.535c2.12 2.906 2.905 3.456 4.475 3.142 1.1-.236 2.277-1.1 2.827-1.964.942-1.807.628-2.042-4.083-4.713-2.12-1.179-2.356-1.65-1.57-2.593.549-.707 1.256-1.178 1.727-1.178.471 0 3.769-.943 7.459-2.043 6.36-1.963 6.517-2.042 10.129-7.07l3.612-5.106 4.24.393c4.083.55 4.161.628 4.632-1.571a76.467 76.467 0 011.649-5.499c.864-2.357 1.021-4.87.628-9.819l-.549-6.599-7.538-8.798c-4.161-4.871-7.93-8.877-8.401-8.877-.472 0-1.335.55-1.885 1.178-1.727 2.121-3.533 2.671-10.992 3.535l-7.302.786-3.926 4.32c-2.199 2.435-4.397 4.321-4.868 4.242-.472-.157-4.083-3.849-7.695-8.248l-6.831-8.091zm243.797 61.666l-7.067-1.728-2.434-6.913c-1.413-3.771-2.669-6.991-2.826-7.227-.629-.55-32.978-7.541-35.804-7.699-3.691-.235-5.104-2.356-4.633-6.755.314-2.436.942-3.928 2.277-4.871 2.12-1.65 1.963-1.492 5.81-5.97 3.534-4.085 5.968-4.242 6.596-.55.392 2.121 1.335 2.828 10.207 7.227 6.753 3.299 10.757 4.871 12.877 4.871 2.198 0 4.476.942 7.616 2.985 4.083 2.592 4.554 3.221 4.397 5.342-.157 2.121.079 2.356 2.591 2.592 1.806.157 3.298.864 4.476 2.278l1.727 2.121 3.612-1.807c4.554-2.278 5.889-3.692 5.889-6.127 0-1.336 1.649-3.849 5.025-7.62 2.748-3.064 5.418-6.913 5.889-8.406.785-2.356 6.831-9.898 16.645-20.581.864-.943 1.649-4.007 2.199-8.641 1.806-15.712 1.884-17.597.628-19.561-.628-1.021-2.198-4.949-3.376-8.72-2.199-6.834-2.199-6.912-.942-11.626 1.413-5.263 1.727-4.556-3.848-9.112-2.669-2.121-1.57-4.635 2.984-6.992 2.748-1.414 3.847-2.435 4.24-4.163.471-2.121.706-2.278 6.124-2.75 5.81-.471 7.616-1.571 7.616-4.556 0-1.65.786-1.728 4.947-.628 2.513.707 3.298.628 4.397-.393 1.884-1.65 2.827-1.493 3.847.785 1.021 2.2 1.1 2.2 7.695 1.1 4.005-.707 5.653-1.492 8.48-4.006 2.905-2.514 3.612-3.692 4.083-6.756.393-2.828 1.178-4.321 3.376-6.284 4.162-3.85 6.439-3.3 3.219.785-2.277 2.985-1.963 6.127 1.414 12.569 5.26 10.134 8.48 14.533 10.914 15.083 1.177.235 4.083 1.571 6.36 2.828 3.847 2.199 4.083 2.592 4.083 5.42 0 2.593-.315 3.142-2.356 4.007-2.748 1.099-7.302 6.284-13.427 15.239-2.355 3.378-4.632 6.756-5.182 7.463-1.649 2.2.55 8.091 3.534 9.427 4.397 1.964 4.004 4.949-1.728 11.783-2.355 2.907-5.261 5.185-8.872 7.07-4.947 2.593-5.339 3.064-5.968 6.049-.471 2.435-1.413 3.849-3.69 5.735-1.727 1.335-3.847 3.928-4.711 5.577-1.492 2.907-1.806 3.142-4.947 3.142-2.512 0-4.161.55-6.674 2.357-2.12 1.65-3.768 2.278-4.789 1.964-2.042-.628-7.145 1.885-7.145 3.614 0 .785.392 2.278.863 3.299.786 1.65.629 2.357-.785 4.321-2.434 3.456-2.12 5.341 1.178 7.07l2.827 1.414-2.748 1.885c-2.042 1.414-2.906 2.592-3.22 4.87-.549 3.457-1.02 3.535-9.343 1.65-4.24-.943-7.538-1.1-13.348-.785l-7.774.549-6.124 4.321c-3.612 2.514-6.909 4.242-7.93 4.242-1.021-.079-5.025-.864-8.951-1.807z" fill="#F3F5F9"/><path d="M825.147 710.398c-2.748-2.2-3.141-2.907-2.984-5.263.157-2.2.785-3.143 3.455-5.106 1.806-1.336 3.298-2.828 3.298-3.457.078-.55-1.335-1.571-3.062-2.357-3.612-1.492-3.769-2.199-1.492-5.184 1.492-1.886 1.649-2.436.863-5.028-.785-2.435-.706-2.985.472-3.849.785-.629 2.276-.864 3.611-.629 1.728.315 2.905-.078 5.34-1.963 2.12-1.729 4.239-2.593 7.145-2.986 3.611-.471 4.24-.785 5.26-3.063.707-1.414 2.827-4.085 4.868-6.049 2.434-2.357 3.769-4.321 4.083-6.285.471-2.513 1.021-3.063 5.418-5.027 4.004-1.885 5.653-3.3 9.422-8.013 4.24-5.342 4.554-6.049 4.319-9.348-.236-3.142-.55-3.692-2.749-4.713-3.611-1.493-4.946-5.735-2.748-8.17.864-.943 2.906-3.771 4.633-6.363 4.868-7.699 9.893-13.59 12.013-14.14 3.141-.864 3.926-1.964 3.926-5.656 0-2.671-.471-3.85-1.884-5.264-2.277-2.042-8.402-5.184-10.208-5.184-1.963 0-11.856-16.261-12.406-20.425-.235-1.728.158-1.964 4.947-2.828 9.265-1.728 12.17-4.163 11.307-9.584-1.021-6.284-1.1-6.363-3.926-6.913-3.612-.707-5.104-3.456-5.104-9.662 0-5.499.157-5.577 7.695-5.577h5.261l1.57 4.006c1.335 3.456 2.591 4.949 7.852 9.034 3.454 2.749 8.322 6.049 10.757 7.463 4.239 2.278 4.475 2.592 4.318 5.184-.157 2.357.236 2.907 2.748 4.399l2.905 1.65 1.885-1.728c1.02-.943 2.041-1.728 2.355-1.728.236 0 1.571 1.571 2.984 3.535 1.413 1.885 2.984 3.535 3.455 3.535.549 0 1.884-.786 3.062-1.65 1.178-.943 2.277-1.571 2.434-1.414.078.157.942 2.828 1.884 5.892.942 3.221 2.513 6.441 3.612 7.541l1.963 1.964-1.649 2.042c-.864 1.179-1.492 2.593-1.335 3.143.157.628 2.513 2.906 5.261 5.184l4.947 4.164-4.397 4.399c-3.22 3.299-4.868 5.813-6.282 9.741-2.277 5.892-2.12 7.306.942 8.013 1.178.314 3.691 2.278 5.575 4.399l3.455 3.928-2.12 4.713c-2.041 4.556-2.12 5.106-1.884 16.418.235 11.077.314 11.784 2.12 13.747 2.198 2.279 1.57 3.535-2.356 5.185-1.727.707-2.905 2.121-4.24 5.185-1.178 2.671-2.512 4.478-3.69 4.87-4.005 1.571-8.873 1.728-12.799.55-5.967-1.807-6.988-1.571-9.422 1.964s-2.826 3.614-8.794 1.885c-5.182-1.492-11.542-1.178-13.426.786-.707.707-3.062 4.321-5.261 8.091-3.769 6.52-4.397 7.149-13.819 14.062l-9.815 7.305-13.112 1.572c-17.745 2.199-18.53 2.199-22.456-.943zm64.306-31.58c5.575-1.885 8.637-3.692 14.133-8.248l2.748-2.278-2.041-2.2c-1.728-1.964-1.885-2.671-1.414-5.734.314-1.964.314-3.771 0-4.085-.235-.236-2.826-1.021-5.653-1.65-4.79-1.1-5.339-1.021-8.009.314-1.884.943-2.905 2.043-2.905 3.064 0 .864-.942 1.964-2.355 2.75-2.513 1.256-3.926 3.299-3.926 5.734 0 2.75-3.691 4.949-7.381 4.478-2.984-.393-3.376-.236-5.732 2.828-1.413 1.728-2.591 3.692-2.591 4.163 0 .864 6.517 1.886 17.824 2.671.863.079 4.24-.707 7.302-1.807z" fill="#F3F5F9"/><path d="M873.749 678.191c-3.69-.393-6.752-.865-6.909-1.022-.157-.078.706-1.414 1.884-2.906 2.042-2.593 2.277-2.671 4.554-1.728 2.12.864 2.67.785 5.339-1.022 2.199-1.492 2.984-2.513 2.984-4.085 0-2.356 1.099-3.927 4.161-5.813 1.178-.707 2.12-1.964 2.12-2.749 0-1.571 2.984-3.221 5.732-3.221.942 0 3.062.393 4.79.864l2.983.786-.392 3.692c-.314 3.064-.157 4.006 1.256 5.499 1.099 1.1 1.413 1.964.864 2.356-.471.315-2.356 1.807-4.319 3.378-3.455 2.828-13.897 7.07-16.802 6.835-.864 0-4.554-.393-8.245-.864zm-101.444 15.24c-.314-1.022-1.414-1.65-3.534-2.043-2.748-.471-3.062-.785-2.826-2.278.549-2.592-9.422-9.112-13.819-9.112-2.277 0-5.811-1.336-12.17-4.478-8.088-3.928-9.108-4.713-9.58-6.834-1.02-4.949-4.868-5.028-9.579-.158-3.376 3.457-3.455 3.536-5.339 2.279-1.57-1.022-2.355-1.1-3.926-.393-1.806.864-2.826.471-9.972-3.535-6.831-3.771-8.636-4.478-12.17-4.556-4.004 0-4.318-.236-7.616-3.928-1.884-2.2-3.455-4.164-3.533-4.478 0-.236 1.806-1.65 3.926-2.985 2.198-1.414 3.926-2.592 4.004-2.671 0-.079.628-3.849 1.413-8.327 1.257-7.227 1.257-8.641.393-11.312-1.256-3.456-1.649-2.671 5.496-11.076l3.062-3.614-2.512-6.442c-1.335-3.613-2.434-6.991-2.434-7.541 0-.471 1.02-2.985 2.355-5.577l2.356-4.635 4.475-.472c7.067-.785 7.695-1.021 8.873-3.142.628-1.1 1.335-1.964 1.649-1.807.314.079 2.041 2.122 3.847 4.4 2.827 3.613 3.533 4.085 5.732 3.927 2.512-.235 2.512-.314 2.591-4.634 0-4.085.392-4.949 6.046-13.591l6.046-9.112-1.178-2.907c-1.649-3.849-1.571-4.085 1.57-4.634 2.277-.393 3.455 0 7.616 2.592 4.868 3.064 10.286 4.949 12.249 4.32.471-.157.942-1.256.942-2.435 0-1.1.707-3.613 1.571-5.499 2.12-4.713 2.041-5.263-1.571-7.62-3.454-2.278-3.612-2.906-1.963-5.813.628-1.1 1.178-3.849 1.178-6.049 0-3.927-.078-4.084-2.591-4.949-1.492-.471-3.612-1.885-4.79-3.063-1.962-2.121-2.119-2.514-1.334-5.342.471-1.65.863-4.242.863-5.656 0-2.043.864-3.692 3.455-6.677 3.298-3.928 3.455-4.399 4.868-12.962l1.414-8.877-2.984-2.514-2.984-2.435.628-8.405.55-8.406 5.339-3.614c4.79-3.142 5.418-3.377 6.125-2.199.628 1.1.235 1.964-1.728 3.928-2.984 3.142-2.434 3.849 3.69 4.635l4.633.707 2.984 4.87c1.649 2.671 3.062 5.892 3.219 7.07.157 1.493 1.256 2.828 3.533 4.321 2.984 2.042 3.219 2.435 2.591 4.242-.471 1.099-.785 2.671-.785 3.456 0 2.2 7.067 12.569 8.559 12.569 3.376 0 3.454.471 2.041 17.282l-1.413 15.947 3.062 2.593c4.632 4.006 5.496 4.006 9.265.471 3.062-2.907 13.976-10.369 15.232-10.369.314 0 1.571 1.178 2.748 2.749 1.178 1.493 2.513 2.749 2.906 2.749.392 0 1.963-1.649 3.533-3.692 2.277-2.985 2.748-4.32 2.748-7.384 0-2.907.942-5.813 4.24-12.726 4.161-8.877 4.24-8.955 7.224-9.505 7.223-1.179 8.244-.864 13.269 4.242 2.591 2.592 5.025 4.713 5.496 4.635.393 0 2.199-.707 3.926-1.493 1.728-.864 3.769-1.571 4.476-1.571 1.334 0 13.269 14.611 13.819 16.889.157.707-1.335 1.179-5.732 1.571-6.91.629-7.459 1.179-7.459 7.778 0 5.891 2.198 10.369 5.496 11.076 2.748.55 4.161 3.142 3.769 6.991-.314 2.907-3.298 4.792-8.794 5.578l-3.848.55 1.335-1.807c1.728-2.514 1.649-2.828-1.02-4.242-2.199-1.1-2.356-1.1-6.282 2.042-3.376 2.828-4.004 3.771-4.475 6.756a11.675 11.675 0 01-2.905 6.206c-2.984 3.457-3.926 3.928-9.266 4.635-4.397.55-4.397.55-5.26-1.885-1.021-2.907-1.885-3.064-4.947-.786-2.198 1.493-2.512 1.571-5.732.471-3.925-1.414-4.868-1.021-5.653 2.2-.707 3.064-1.492 3.456-6.752 3.535-5.654 0-6.91.471-6.91 2.749 0 2.2-.785 2.986-5.104 5.342-2.355 1.336-3.219 2.357-3.611 4.399-.629 3.221-.236 4.557 1.57 5.107.785.235 2.12 1.178 2.984 1.963 1.57 1.493 1.648 1.729.471 6.206-1.178 4.714-1.178 4.792 1.335 12.412 1.413 4.321 2.826 8.091 3.219 8.484.942 1.021.863 8.249-.079 14.533-.471 2.828-1.021 6.285-1.256 7.62-.236 1.728-2.827 5.263-8.558 11.783-5.026 5.656-8.559 10.448-9.108 12.177-.472 1.571-3.298 5.577-6.282 8.876-3.926 4.4-5.418 6.599-5.418 8.17 0 1.728-.628 2.514-2.905 3.692-1.649.864-3.219 1.65-3.455 1.729-.314.157-.706-.393-.863-1.257zm10.757-21.76c2.748-3.3 6.752-13.512 6.203-15.633-.079-.471-.393-1.807-.629-3.064l-.549-2.199-6.988.235c-6.517.236-7.067.158-9.187-1.728-4.632-4.163-4.475-4.163-8.715-1.571-4.397 2.75-5.025 2.828-9.344 1.336-2.434-.865-3.298-.943-4.397-.158-1.806 1.336-1.727 1.807 1.335 8.563l2.67 5.813 4.868.472c2.748.314 6.595.549 8.637.549 3.69 0 3.69 0 7.459 5.499 2.12 2.985 4.24 5.499 4.711 5.499.549 0 2.355-1.649 3.926-3.613z" fill="#F3F5F9"/><path d="M777.801 671.513c-.628-.707-2.277-3.063-3.69-5.106l-2.513-3.692-7.224-.079c-4.004 0-7.851-.314-8.637-.628-.863-.314-2.512-2.985-3.768-5.892-2.591-6.127-2.042-6.991 3.297-4.87 3.22 1.257 3.22 1.257 7.46-1.178l4.318-2.436 3.926 3.3c3.533 2.906 4.161 3.22 5.732 2.356.942-.471 3.69-.785 6.045-.628 4.162.236 4.24.236 4.476 2.828.393 3.456-2.356 11.155-5.104 14.611-2.512 3.221-2.748 3.3-4.318 1.414zM597.368 706.47c-1.571-.785-1.963-1.649-2.199-4.634-.235-3.221 0-3.85 1.885-5.106 3.925-2.671 12.091-11.155 12.091-12.569 0-.786-.549-3.535-1.178-6.128-1.57-6.599-1.491-8.17.864-11.233 2.042-2.593 2.042-2.75.864-5.735-.942-2.435-1.021-3.613-.314-5.813 1.021-3.457.549-4.006-2.67-2.828-1.413.471-2.669.707-2.826.55-.157-.157.392-1.886 1.099-3.849 1.335-3.614 1.335-3.693-.471-6.835-1.649-2.985-1.806-5.577-.314-5.499.392 0 1.648 1.65 2.826 3.535 2.591 4.007 3.612 4.242 12.328 2.357 2.826-.628 5.417-.786 5.731-.471.393.392 1.021 2.199 1.414 4.085.392 1.885 3.062 7.934 5.81 13.354 2.827 5.499 5.104 10.369 5.104 10.998 0 .55-1.178 2.278-2.592 3.771-1.491 1.571-3.062 4.32-3.611 6.127-.707 2.749-2.12 4.321-7.538 8.877-4.476 3.692-6.831 6.284-7.145 7.698-1.099 5.185-1.413 5.499-7.145 6.049-7.067.629-8.166 1.021-7.93 2.592.314 1.65-1.571 1.964-4.083.707z" fill="#F3F5F9"/><path d="M600.508 689.031c0-1.178-1.727-1.728-10.285-3.614-4.24-.864-4.476-1.099-4.947-3.77-.236-1.571-.471-4.871-.471-7.385 0-4.399-.079-4.634-4.868-10.212-2.748-3.142-6.753-7.856-9.03-10.448l-4.083-4.792-1.177-9.741c-.629-5.42-1.414-11.39-1.728-13.354l-.471-3.614 5.889-1.257c3.219-.707 7.773-2.435 10.05-3.77 3.533-2.121 5.182-2.514 13.112-3.143 4.947-.471 9.03-.707 9.187-.55 4.004 5.028 7.459 10.763 7.459 12.412 0 1.257-1.021 3.064-2.905 4.871-1.649 1.571-3.612 4.163-4.475 5.656-1.492 2.749-1.492 2.749.392 6.284l1.806 3.457-1.727 4.242c-.943 2.278-1.728 4.635-1.728 5.263 0 1.021.236 1.021 5.025-.55 1.257-.314 1.414-.157 1.021 1.336-.235 1.021.157 2.985.785 4.399 1.257 2.592 1.257 2.749-.942 5.891-2.198 3.143-2.198 3.378-1.256 7.699 2.12 9.741 2.12 10.212-.707 13.119-2.905 2.985-3.926 3.378-3.926 1.571zm58.967-480.998c0-.707.628-5.734 1.414-10.998 1.099-7.384 1.805-9.898 2.905-10.683 2.198-1.65 3.219-1.414 4.397.942.942 1.729 1.57 2.043 3.847 1.964 2.748-.157 2.827-.078 5.182 5.264 1.806 3.927 2.199 5.577 1.571 6.127-.943.707-18.374 8.798-19.002 8.798-.235 0-.392-.628-.314-1.414zm-14.055-14.376c-3.533-.785-6.752-1.649-7.145-1.806-.314-.236-1.256-2.436-2.041-4.792-1.021-3.457-1.178-5.342-.707-8.484.707-3.771.864-4.085 3.769-5.028 4.868-1.571 11.228-1.414 13.662.393 2.041 1.492 2.12 1.807 2.356 10.526.157 7.62 0 8.956-1.1 9.82-.785.55-1.57.942-1.806.942-.235-.078-3.376-.707-6.988-1.571zm-14.918-25.373c-2.12-2.357-2.277-3.064-1.728-5.263.393-1.414 1.1-4.085 1.571-5.892.863-3.457 4.161-8.091 5.732-8.091 1.57 0 6.752 8.798 7.302 12.333.863 5.577.078 6.991-4.711 8.405-5.575 1.65-5.418 1.65-8.166-1.492z" fill="#F3F5F9"/><path d="M720.012 370.486c2.356.629 4.476 2.121 6.988 4.714l3.612 3.77 2.434 12.962c1.413 7.07 2.513 13.354 2.513 13.904 0 .472-1.257 2.436-2.749 4.242-3.297 4.085-3.376 5.185-.471 7.306 1.885 1.414 2.277 2.357 2.748 6.599.393 4.085 1.1 5.891 4.005 10.291 1.963 2.906 3.533 5.813 3.533 6.52 0 .707-.707 2.671-1.649 4.477-1.413 2.75-1.57 4.164-1.177 8.327.235 2.828.628 5.264.942 5.578.549.55 2.041.628 12.72.707l7.616.157-4.633 3.064c-2.591 1.728-4.946 3.613-5.26 4.163-.315.55-.707 5.028-.786 9.977l-.157 8.876 2.591 2.2c2.434 1.964 2.591 2.357 2.12 5.578-2.12 14.218-1.884 13.275-5.339 16.889-2.983 3.064-3.455 3.928-3.926 8.327-.314 2.749-.863 5.656-1.099 6.599-.628 2.121 3.455 6.991 7.224 8.562 3.219 1.336 3.376 3.378.628 8.563-1.099 2.042-1.963 4.006-1.963 4.32 0 .393 1.649 1.65 3.612 2.828 2.512 1.493 3.454 2.436 3.219 3.378-.236.707-.864 2.514-1.413 4.085-.471 1.493-1.021 3.143-1.178 3.692-.314 1.179-2.277 1.179-4.947.158-1.02-.472-3.926-2.043-6.438-3.535-3.769-2.279-5.025-2.671-7.224-2.279-2.198.393-4.789.943-5.339 1.65-.55.707-.55 1.414 0 2.514 2.67 4.87 2.67 4.949-3.533 14.297-5.182 7.934-5.811 9.348-5.811 12.726 0 5.106-1.334 4.871-5.888-.943-1.963-2.592-3.926-4.713-4.319-4.713-.314 0-1.649 1.257-2.905 2.828-2.199 2.671-2.67 2.907-7.773 3.378l-5.418.471-2.905 5.499c-1.649 2.985-2.905 6.049-2.984 6.678 0 .628 1.099 4.006 2.356 7.384 2.669 6.913 2.983 6.049-3.377 13.354l-3.847 4.321 1.178 3.535c1.099 3.221 1.099 4.32 0 10.998l-1.256 7.384-4.162 2.907c-2.355 1.649-4.24 3.456-4.24 4.084 0 .629 2.042 3.378 4.554 6.128 2.434 2.828 4.476 5.342 4.476 5.577 0 .315-3.848 1.65-8.637 3.064l-8.637 2.514-.707 3.299c-.471 2.121-1.413 3.771-2.591 4.556-1.021.629-3.219 3.535-4.868 6.442-5.182 8.798-8.009 10.841-18.138 12.962-.628.157-3.925-.157-7.223-.629-5.025-.707-6.517-1.257-8.245-3.063l-2.198-2.2 4.476-4.085c3.14-2.828 4.711-5.028 5.26-7.07.393-1.571 2.042-4.399 3.533-6.206 1.571-1.807 2.827-3.771 2.827-4.399 0-.55-2.434-5.892-5.418-11.783-2.905-5.971-5.653-12.255-5.888-14.062-1.021-5.656-1.571-5.97-8.166-4.635-8.402 1.807-9.658 1.65-11.699-1.335-2.748-4.085-2.827-4.792-.236-7.227 1.963-1.886 2.356-2.907 2.356-5.735 0-2.828-.629-4.399-3.455-8.405l-3.455-4.949 1.413-2.2c.943-1.414 1.335-2.985 1.021-4.556-.314-2.043.236-3.221 2.827-6.52 2.591-3.221 3.219-4.635 3.219-7.228 0-2.985-.157-3.22-2.905-3.927-10.522-2.75-9.658-2.278-9.658-5.421 0-3.613.314-4.006 4.947-7.148 4.083-2.828 4.24-3.378 2.434-7.934-1.178-2.986-1.414-3.143-4.633-3.143-3.219 0-3.612-.314-7.459-5.106-4.554-5.577-4.554-5.577-15.546-6.363-8.873-.628-10.443-1.65-8.088-5.263 1.492-2.357 1.492-2.435-.235-7.07-1.178-3.378-1.414-4.792-.707-5.028 1.413-.55 13.113-9.034 13.741-9.976 1.02-1.493.706-1.886-4.397-4.871-3.769-2.199-5.418-3.692-6.439-5.97-1.57-3.456-1.413-3.692 5.575-11.234 4.711-5.106 4.947-6.127 3.062-11.704-1.256-3.692-1.256-3.692.942-6.835 3.848-5.342 4.24-6.441 4.24-12.647 0-7.149-.942-8.641-6.438-10.055-4.162-1.1-3.769-.158-4.162-10.213-.078-2.435-.235-4.792-.314-5.341 0-.55-1.256-1.572-2.748-2.122l-2.591-1.099-.549-8.013c-.55-6.756-.943-8.563-2.827-11.705-1.413-2.435-2.513-5.891-3.141-9.741-.785-5.342-.706-6.127.707-8.877 1.413-2.749 4.711-7.777 5.496-10.055.785-2.278.55-3.456-1.963-10.605l-2.905-8.012-2.827.549c-5.574 1.022-5.731.943-9.186-3.927-1.885-2.593-3.376-4.949-3.455-5.264 0-.314 2.12-2.042 4.711-3.927 4.947-3.614 6.753-6.599 7.538-12.727.471-2.985.157-3.613-2.748-7.148-1.728-2.2-3.22-4.321-3.22-4.713 0-.472 1.806-2.671 4.005-4.949l4.004-4.164 1.257 1.728c2.669 3.771 4.082 4.714 7.066 4.478l2.905-.236.236-4.87c.235-4.635.157-4.949-3.612-9.82-2.041-2.749-4.004-5.577-4.318-6.363-.55-1.492.863-13.119 1.727-14.061.236-.314 6.517-1.1 13.819-1.807 19.158-1.807 20.022-1.964 20.572-3.299.235-.707-.471-3.064-1.571-5.421l-2.041-4.163 3.298-4.871c1.805-2.749 5.103-6.991 7.38-9.426 3.534-3.771 5.418-4.949 13.662-8.642 6.831-3.063 9.815-4.791 10.365-6.127.785-1.571 7.223-5.577 9.108-5.577.392 0 1.099 1.021 1.649 2.278 1.727 4.242 2.277 4.242 10.913.078l8.009-3.927-.235-2.907c-.236-2.671-.079-2.907 2.512-3.614 4.554-1.178 4.947-1.964 3.848-7.384l-.943-4.713 3.848-6.128c2.12-3.377 4.554-6.598 5.417-7.148 1.885-1.414 5.183-1.414 6.91-.157 1.178.942 1.021 1.335-1.884 4.713-4.476 5.263-3.848 6.442 3.14 5.735 5.182-.55 5.418-.472 5.889 1.257.236 1.021.471 2.592.471 3.535 0 1.414 1.335 2.67 2.827 2.67.157 0 2.041-1.649 4.24-3.535l4.004-3.535h14.133l5.104 4.085c2.905 2.278 5.339 4.949 5.575 6.049.314 1.1.549 5.578.628 9.898v7.856l-5.182 7.855c-2.827 4.321-6.988 11.155-9.265 15.162-2.277 4.085-5.654 9.898-7.617 12.961-3.376 5.499-4.161 7.856-2.748 8.72.471.236 2.748.236 5.261-.078 4.24-.472 4.868-.865 11.228-6.678 3.69-3.378 6.988-6.127 7.302-6.127.628 0 .864.628 2.67 8.877 1.256 5.42 1.727 6.441 4.397 8.562 1.727 1.257 5.417 5.971 8.401 10.37 8.244 12.333 8.009 10.683 2.434 16.968-5.339 6.049-5.889 7.384-6.674 15.868-.706 7.463-1.099 8.091-4.946 7.777-2.827-.157-3.298.157-8.637 5.735M485.323 592.408h-.157c-.392.235-.785 1.649-.785 2.985 0 1.571-.707 3.142-1.963 4.477l-2.041 2.2 1.648 2.749c1.963 3.378 1.571 3.692-5.574 5.578l-5.182 1.335-1.728 6.049-1.727 5.97 2.669 3.928c2.984 4.164 2.984 4.556.157 10.998l-1.256 3.064 1.727-.393c1.021-.236 3.534-.943 5.654-1.493 2.983-.864 3.769-.785 4.554 0 .785.786.785 1.493-.628 4.007-1.021 1.649-1.806 3.613-1.806 4.163 0 .55 2.277 3.535 4.946 6.834 1.257 1.572 2.277 2.671 3.141 3.928 3.533-1.414 7.224-2.121 11.071-2.749 6.281-1.021 10.914-2.278 16.881-4.792l8.245-3.535 4.318 4.87c2.356 2.671 5.575 6.363 7.224 8.092l2.905 3.22 4.004-4.006 4.005-4.163 7.066-.55c8.166-.629 11.699-2.593 11.699-6.52 0-3.771-2.591-24.039-3.14-24.746-.314-.314-2.827.472-5.497 1.886-2.669 1.335-5.182 2.199-5.574 1.885-.393-.393-1.178-3.535-1.885-6.991-.628-3.378-1.492-6.442-1.806-6.756-.314-.314-3.533-.079-7.145.393-5.889.707-6.674.55-7.616-.629-.628-.942-2.984-1.571-6.438-2.121l-5.497-.785-2.748-4.557c-1.413-2.435-3.69-5.106-5.103-6.048-2.67-1.886-24.262-8.092-26.618-7.777z" fill="#F3F5F9"/><path d="M443.395 646.061c-.236-.393-.236-1.964.078-3.535.628-3.378-.078-4.399-6.36-8.405-3.69-2.436-5.339-2.986-7.694-2.828-2.042.157-3.22-.157-3.612-.943-.393-.628-1.099-5.97-1.649-11.941l-.942-10.762 3.847-7.698 3.769-7.699 4.711-1.178 4.711-1.178-.157-4.714c-.392-7.698-1.021-9.191-4.554-10.133-2.984-.865-3.141-1.022-3.376-4.4-.157-2.828.314-4.399 2.434-7.855 1.413-2.357 2.905-4.242 3.298-4.085.471.078 1.256 1.571 1.884 3.299 1.099 3.378.628 3.142 11.464 5.813 2.591.629 7.851 1.336 11.62 1.65 6.517.471 7.145.393 10.365-1.492 1.884-1.1 3.611-2.043 3.847-2.043.235 0 0 1.257-.393 2.828-.706 2.435-.392 4.006 2.434 11.862 3.926 11.155 4.083 14.14.628 17.989-2.434 2.828-2.512 2.907-1.177 5.185.785 1.335 1.177 2.592 1.02 2.907-.235.314-2.355 1.021-4.711 1.571-2.434.55-4.789 1.414-5.339 1.964-.549.549-1.884 3.849-2.826 7.384l-1.885 6.441 2.827 3.928 2.826 3.928-1.57 4.006c-.864 2.2-1.492 4.557-1.335 5.185.471 2.907-22.534 7.62-24.183 4.949zm106.783-27.573L549 612.047h-7.459c-4.554 0-7.93-.393-8.637-.943-.628-.471-3.376-1.178-6.046-1.493-5.417-.628-5.417-.628-8.793-5.97-3.22-5.185-6.596-6.991-19.63-10.448-6.281-1.65-11.778-3.221-12.406-3.535-.628-.314-2.512-4.477-4.161-9.191-2.984-8.091-3.062-8.72-2.199-12.726.786-3.299 1.963-5.342 6.125-10.291 4.868-5.891 5.339-6.206 8.401-6.284 1.806 0 3.691-.472 4.162-1.1.471-.55 2.434-5.185 4.397-10.291 1.884-5.106 3.69-9.427 3.847-9.662.157-.157 3.533-.079 7.538.235 6.831.55 7.223.707 8.323 2.828l1.177 2.279 6.439-.55c6.281-.472 6.595-.393 12.091 2.356 3.141 1.571 6.203 2.907 6.753 2.907.628 0 3.533-1.571 6.517-3.535 4.161-2.671 5.653-3.299 6.752-2.671.786.393 1.414 1.1 1.414 1.493 0 .471.863 1.099 1.884 1.492 1.178.471 2.591 2.121 3.533 4.399l1.649 3.692-1.57 2.2c-1.492 2.121-1.57 2.435-.471 4.556 1.335 2.514 2.041 2.671 14.133 3.771 6.203.471 6.281.55 9.422 4.085 6.203 6.913 6.596 7.227 9.501 7.227 2.277 0 2.905.314 3.533 1.964 1.178 3.064 1.099 3.142-3.062 5.813-4.005 2.592-4.79 4.242-4.79 9.977 0 2.356.236 2.67 3.376 3.456 7.695 2.121 9.58 2.907 9.815 4.006.157.707-1.413 3.457-3.376 6.128-3.062 4.163-3.612 5.342-3.219 7.384.785 4.556-.628 5.342-11.464 6.206-8.715.707-10.05 1.021-14.054 3.378-2.592 1.492-6.989 3.064-10.443 3.771-3.22.707-8.009 2.356-10.6 3.613-2.591 1.336-5.025 2.435-5.418 2.435-.392 0-1.178-2.906-1.806-6.52zm62.108 111.313c-.864-.942-.707-1.492.706-2.985 2.199-2.356 2.12-3.142-.706-7.62-1.257-2.121-3.141-5.891-4.24-8.405-2.199-5.185-1.885-5.656 3.612-5.656 4.397 0 5.967-1.336 6.595-5.578.314-1.649 1.178-3.613 1.963-4.399 1.492-1.257 1.649-1.178 4.24 1.257 2.434 2.357 3.298 2.671 9.815 3.378 13.191 1.492 20.257-1.807 26.46-12.333 1.492-2.593 3.926-5.813 5.418-7.227 1.649-1.493 2.669-3.143 2.669-4.4 0-2.513 1.021-3.22 6.282-4.713 13.819-3.928 13.505-3.771 13.112-5.342-.706-2.828 3.533-1.728 12.406 3.142 7.538 4.085 8.715 4.557 10.757 3.85 1.649-.629 2.591-.55 3.376.157 1.021.864.942 1.178-.628 2.671-2.748 2.592-3.533 9.191-1.335 12.176.864 1.257 1.571 2.592 1.571 2.985 0 .393-2.435 4.163-5.497 8.484-2.983 4.242-5.496 7.934-5.496 8.248 0 .236 1.413 4.007 3.141 8.406 1.727 4.399 3.14 8.327 3.14 8.798 0 .471-1.727 1.728-3.925 2.828-3.769 1.886-4.397 1.964-19.159 1.964h-15.232l-.942-4.006c-.628-2.514-1.571-4.321-2.67-4.949-.864-.55-6.595-1.807-12.641-2.828l-10.993-1.729-15.154 7.542c-8.322 4.163-15.232 7.541-15.389 7.541-.157 0-.707-.55-1.256-1.257zM379.953 605.605c-8.402-.943-12.171-1.021-14.526-.393-2.356.628-5.261.471-11.935-.55-4.789-.707-9.029-1.571-9.343-1.885-.236-.315.471-1.807 1.649-3.378 1.177-1.493 1.963-3.221 1.727-3.771-.236-.55-2.748-1.65-5.575-2.435-2.826-.707-5.182-1.65-5.182-1.885 0-1.257 4.711-7.699 7.381-10.291 2.748-2.671 2.826-2.828 2.826-8.641v-6.049l2.748-1.257c1.571-.786 3.612-1.336 4.633-1.336 3.219 0 9.187 2.514 10.443 4.4 1.492 2.356 2.355 2.356 5.339 0 3.298-2.671 5.339-1.572 4.633 2.513-.707 4.321 4.161 14.062 7.38 14.69 4.083.864 8.716 3.457 10.05 5.656.786 1.179 2.906 3.614 4.712 5.342 4.554 4.242 4.946 6.049 1.962 8.17-3.297 2.357-5.653 2.435-18.922 1.1z" fill="#F3F5F9"/><path d="M365.741 566.013c-1.099-1.65-8.794-4.635-12.092-4.635-.864 0-2.983.707-4.789 1.65l-3.141 1.728-3.062-2.121c-1.728-1.1-3.534-2.042-4.005-2.042-.785 0-3.14-1.022-12.641-5.264-1.649-.707-2.591-1.649-2.591-2.592 0-2.278-1.413-2.671-4.633-1.257l-2.983 1.335-5.182-2.828c-5.654-3.142-5.654-3.142-4.162-9.426l.864-3.928 4.318-.393c4.24-.393 4.319-.471 6.203-4.163 1.885-3.928 2.434-4.164 7.145-3.064 3.848.943 4.633.471 5.182-3.142.55-3.3.157-2.985 8.794-6.599 2.199-.943 2.513-1.492 2.356-3.692-.079-1.493.471-3.456 1.178-4.556 1.727-2.436 1.649-4.007-.236-7.62-2.198-4.085-2.041-6.285.628-7.384 2.042-.943 7.774-6.521 13.034-12.805 1.492-1.807 2.905-4.556 3.219-6.285.629-3.692 2.513-7.619 4.005-8.484.628-.392 1.099-1.256 1.099-2.042 0-.786.471-2.043 1.099-2.907 1.1-1.492 1.178-1.414 1.963.864 1.414 3.928 2.042 4.635 5.811 6.678 2.983 1.571 4.397 3.221 8.087 9.348l4.475 7.306-1.727 7.384-1.649 7.306 1.727 3.456c1.571 3.378 1.571 3.692.472 8.327l-1.257 4.792 2.356 1.964c1.256 1.021 2.591 1.964 2.826 1.964.315 0 1.571.864 2.749 1.964 1.806 1.728 2.12 2.592 2.12 6.52.078 2.435.549 5.342 1.177 6.441.628 1.022 1.178 3.771 1.178 5.971v4.006l-2.905.471c-4.554.786-7.695.629-8.637-.393-1.413-1.335-6.517 10.291-6.517 14.769 0 1.885-.157 3.456-.393 3.456-.235 0-1.491-.549-2.826-1.256-2.199-1.1-2.434-1.1-4.947.864l-2.591 1.964-1.099-1.65z" fill="#F3F5F9"/><path d="M410.81 605.133c-6.674-2.278-7.381-2.671-8.166-5.027-.392-1.414-2.198-3.693-3.847-5.028-1.728-1.335-3.534-3.378-4.083-4.478-1.335-2.749-6.517-6.206-10.207-6.756-2.67-.471-3.141-.942-5.34-5.263-2.748-5.656-2.905-6.913-.785-9.584 1.099-1.414 1.571-3.22 1.571-6.048 0-2.671.628-5.264 1.962-7.856 2.12-4.163 2.749-4.399 12.171-4.949l3.533-.157.236-4.164c.235-3.849.392-4.085 2.277-4.085 1.177 0 3.533-.707 5.26-1.492 1.806-.864 6.36-2.278 10.208-3.221 7.851-1.885 14.682-5.97 16.253-9.662.471-1.179 1.256-2.121 1.727-2.121.471 0 4.24 1.885 8.401 4.242 7.538 4.32 7.617 4.399 12.014 11.626 2.434 4.006 5.103 8.877 5.967 10.919 1.57 3.535 1.806 3.692 8.872 6.128 4.005 1.414 7.617 2.828 8.009 3.22.314.315-1.256 1.886-3.533 3.378-4.24 2.671-4.24 2.75-9.736 1.964-7.381-.942-13.505-2.042-17.039-3.063-2.591-.707-3.062-1.257-4.632-5.499-1.178-3.143-2.12-4.635-3.062-4.635-.785 0-2.827 2.357-5.182 6.049-3.612 5.734-3.848 6.441-3.848 11.469 0 5.577.707 6.756 4.005 6.834 2.355 0 3.297 1.414 3.847 5.97l.55 3.928-4.397 1.021-4.476.943-4.475 9.034c-2.827 5.735-4.868 8.877-5.654 8.877-.628-.079-4.475-1.178-8.401-2.514z" fill="#F3F5F9"/><path d="M470.954 557.214c-6.988-2.593-9.343-4.007-9.343-5.656 0-.472-2.434-4.949-5.418-9.898l-5.339-8.956-8.873-5.106c-8.165-4.635-8.951-4.949-9.736-3.613-3.769 6.363-8.794 9.583-18.451 11.861-4.162 1.022-8.637 2.436-9.894 3.064-4.082 2.121-5.653 1.65-7.459-2.278-.942-2.121-1.57-5.106-1.57-7.698v-4.242l-4.319-2.907c-4.711-3.142-4.868-3.614-3.454-9.662.785-3.378.706-4.164-.786-6.835l-1.727-3.063 1.649-7.385 1.727-7.384-4.946-8.327c-4.319-7.384-5.339-8.484-8.402-9.898-2.591-1.1-3.768-2.2-4.632-4.399-1.885-4.478-1.492-7.62 2.355-17.361 3.691-9.27 4.476-10.369 11.856-15.947 2.435-1.885 2.827-2.671 2.827-5.342s.55-3.77 3.455-6.834c3.298-3.456 3.612-3.614 5.418-2.592 1.884.942 2.355.785 7.694-2.985 3.141-2.2 6.517-4.007 7.538-4.007 1.727 0 1.806.314 1.806 4.949 0 4.085-.471 5.813-2.434 9.427l-2.434 4.478 2.826 3.77 2.749 3.771 8.479 1.021c5.261.629 9.972 1.65 12.485 2.75 3.926 1.806 4.004 1.885 3.926 5.184-.079 3.3.078 3.535 3.768 5.656l3.848 2.279 5.732-1.729 5.81-1.728 3.769 3.142c3.376 2.828 3.769 3.457 4.161 7.385.236 2.67 1.492 6.441 3.455 10.29l3.062 6.128h5.025c4.868 0 5.182.078 10.365 4.242 4.868 3.849 5.888 4.32 12.248 5.42l6.91 1.257 5.496 5.97 5.496 5.892h15.154l4.476-3.692 4.475-3.692 4.476 4.87c4.24 4.556 4.711 4.871 8.009 4.871 2.512 0 4.632.707 8.165 2.749 2.591 1.571 5.261 3.142 5.889 3.457.707.392 1.099 1.414.942 2.67-.471 3.85 2.591 8.956 6.831 11.627 2.199 1.335 3.769 2.828 3.534 3.221-.943 1.414-11.228 7.698-12.72 7.698-.785 0-2.12-.707-2.905-1.571-.785-.864-1.885-1.571-2.434-1.571-.55 0-3.769 1.649-7.067 3.692l-5.967 3.692-5.811-2.985c-5.731-2.985-5.967-2.985-11.699-2.514-5.81.55-5.888.55-6.752-1.492-.55-1.1-1.728-2.2-2.591-2.357-3.298-.629-15.939-1.1-16.725-.55-.471.314-2.276 4.321-4.004 8.877-4.397 11.705-4.397 11.705-7.93 11.705-2.827 0-3.376.392-7.93 5.813-2.749 3.299-5.575 5.892-6.203 5.892-.628 0-4.24-1.179-7.931-2.514z" fill="#F3F5F9"/><path d="M564.233 503.639c-4.475-2.671-6.909-3.535-9.265-3.535-2.827 0-3.612-.471-7.224-4.399-5.888-6.363-5.888-6.363-11.149-1.885l-4.554 3.927h-13.584l-5.26-5.813-5.261-5.813-7.145-1.335c-6.596-1.336-7.616-1.807-12.484-5.656-5.183-4.007-5.575-4.164-10.365-4.242h-4.946l-2.984-6.442c-1.884-4.242-2.905-7.62-2.905-9.741 0-2.985-.393-3.614-4.083-6.913-2.277-1.964-4.711-3.535-5.418-3.535-.785 0-3.533.629-6.281 1.493l-4.868 1.571-3.298-1.964c-2.984-1.728-3.298-2.2-3.298-5.185 0-5.027-4.004-6.991-17.352-8.562-8.009-.943-8.087-.943-9.972-3.771-2.434-3.535-2.434-3.849 0-8.091 1.571-2.828 1.963-4.478 1.963-9.427v-6.049l2.356-.471c1.256-.315 4.083-2.121 6.203-4.007 3.611-3.299 4.475-3.613 10.835-4.713 9.422-1.65 8.715-1.335 14.918-7.227 4.083-3.928 5.889-6.285 6.596-8.72.863-2.906.863-3.535-.157-4.085-3.455-2.121-3.455-1.964-.471-6.363 1.649-2.278 2.905-4.635 2.905-5.106 0-.471-.942-2.749-2.042-4.949-2.041-4.085-2.041-6.284-.078-6.284.549 0 4.475 5.263 8.715 11.783 5.496 8.327 8.166 11.783 9.187 11.783.942 0 2.434-1.414 3.926-3.77 3.062-4.871 3.454-6.678 1.884-9.113-1.021-1.571-1.178-2.906-.707-6.441.55-4.478.55-4.478-2.355-6.913l-2.984-2.436 1.885-2.356c.942-1.257 3.14-5.106 4.711-8.563 2.748-6.049 2.826-6.363 1.649-8.405-2.12-3.614-.943-5.578 6.36-10.134 5.888-3.692 7.223-5.028 12.562-12.255 3.848-5.263 6.517-8.17 7.459-8.17 1.492 0 10.208 2.986 11.229 3.928.392.314.392 2.357.078 4.635-.471 3.456-1.335 5.028-5.889 10.762-2.983 3.771-5.418 7.463-5.418 8.406 0 .864.55 3.692 1.257 6.206 1.256 4.477 1.256 4.634-.785 10.762-1.1 3.456-2.042 6.913-2.042 7.698 0 .786-1.256 5.185-2.748 9.663-1.492 4.477-2.748 8.876-2.748 9.741 0 .864.942 3.77 2.041 6.363l1.963 4.792-3.219 6.048c-1.806 3.3-3.533 6.049-3.926 6.049-.392 0-2.826 2.592-5.496 5.892-4.633 5.734-4.79 5.892-8.323 5.892-1.884 0-5.967-.786-8.872-1.65-10.993-3.378-12.956-.864-5.34 6.913 5.418 5.577 11.228 8.798 15.704 8.877 4.711 0 13.819-4.635 17.274-8.956 1.649-2.042 5.103-5.106 7.695-6.834l4.632-3.142v-8.956c0-10.055.393-10.998 5.261-11.862 4.475-.864 6.595.786 7.93 5.971 2.591 10.526 2.434 10.212 4.711 10.212 1.178 0 3.298-.786 4.79-1.65l2.591-1.571-.55-5.656c-.314-3.142-.864-6.442-1.178-7.306-.392-.942-3.062-3.378-5.967-5.499-4.475-3.22-6.203-3.927-10.835-4.634-4.868-.707-5.575-1.022-6.046-2.75-1.335-4.949-.785-7.463 3.219-13.747 2.198-3.457 3.926-6.599 3.926-7.07 0-.472-.864-4.321-1.885-8.641-2.198-8.799-1.963-9.82 2.827-14.219 4.004-3.771 9.658-7.541 9.893-6.756.157.472-1.02 4.085-2.512 8.249-1.571 4.084-2.827 7.855-2.827 8.326 0 1.729 14.997 10.291 18.138 10.291 1.806 0 3.768-2.042 3.847-3.849 0-.55-2.277-3.613-5.104-6.756-2.826-3.142-5.103-6.284-5.103-6.913 0-2.121 1.57-2.435 3.455-.628 1.962 1.807 3.69 2.042 6.045.785 2.042-1.021 1.885-2.513-.549-6.677-1.649-2.828-1.885-3.692-1.1-4.713 2.356-2.75 5.654-.236 3.691 2.906-.785 1.257-.707 1.729.235 2.514.707.472 2.827 2.593 4.711 4.714l3.377 3.77-3.612 3.692c-2.042 2.043-3.69 4.085-3.69 4.557 0 .55 1.57 2.671 3.533 4.87 3.769 4.085 4.083 5.578 2.669 10.448-.706 2.278-2.198 4.006-6.281 7.149-2.905 2.278-5.496 4.556-5.732 5.106-.392.864 3.141 6.52 7.538 12.019 2.12 2.671 2.198 2.671 5.496 1.807 1.885-.55 3.612-.707 3.926-.393.314.314 1.492 3.142 2.591 6.284l1.963 5.656-3.926 7.777-3.926 7.699.864 6.206c.628 4.242 1.649 7.541 3.298 10.526 2.12 3.771 2.434 5.264 2.748 11.784.392 8.091 1.021 10.212 3.141 10.212 2.669 0 3.297 1.65 3.297 8.72 0 7.62.55 8.484 5.889 9.741 3.926.942 4.319 1.728 4.319 7.777 0 5.42-.157 5.891-3.22 10.212l-3.297 4.556 1.334 4.085c.707 2.278 1.257 4.635 1.257 5.263 0 1.414-7.695 10.134-8.873 10.134-.549 0-3.69-1.65-6.988-3.535zm-264.84 120.976c-.235-.628-.078-2.278.393-3.692 1.099-3.142.236-4.321-4.083-5.028-5.967-.942-6.281-1.414-4.24-5.656 1.021-2.042 2.67-5.891 3.69-8.641 2.277-6.284 7.617-11.626 10.836-10.841 5.339 1.336 5.889 1.1 8.558-3.849 4.162-7.698 3.22-10.526-2.983-9.112-2.67.55-4.947.392-10.051-.707-3.611-.786-6.752-1.729-7.066-2.121-.314-.393-1.256-2.2-2.042-4.085l-1.491-3.378 1.962-1.493c3.377-2.671 5.104-2.671 8.323-.157 2.513 2.043 3.926 2.435 9.344 2.907 7.381.707 7.224.785 9.736-6.835.942-2.906 1.963-5.263 2.199-5.263 1.648 0 18.137 7.227 20.1 8.798 1.885 1.493 2.356 2.514 2.67 6.206.314 4.399.314 4.399-3.612 8.799-4.005 4.399-7.224 9.662-7.224 11.783 0 .707 1.885 1.65 5.104 2.514 2.827.785 5.104 1.571 5.104 1.728 0 .236-.786 1.728-1.649 3.378-2.042 3.613-2.827 3.613-13.113-.157-7.302-2.671-9.108-2.435-11.542 1.178-1.178 1.885-1.178 2.357.707 8.091 2.041 6.52 1.649 7.699-1.806 5.813-2.277-1.256-8.401-1.021-9.815.393-.628.629-1.413 2.75-1.727 4.714-.236 1.964-1.021 4.085-1.649 4.713-1.492 1.493-4.083 1.493-4.633 0z" fill="#F3F5F9"/><path d="M293.348 647.161c-3.769-2.357-4.79-2.671-5.889-1.886-4.083 2.907-4.711 2.907-7.93-.235-2.513-2.357-3.219-3.771-3.612-6.913-.942-6.363-5.182-9.113-10.914-6.913-2.198.864-2.041.942-7.773-5.813l-1.963-2.357-6.517 1.335c-3.612.786-6.988 1.414-7.538 1.414-.549 0-1.335-1.414-1.806-3.063-.392-1.729-1.413-3.85-2.198-4.871-1.256-1.492-1.649-1.571-3.141-.785-.942.471-2.041.707-2.434.471-.392-.236-1.256-3.692-2.041-7.699-.786-4.006-1.728-7.855-2.042-8.562-.392-.786-2.277-2.043-4.24-2.907-3.455-1.571-3.533-1.649-3.533-5.42 0-5.106-.785-5.735-6.674-5.106l-4.868.393-.471-2.514c-.785-3.692-.864-3.614 2.591-4.635 1.884-.55 3.847-1.885 4.946-3.378 1.1-1.492 4.083-3.456 8.009-5.342 5.418-2.592 7.145-3.849 12.799-10.055 3.533-3.928 6.438-7.777 6.438-8.562 0-.865 1.099.157 2.748 2.67 2.513 3.693 2.748 4.557 2.827 9.82 0 4.949.471 6.913 3.769 15.083 3.454 8.484 3.69 9.583 3.062 12.883-.942 5.106-.471 5.892 3.298 5.42 1.727-.235 3.297-.157 3.533.236.628.942-1.021 4.792-2.513 5.892-1.177.864-1.099 1.178.393 3.613 1.492 2.514 1.57 2.907.55 4.949-1.963 3.692-1.492 4.871 1.805 5.421 4.476.785 7.067.628 8.794-.472 1.335-.785 1.963-.55 4.633 2.121 3.69 3.535 4.868 3.378 7.145-1.1.864-1.728 2.199-3.142 2.905-3.142 3.141 0 11.228 1.886 11.228 2.671 0 .471-.549 2.514-1.335 4.556l-1.334 3.692 4.397 6.521c6.674 10.133 6.517 9.505 3.69 12.726-1.335 1.571-2.827 2.828-3.298 2.749-.549 0-2.984-1.257-5.496-2.906z" fill="#F3F5F9"/><path d="M275.289 618.566c-2.591-2.121-3.219-2.356-4.947-1.571-2.041.943-7.538 1.257-8.323.471-.235-.235-.078-1.649.393-3.142.55-1.728.549-3.221.078-4.399-.549-1.257-.392-2.906.629-5.97 2.041-6.285 2.041-6.442-2.435-6.442h-3.847l.393-4.163c.392-3.692 0-5.106-3.22-12.648-2.905-6.913-3.611-9.348-3.611-13.119 0-4.242.314-5.184 3.69-10.212 2.591-3.928 3.847-6.677 4.161-9.191l.393-3.692 5.889-1.807c7.066-2.199 7.695-2.671 6.36-5.184-1.571-2.829-.864-3.614 4.397-5.657l4.868-1.806 1.963 2.592c1.57 2.121 2.669 2.671 5.889 3.142 4.161.55 5.888 2.121 8.715 7.777.628 1.257 2.042 2.593 3.141 2.985 1.099.472 2.669 1.414 3.533 2.2 2.984 2.671 12.17 7.306 13.741 6.913 1.963-.55 1.963.707.078 6.127l-1.413 3.928-4.476.236c-4.711.235-7.93-1.1-11.071-4.557-.785-.864-1.884-1.571-2.512-1.571-1.963 0-9.658 5.656-9.658 7.07 0 2.436 4.083 10.92 5.418 11.312 5.339 1.572 12.877 2.829 15.939 2.671 2.041-.078 4.004.079 4.24.315.314.314-.393 2.121-1.571 4.085-1.962 3.377-2.119 3.456-4.396 2.67-1.335-.471-3.141-.628-4.162-.392-2.041.55-9.972 7.855-9.972 9.191 0 .55-1.57 4.792-3.611 9.426-2.827 6.756-3.926 8.563-5.261 8.799-1.021.078-2.356 1.335-3.298 3.142-.864 1.65-1.884 2.985-2.355 2.906-.393 0-2.12-1.099-3.769-2.435zm-111.888-25.53c-.393-.786-1.021-2.671-1.335-4.164-.314-1.571-1.806-6.048-3.376-10.055-2.434-6.363-3.062-7.384-4.947-7.777-1.334-.235-2.669-1.414-3.769-3.456-1.256-2.278-2.355-3.143-4.239-3.535l-2.592-.472.079-6.834c0-4.399-.314-7.384-.942-8.091-.55-.629-3.691-1.807-6.988-2.671-5.418-1.336-6.125-1.728-7.224-4.007-.942-2.042-1.021-2.985-.314-4.399.471-.942 1.021-3.142 1.099-4.87.236-3.064.393-3.221 6.125-6.128 3.219-1.571 6.281-2.906 6.752-2.906.393 0 2.199 1.414 3.926 3.221 1.649 1.728 5.496 5.342 8.401 7.934 4.868 4.32 5.968 4.949 12.249 6.599 5.339 1.414 7.616 2.513 9.972 4.556 1.649 1.571 4.554 3.378 6.517 4.006 2.041.707 4.083 1.571 4.711 1.807 3.062 1.571 15.311 28.437 13.426 29.616-1.02.628-16.959 3.299-23.712 4.006-5.81.55-7.459 1.728-8.872 6.049-.943 2.906-3.769 3.77-4.947 1.571zm38.395-18.461c-1.57-5.106-7.537-17.36-9.736-20.11-.628-.785-.314-1.178 1.021-1.492 1.649-.472 1.727-.707 1.178-5.971-.628-6.677-.471-6.834 7.145-6.834 5.261 0 5.732.157 9.736 3.142 2.356 1.728 4.397 3.142 4.554 3.142.157 0 2.12-1.571 4.397-3.535l4.161-3.535 1.728 2.357c1.963 2.749 3.219 2.907 5.182.786 1.806-2.043 2.905-2.043 5.261.235 1.256 1.179 2.277 3.378 2.983 6.599l1.021 4.87-5.81 6.521c-6.91 7.698-6.125 7.07-12.485 9.819-3.14 1.335-6.359 3.457-8.322 5.499-2.042 2.042-4.005 3.378-5.104 3.378-1.021 0-2.591.157-3.455.393-1.413.392-1.884-.236-3.455-5.264z" fill="#F3F5F9"/><path d="M246.473 554.23c-1.806-2.593-3.533-4.478-3.926-4.243-.628.393-2.355-4.242-2.355-6.441 0-1.021-4.947-4.949-6.282-4.949-.549 0-1.884.707-2.983 1.571l-2.12 1.65-1.728-2.2c-1.021-1.257-1.806-2.592-1.806-3.064 0-.471-.863-1.649-1.806-2.592-1.02-.943-2.277-3.142-2.826-4.87-.785-2.75-1.178-3.064-3.455-3.064-2.905-.079-3.69-.471-5.496-3.299-1.1-1.807-1.963-2.2-5.418-2.357-2.905-.157-4.24-.629-4.397-1.414-.157-.864.471-1.257 1.963-1.257 1.256 0 3.926-.079 5.967-.157l3.848-.157-.314-3.3-.236-3.299 4.319-1.414c2.355-.785 7.537-2.435 11.542-3.692l7.145-2.278 2.826 1.885c1.885 1.336 3.377 1.728 4.711 1.414 2.042-.471 2.199-.157 4.083 10.212.628 3.457 3.141 9.584 4.162 10.213.392.235 3.769-.629 7.537-1.886 3.769-1.335 7.224-2.121 7.538-1.964 1.413.865.628 3.536-1.649 6.128-2.905 3.299-2.905 4.163-.392 4.792 2.512.628 4.554 4.399 2.748 5.027-.628.236-3.298 1.179-5.889 2.043l-4.711 1.649-.393 3.614c-.314 2.357-1.413 5.185-3.376 8.091-1.57 2.357-3.062 4.399-3.298 4.399-.157 0-1.806-2.121-3.533-4.791z" fill="#F3F5F9"/><path d="M186.564 549.202c-2.12-.629-5.261-2.043-6.988-3.221l-3.219-2.043 4.554-4.085 4.632-4.084-1.02-4.714c-.55-2.592-.864-6.049-.707-7.777l.235-3.142 4.24-.236c3.848-.235 4.24-.471 5.025-2.592.472-1.257 1.257-2.278 1.728-2.278 1.806 0 4.24 2.435 4.475 4.477.157 1.179.786 2.2 1.414 2.279 8.715 1.178 8.637 1.178 9.814 3.456 1.021 1.885 1.728 2.357 4.005 2.357 2.434 0 2.905.314 4.004 2.906.628 1.65 1.963 3.771 2.827 4.792l1.727 1.807-3.69 3.535-3.769 3.535-4.161-3.221c-3.926-2.906-4.554-3.142-9.265-3.142-2.749 0-6.36.393-8.088.864l-2.983.786.471 5.42c.628 6.127.863 5.97-5.261 4.321zm113.693-4.95c-.471-.315-2.041-2.514-3.454-4.871-1.414-2.435-2.67-4.399-2.748-4.556-.158-.079-2.12-.55-4.476-.943-3.298-.628-4.711-1.414-6.438-3.378-1.963-2.278-4.79-7.62-4.319-8.091.157-.078 1.57-.707 3.219-1.414 1.571-.628 2.905-1.65 2.905-2.278 0-.55 1.414-4.006 3.141-7.541 1.963-4.085 3.141-7.62 3.141-9.506 0-4.713.864-7.698 2.748-9.662.942-.943 2.277-2.828 2.905-4.085 1.099-2.042 1.099-2.671.079-5.499-1.021-3.064-1.021-3.221.706-4.635 2.984-2.356 8.245-7.384 8.873-8.327.235-.471-1.492-2.906-3.926-5.42-4.319-4.635-4.397-4.713-4.161-8.877.235-4.006.392-4.163 2.512-4.477 1.256-.079 3.455 0 4.947.235 2.198.472 2.983 1.179 4.397 4.242 1.727 3.535 1.884 3.692 8.244 5.578l6.438 1.885 7.852-1.414c8.716-1.65 9.815-1.492 20.65 2.435 3.298 1.179 6.046 2.671 6.046 3.221 0 .55-.706 2.357-1.57 3.928-.864 1.65-1.571 3.849-1.571 5.027 0 3.614-11.385 16.419-16.096 17.99l-2.905.942.393 3.693c.235 2.042 1.021 4.949 1.806 6.52 1.256 2.671 1.256 2.985.078 4.87-.706 1.1-1.335 2.985-1.335 4.321 0 2.121-.392 2.435-4.475 3.928-5.025 1.885-6.517 3.299-6.517 6.206 0 1.885-.079 1.885-4.711 1.414l-4.633-.55-1.963 3.927-2.041 3.928-4.476.236-4.554.236-1.177 5.42c-1.178 5.342-1.963 6.52-3.534 5.342z" fill="#F3F5F9"/><path d="M167.327 539.539c-7.145-2.043-7.616-2.357-14.683-8.798-4.004-3.693-7.537-7.228-7.773-7.777-.314-.629.079-1.493.707-1.964 1.02-.786 1.177-2.514 1.02-10.291l-.235-9.348 2.12-.786c3.062-1.1 11.699 4.635 15.232 10.212 3.219 4.949 3.612 5.264 5.496 3.85 1.257-.865 2.042-.786 5.811.864 6.517 2.906 6.831 3.456 7.302 12.333l.314 7.62-3.612 3.142c-1.963 1.728-3.769 3.064-4.004 3.064-.236 0-3.691-1.021-7.695-2.121zm100.189-9.033c1.334-1.414 1.727-2.828 1.727-5.892 0-4.949-.079-4.949-9.265-1.964-6.439 2.121-6.596 2.121-7.695.628-1.492-2.042-1.413-3.535.55-8.641 1.099-3.063 2.041-4.32 3.062-4.32 1.963 0 2.905-1.414 3.533-5.499.785-4.792 1.1-5.106 4.633-5.106 2.983 0 3.219-.236 6.752-5.892 4.319-6.756 3.926-6.677 12.563-2.514l5.889 2.907-.236 5.499c-.157 3.456-.706 6.363-1.57 7.855-.785 1.257-2.198 4.242-3.141 6.678-1.491 3.613-2.277 4.477-4.946 5.656-2.827 1.178-3.141 1.571-2.67 3.142 1.492 4.635 1.099 5.499-3.926 7.384-6.124 2.435-7.459 2.435-5.26.079z" fill="#F3F5F9"/><path d="M176.749 514.008c-4.868-2.356-6.753-2.906-7.381-2.278-1.492 1.414-1.884 1.178-4.161-2.671-1.413-2.435-3.769-4.713-7.459-7.148l-5.497-3.614 2.984-3.221c1.649-1.807 4.162-4.635 5.653-6.284 4.005-4.399 4.947-4.714 9.501-3.221l3.847 1.257v5.499c0 4.635.393 6.049 2.434 9.741 1.335 2.356 2.67 4.477 3.063 4.634.314.236 3.14-.864 6.203-2.356 3.14-1.493 5.81-2.671 5.967-2.671.157 0 1.021 1.414 1.884 3.142l1.649 3.142-2.355 4.714-2.356 4.713-3.769-.078c-2.669-.079-5.496-.943-10.207-3.3zm21.749.236c-2.277-1.885-2.434-2.278-1.727-4.477.55-1.415.55-2.829.157-3.457-1.178-1.885-.785-2.671 1.885-3.849 2.277-1.1 2.512-1.571 2.748-5.263.235-4.007.314-4.164 2.983-4.635 1.492-.314 4.633 0 7.145.628l4.554 1.1 1.414 4.242c.706 2.357 1.57 4.87 1.806 5.656.314 1.021-.628 1.885-4.162 3.535-4.318 2.042-4.554 2.357-4.318 4.713.235 2.907-.079 3.064-5.889 3.535-3.533.315-4.397.079-6.596-1.728zm50.801-.157c-.235-.55-1.334-6.52-2.512-13.119-1.256-6.677-2.67-12.569-3.141-13.04-1.021-1.022-13.348-4.007-15.154-3.614-.628.079-2.12.943-3.297 1.807-1.257.943-2.356 1.492-2.513 1.335-.157-.157-.55-1.964-.785-3.927-.393-3.221-.236-3.771 2.355-6.442 1.649-1.807 3.22-2.828 4.083-2.592.707.157 2.12.549 3.062.864 1.335.392 2.749-.079 4.947-1.65 1.649-1.178 3.062-2.435 3.062-2.749 0-.393-1.884-2.2-4.24-4.007-2.355-1.885-4.318-3.77-4.318-4.32-.079-.472 1.649-1.964 3.69-3.3 3.376-2.199 4.476-2.435 9.422-2.435h5.653v-5.027c0-4.243.315-5.185 1.963-6.756 1.1-1.022 1.963-2.357 1.963-2.907 0-.628.786-2.592 1.649-4.399 1.335-2.514 1.492-3.535.785-4.635-.785-1.257-.235-1.728 4.633-4.163 2.984-1.493 5.81-2.75 6.203-2.75.392 0 1.335.943 2.041 2.121 1.335 1.964 1.335 2.357.079 7.227-1.021 3.771-2.12 5.971-4.24 8.092l-2.827 2.985.864 4.085c1.57 7.62 3.455 13.197 4.475 13.197.55 0 2.827-1.65 5.104-3.535 2.277-1.964 4.162-3.535 4.24-3.535.079 0 2.827.707 6.046 1.571 3.219.864 7.695 1.571 9.815 1.571 3.768.079 4.082.236 7.851 4.478l3.926 4.399-5.496 5.028-5.418 5.027 1.257 3.457c1.256 3.378 1.256 3.378-1.1 6.598-1.256 1.729-2.512 3.221-2.669 3.221-.236 0-2.042-.864-4.162-1.964-6.831-3.456-12.013-5.184-13.112-4.242-.55.393-2.434 3.221-4.162 6.206-3.219 5.342-3.297 5.421-6.909 5.656l-3.769.236-1.021 4.87c-.863 3.85-1.413 4.949-2.512 4.949-1.728 0-2.827 1.257-3.534 4.085-.628 2.514-1.805 3.535-2.277 2.043z" fill="#F3F5F9"/><path d="M221.897 505.053c-.157-.393-1.178-3.378-2.12-6.756-1.1-3.771-2.277-6.206-3.063-6.363-.706-.236-3.297-.786-5.81-1.257l-4.554-.943.236-4.399.235-4.321 3.533-1.021c2.984-.942 3.769-.864 5.261.079.942.628 2.277 1.178 2.827 1.178.785 0 1.335 1.414 1.649 4.713.628 5.499 1.334 5.735 5.967 2.436l3.141-2.278 6.438 1.492c3.533.864 6.596 1.65 6.674 1.807.157.078.785 3.142 1.413 6.756 1.021 5.813 1.021 6.756 0 7.777-1.02 1.021-1.413.942-3.376-.55-1.256-.864-2.748-1.728-3.376-1.885-.942-.158-9.579 2.199-13.584 3.77-.549.236-1.256.079-1.491-.235z" fill="#F3F5F9"/><path d="M178.163 500.261c-1.256-2.514-2.042-5.577-2.356-9.584l-.392-5.813-4.79-1.414c-4.789-1.414-8.009-4.242-7.145-6.441.236-.472 5.418-3.143 11.542-5.971 8.716-4.006 11.385-5.577 12.249-7.305 1.335-2.435 1.178-2.435 5.103-1.257 2.749.785 3.141.707 5.261-1.021 1.963-1.65 3.455-2.043 8.951-2.436 3.69-.235 7.381-.864 8.323-1.492 1.57-.943 2.12-.786 5.339.942 1.963 1.1 6.36 4.243 9.815 6.992 6.124 4.792 6.203 5.028 4.868 6.52-1.335 1.414-4.083 1.493-7.616.157-.628-.235-2.748 1.336-4.79 3.535l-3.69 3.928-2.12-1.571c-1.963-1.493-2.199-1.493-7.145-.157l-5.104 1.414-.235 5.342c-.236 5.106-.314 5.341-2.513 6.127-2.198.786-2.355 1.1-2.355 4.949 0 3.614-.236 4.242-2.042 5.185-1.806 1.021-2.12.942-3.062-.236-1.256-1.807-1.806-1.728-7.616 1.021-2.67 1.257-5.34 2.357-5.732 2.357-.471 0-1.727-1.728-2.748-3.771z" fill="#F3F5F9"/><g opacity=".44"><ellipse opacity=".6" cx="528.047" cy="466.308" rx="30.76" ry="30.771" fill="#1D2550"/><ellipse cx="528.047" cy="466.308" rx="5.428" ry="5.43" fill="#fff"/><ellipse opacity=".6" cx="215.019" cy="508.842" rx="22.62" ry="22.628" fill="#1D2550"/><ellipse cx="215.019" cy="508.841" rx="3.992" ry="3.993" fill="#fff"/><ellipse opacity=".6" cx="381.485" cy="489.839" rx="19.904" ry="19.91" fill="#1D2550"/><ellipse cx="381.485" cy="489.838" rx="3.512" ry="3.514" fill="#fff"/><ellipse opacity=".6" cx="497.287" cy="571.291" rx="19.904" ry="19.91" fill="#1D2550"/><ellipse cx="497.287" cy="571.291" rx="3.512" ry="3.514" fill="#fff"/><ellipse opacity=".6" cx="643.85" cy="319.694" rx="19.904" ry="19.91" fill="#1D2550"/><ellipse cx="643.85" cy="319.694" rx="3.512" ry="3.514" fill="#fff"/><ellipse opacity=".6" cx="643.85" cy="404.767" rx="19.904" ry="19.91" fill="#1D2550"/><ellipse cx="643.85" cy="404.767" rx="3.512" ry="3.514" fill="#fff"/><ellipse opacity=".6" cx="745.177" cy="634.642" rx="19.904" ry="19.91" fill="#1D2550"/><ellipse cx="745.177" cy="634.643" rx="3.512" ry="3.514" fill="#fff"/><ellipse opacity=".6" cx="967.735" cy="531.47" rx="19.904" ry="19.91" fill="#1D2550"/><ellipse cx="967.735" cy="531.471" rx="3.512" ry="3.514" fill="#fff"/><ellipse opacity=".6" cx="873.645" cy="377.616" rx="19.904" ry="19.91" fill="#1D2550"/><ellipse cx="873.645" cy="377.616" rx="3.512" ry="3.514" fill="#fff"/><ellipse opacity=".6" cx="1054.59" cy="562.241" rx="19.904" ry="19.91" fill="#1D2550"/><ellipse cx="1054.59" cy="562.241" rx="3.512" ry="3.514" fill="#fff"/><ellipse opacity=".6" cx="756.033" cy="466.308" rx="30.76" ry="30.771" fill="#1D2550"/><ellipse cx="756.033" cy="466.308" rx="5.428" ry="5.43" fill="#fff"/><ellipse opacity=".6" cx="1022.02" cy="278.064" rx="30.76" ry="30.771" fill="#1D2550"/><ellipse cx="1022.02" cy="278.063" rx="5.428" ry="5.43" fill="#fff"/></g></svg>